<svg width="844" height="296" viewBox="0 0 844 296" fill="none" xmlns="http://www.w3.org/2000/svg">
<path d="M567.285 240.762V180.168L687.262 6.46352H785.022L669.488 180.168L625.052 166.837H844V240.762H567.285ZM713.924 289.238V240.762L716.752 166.837V123.613H806.432V289.238H713.924Z" fill="white"/>
<path d="M418.068 295.701C393.022 295.701 370.804 289.911 351.414 278.331C332.293 266.751 317.212 249.919 306.17 227.835C295.398 205.752 290.012 179.091 290.012 147.851C290.012 116.611 295.398 89.9492 306.17 67.8659C317.212 45.7825 332.293 28.9507 351.414 17.3704C370.804 5.79015 393.022 0 418.068 0C443.114 0 465.197 5.79015 484.318 17.3704C503.708 28.9507 518.79 45.7825 529.562 67.8659C540.604 89.9492 546.125 116.611 546.125 147.851C546.125 179.091 540.604 205.752 529.562 227.835C518.79 249.919 503.708 266.751 484.318 278.331C465.197 289.911 443.114 295.701 418.068 295.701ZM418.068 219.352C424.262 219.352 429.783 217.198 434.631 212.889C439.478 208.58 443.249 201.174 445.942 190.671C448.904 180.168 450.385 165.894 450.385 147.851C450.385 129.538 448.904 115.264 445.942 105.031C443.249 94.5275 439.478 87.1215 434.631 82.8125C429.783 78.5036 424.262 76.3491 418.068 76.3491C411.874 76.3491 406.353 78.5036 401.506 82.8125C396.658 87.1215 392.753 94.5275 389.791 105.031C387.098 115.264 385.751 129.538 385.751 147.851C385.751 165.894 387.098 180.168 389.791 190.671C392.753 201.174 396.658 208.58 401.506 212.889C406.353 217.198 411.874 219.352 418.068 219.352Z" fill="white"/>
<path d="M0 240.762V180.168L119.977 6.46352H217.736L102.203 180.168L57.7668 166.837H276.715V240.762H0ZM146.639 289.238V240.762L149.467 166.837V123.613H239.146V289.238H146.639Z" fill="white"/>
</svg>
