<svg width="29" height="20" viewBox="0 0 29 20" fill="none" xmlns="http://www.w3.org/2000/svg">
<path fill-rule="evenodd" clip-rule="evenodd" d="M0 1.78571C0 0.7995 0.811493 0 1.8125 0H27.1875C28.1885 0 29 0.7995 29 1.78571C29 2.77193 28.1885 3.57143 27.1875 3.57143H1.8125C0.811493 3.57143 0 2.77193 0 1.78571ZM0 10C0 9.01375 0.811493 8.21429 1.8125 8.21429H27.1875C28.1885 8.21429 29 9.01375 29 10C29 10.9862 28.1885 11.7857 27.1875 11.7857H1.8125C0.811493 11.7857 0 10.9862 0 10ZM0 18.2143C0 17.228 0.811493 16.4286 1.8125 16.4286H16.3125C17.3135 16.4286 18.125 17.228 18.125 18.2143C18.125 19.2005 17.3135 20 16.3125 20H1.8125C0.811493 20 0 19.2005 0 18.2143Z" fill="#030712"/>
</svg>
