<svg width="24" height="24" viewBox="0 0 24 24" fill="none" xmlns="http://www.w3.org/2000/svg">
<path fill-rule="evenodd" clip-rule="evenodd" d="M16 13C15.45 13 15 12.55 15 12C15 11.45 15.45 11 16 11C16.55 11 17 11.45 17 12C17 12.55 16.55 13 16 13ZM16 17C15.45 17 15 16.55 15 16C15 15.45 15.45 15 16 15C16.55 15 17 15.45 17 16C17 16.55 16.55 17 16 17ZM12 13C11.45 13 11 12.55 11 12C11 11.45 11.45 11 12 11C12.55 11 13 11.45 13 12C13 12.55 12.55 13 12 13ZM12 17C11.45 17 11 16.55 11 16C11 15.45 11.45 15 12 15C12.55 15 13 15.45 13 16C13 16.55 12.55 17 12 17ZM8 13C7.45 13 7 12.55 7 12C7 11.45 7.45 11 8 11C8.55 11 9 11.45 9 12C9 12.55 8.55 13 8 13ZM8 17C7.45 17 7 16.55 7 16C7 15.45 7.45 15 8 15C8.55 15 9 15.45 9 16C9 16.55 8.55 17 8 17ZM17 3.17V6C17 6.55 16.55 7 16 7C15.45 7 15 6.55 15 6V3H9V6C9 6.55 8.55 7 8 7C7.45 7 7 6.55 7 6V3.17C3.99 3.82 2 6.29 2 9.62V15.38C2 19.28 4.72 22 8.62 22H15.38C19.28 22 22 19.28 22 15.38V9.62C22 6.29 20.01 3.82 17 3.17Z" fill="#3973E5"/>
<path fill-rule="evenodd" clip-rule="evenodd" d="M17 2V3.17C16.49 3.06 15.95 3 15.38 3H15V2C15 1.45 15.45 1 16 1C16.55 1 17 1.45 17 2Z" fill="#3973E5"/>
<path fill-rule="evenodd" clip-rule="evenodd" d="M9 2V3H8.62C8.05 3 7.51 3.06 7 3.17V2C7 1.45 7.45 1 8 1C8.55 1 9 1.45 9 2Z" fill="#3973E5"/>
</svg>
