<svg width="24" height="24" viewBox="0 0 24 24" fill="none" xmlns="http://www.w3.org/2000/svg">
<path opacity="0.2" fill-rule="evenodd" clip-rule="evenodd" d="M15.375 21H8.625C5.25 21 3 18.75 3 15.375V8.625C3 5.25 5.25 3 8.625 3H15.375C18.75 3 21 5.25 21 8.625V15.375C21 18.75 18.75 21 15.375 21Z" fill="#F24848"/>
<path d="M21 10V15.375C21 18.75 18.75 21 15.375 21H8.625C5.25 21 3 18.75 3 15.375V8.625C3 5.25 5.25 3 8.625 3H15" stroke="#F24848" stroke-width="2" stroke-linecap="round" stroke-linejoin="round"/>
<path d="M20.0002 5C16.1762 6.529 12.0002 13 10.8242 16" stroke="#F24848" stroke-width="2" stroke-linecap="round" stroke-linejoin="round"/>
<path d="M10.823 16C10.058 14.471 8.52902 12.529 6.99902 11" stroke="#F24848" stroke-width="2" stroke-linecap="round" stroke-linejoin="round"/>
</svg>
