<svg width="25" height="24" viewBox="0 0 25 24" fill="none" xmlns="http://www.w3.org/2000/svg">
<path fill-rule="evenodd" clip-rule="evenodd" d="M22.5 8.62V15.38C22.5 19.28 19.78 22 15.88 22H9.12C5.22 22 2.5 19.28 2.5 15.38V8.62C2.5 4.72 5.22 2 9.12 2H15.88C17.82 2 19.47 2.68 20.64 3.84C20.47 3.91 20.3 3.99 20.13 4.07C19.66 4.26 19.18 4.51 18.71 4.83C15.7 6.78 12.78 10.88 11.21 13.88C10.4 12.7 9.34 11.43 8.21 10.29C7.82 9.9 7.18 9.9 6.79 10.29C6.4 10.68 6.4 11.32 6.79 11.71C8.33 13.25 9.76 15.11 10.43 16.45C10.48 16.54 10.54 16.63 10.61 16.7C10.63 16.72 10.65 16.73 10.67 16.74C10.74 16.81 10.82 16.86 10.92 16.9C10.93 16.91 10.94 16.92 10.96 16.93C10.97 16.94 10.98 16.93 11 16.94C11.1 16.97 11.21 17 11.32 17H11.33C11.47 17 11.6 16.96 11.72 16.91C11.74 16.9 11.75 16.9 11.77 16.89C11.79 16.89 11.8 16.87 11.81 16.86C11.9 16.81 11.98 16.75 12.05 16.68C12.06 16.66 12.08 16.65 12.09 16.64C12.16 16.56 12.21 16.47 12.25 16.37C13.26 13.8 16.72 8.38 20.01 6.37C20.33 6.17 20.64 6.01 20.95 5.89C21.23 5.75 21.52 5.63 21.82 5.52C22.26 6.42 22.5 7.47 22.5 8.62Z" fill="#F24848"/>
</svg>
