<svg width="20" height="20" viewBox="0 0 20 20" fill="none" xmlns="http://www.w3.org/2000/svg">
<path d="M12.8889 10L19.4 3.48889C20.2 2.68889 20.2 1.4 19.4 0.6C18.6 -0.2 17.3111 -0.2 16.5111 0.6L10 7.11111L3.48889 0.6C2.68889 -0.2 1.4 -0.2 0.6 0.6C-0.2 1.4 -0.2 2.68889 0.6 3.48889L7.11111 10L0.6 16.5111C-0.2 17.3111 -0.2 18.6 0.6 19.4C1 19.8 1.53333 20 2.04444 20C2.57778 20 3.08889 19.8 3.48889 19.4L10 12.8889L16.5111 19.4C16.9111 19.8 17.4444 20 17.9556 20C18.4667 20 19 19.8 19.4 19.4C20.2 18.6 20.2 17.3111 19.4 16.5111L12.8889 10Z" fill="currentColor"/>
</svg>
