<svg width="48" height="48" viewBox="0 0 48 48" fill="none" xmlns="http://www.w3.org/2000/svg">
<path d="M24.0001 0C27.4674 3.83181e-06 30.6423 0.596707 33.5248 1.79007C36.4491 2.98344 38.9765 4.66299 41.1071 6.82873C43.2794 8.99446 44.9713 11.5359 46.1828 14.453C47.3943 17.3259 48 20.5083 48 23.9999C48 27.4475 47.3943 30.652 46.1828 33.6133C44.9713 36.5304 43.2794 39.0718 41.1071 41.2375C38.9765 43.3591 36.4491 45.0166 33.5248 46.2099C30.6423 47.4033 27.4883 48 24.0627 48C20.5953 48 17.3786 47.4033 14.4125 46.2099C11.4883 45.0166 8.94 43.337 6.76768 41.1713C4.63714 39.0055 2.96604 36.464 1.75455 33.5469C0.584853 30.6298 0 27.4474 0 23.9999C4.99577e-06 20.5524 0.584847 17.3701 1.75455 14.453C2.96604 11.5359 4.658 8.99446 6.83032 6.82873C9.00263 4.663 11.5509 2.98344 14.4752 1.79007C17.3995 0.596703 20.5745 0 24.0001 0Z" fill="#CAD5E2"/>
<path d="M40.3279 19.6781C39.1037 24.038 40.5844 23.5069 41.3059 23.3706C41.5246 23.3291 41.7526 23.2259 41.9315 23.0877C42.7577 22.4519 43.6511 22.1939 44.6543 22.5008C46.1677 22.964 46.8186 24.6187 46.0565 26.0666C45.5907 26.9511 44.887 27.5649 43.9468 27.7774C43.3459 27.9133 42.8577 28.2275 42.3516 28.5398C40.2368 29.846 38.1205 31.1488 36.0062 32.455C35.7188 32.6324 35.4072 32.7858 35.1628 33.0155C34.5665 33.575 34.4885 34.3242 34.5778 35.1031C34.767 36.7558 35.2809 39.0856 35.4674 40.7393C35.5235 41.2367 37.7033 40.7002 37.2183 40.7393C35.7539 40.8566 32.8681 42.1902 31.4032 42.2943C30.6981 42.3446 29.9916 42.3715 29.2851 42.3876C26.9759 42.4419 24.6672 42.5 22.3575 42.5288C21.1833 42.5435 20.0081 42.5068 18.8339 42.4805C17.6447 42.4541 14.1682 39.6008 12.9805 39.5436C11.3035 39.463 11.9146 37.4027 10.2386 37.2986C9.73439 37.2673 9.23209 37.2092 8.72931 37.1608C8.44428 37.1334 8.2513 36.8959 8.26999 36.5646C8.31158 35.8345 8.35597 35.104 8.41858 34.3759C8.5125 33.2832 8.59801 32.1891 8.73118 31.1018C8.94005 29.3939 9.14985 27.685 9.426 25.9883C9.64468 24.6454 9.95868 23.3197 10.24 21.988C10.3031 21.6895 10.5203 21.5316 10.7932 21.4544C11.7824 21.1739 12.7725 20.8949 13.7617 20.6139C14.0463 20.5333 14.3299 20.4477 14.6149 20.3671C14.8719 20.2943 14.9892 20.3622 15.0593 20.632C15.4836 22.2651 16.4027 23.4975 17.79 24.3649C19.9656 25.7249 22.9733 25.3496 24.7859 23.4946C25.754 22.5041 26.3549 21.3288 26.5306 19.9205C26.5582 19.6996 26.6521 19.5276 26.8909 19.5139C27.3334 19.4885 27.7759 19.4582 28.2188 19.4552C28.5529 19.4533 28.6296 19.5373 28.7193 19.8745C29.3043 22.0682 30.6509 23.4736 32.7559 24.038C34.8339 24.5956 37.0716 23.7155 38.3327 21.903C40.6312 18.5991 38.8691 13.8751 35.0409 13.0781C32.1476 12.4756 29.3963 14.3281 28.6828 17.3588C28.6048 17.6897 28.5249 17.739 28.1973 17.7434C27.7548 17.7498 27.3119 17.7664 26.8703 17.8021C26.5586 17.8275 26.4484 17.7684 26.3549 17.462C25.6947 15.2874 24.3162 13.8658 22.2178 13.2535C19.4787 12.454 16.5438 13.9074 15.3822 16.6332C15.1574 17.1604 15.0677 17.7493 14.8962 18.303C14.8593 18.4212 14.7533 18.5732 14.6509 18.6025C14.0982 18.7608 13.5267 18.8517 12.9805 19.0286C11.7572 19.424 10.539 19.8389 9.33348 20.2889C9.10406 20.3744 8.88304 20.6256 8.76295 20.8592C8.49942 21.3723 8.82931 21.9563 9.39329 22.0237C9.60403 22.0491 9.61571 22.14 9.56618 22.312C9.5059 22.5217 9.4489 22.7328 9.40451 22.9468C9.37694 23.0783 9.31479 23.1247 9.1933 23.0983C8.47419 22.9419 7.91721 22.5573 7.68872 21.8019C7.46396 21.0586 7.61956 20.3676 8.17467 19.8418C8.4611 19.5711 8.81809 19.357 9.17648 19.1997C9.76243 18.9426 10.3741 18.7491 10.9782 18.538C11.1142 18.4906 11.196 18.4183 11.2521 18.2771C11.8875 16.6771 12.8151 15.2815 14.0183 14.097C15.0612 13.0703 16.2476 12.2532 17.5559 11.6355C19.9231 10.5184 22.4182 10.1426 24.9928 10.2756C27.2698 10.3933 29.4403 10.969 31.4934 12.0152C31.564 12.0514 31.6756 12.0538 31.7485 12.0226C35.1946 10.5267 39.3434 12.6705 40.2906 16.7749C40.5106 17.7283 40.5391 18.6871 40.3279 19.6781ZM43.5142 26.4517C44.0132 26.4507 44.466 26.2845 44.8557 25.9718C45.3047 25.6112 45.5346 25.1283 45.4281 24.5224C45.3257 23.9409 44.9566 23.6008 44.4356 23.4449C43.6684 23.2157 42.9679 23.3853 42.3773 23.9399C41.6862 24.5889 41.7325 25.5936 42.4619 26.1155C42.7759 26.3402 43.1287 26.4566 43.5142 26.4517ZM28.1427 30.078C28.2782 30.0643 28.4179 30.056 28.5562 30.0355C29.2776 29.928 29.9117 29.6265 30.4252 29.0791C30.6458 28.8446 30.6369 28.5035 30.4285 28.2914C30.236 28.0955 29.9075 28.1086 29.6935 28.3295C29.1744 28.8651 28.5412 29.0625 27.8361 28.9555C27.2282 28.8632 26.7021 28.6012 26.4703 27.9376C26.3568 27.6117 26.0984 27.4587 25.7942 27.5525C25.5363 27.6317 25.3774 27.9366 25.4662 28.2416C25.5265 28.4483 25.6054 28.6608 25.7236 28.8358C26.3105 29.7027 27.1609 30.0277 28.1427 30.078Z" fill="#F9FAFB"/>
<path d="M20.7361 14.8315C22.9822 14.834 24.8494 16.7774 24.8471 19.1108C24.8447 21.4853 22.9934 23.3911 20.695 23.3862C18.4479 23.3813 16.6041 21.4174 16.606 19.0297C16.6078 16.7383 18.4858 14.8291 20.7361 14.8315ZM21.8047 18.1066C21.0585 18.0797 20.4268 18.6833 20.4118 19.4378C20.3969 20.1659 21.0164 20.8158 21.7524 20.8447C22.4612 20.8725 23.0803 20.2514 23.1032 19.4901C23.1247 18.7634 22.5332 18.133 21.8052 18.1066H21.8047Z" fill="#F9FAFB"/>
<path d="M34.0077 14.7554C36.0473 14.7422 37.6747 16.5503 37.6584 18.6848C37.643 20.7421 35.9216 22.4725 33.9138 22.4095C31.7475 22.3416 30.271 20.4949 30.2995 18.4586C30.3284 16.413 32.0055 14.73 34.0072 14.7554H34.0077ZM34.132 17.5213C33.931 17.5838 33.5502 17.6527 33.2133 17.8189C32.6993 18.0715 32.3307 18.5055 32.1106 19.0587C32.0816 19.1315 32.097 19.2688 32.1461 19.3176C32.1942 19.366 32.3181 19.3651 32.3956 19.3406C32.497 19.3089 32.5872 19.236 32.6792 19.1754C33.511 18.6296 34.3698 18.5221 35.2721 18.981C35.3641 19.0279 35.4842 19.0499 35.5856 19.0362C35.7926 19.0083 35.9431 18.8842 36.0015 18.6638C36.0566 18.4561 36.0052 18.2724 35.8534 18.1331C35.4132 17.7309 34.8871 17.5619 34.1324 17.5203L34.132 17.5213Z" fill="#F9FAFB"/>
<path d="M24.5117 4C12.4039 4 2.58862 12.9543 2.58862 24C2.58862 35.0457 12.4039 44 24.5117 44C30.6038 44 36.1155 41.7331 40.0886 38.0734" stroke="#CAD5E2" stroke-width="3.75"/>
</svg>
