<svg width="25" height="24" viewBox="0 0 25 24" fill="none" xmlns="http://www.w3.org/2000/svg">
<path fill-rule="evenodd" clip-rule="evenodd" d="M18.5 18C17.95 18 17.5 17.55 17.5 17C17.5 16.45 17.95 16 18.5 16C19.05 16 19.5 16.45 19.5 17C19.5 17.55 19.05 18 18.5 18ZM6.5 18C5.95 18 5.5 17.55 5.5 17C5.5 16.45 5.95 16 6.5 16C7.05 16 7.5 16.45 7.5 17C7.5 17.55 7.05 18 6.5 18ZM23.21 10.29L20.21 7.29C20.02 7.11 19.77 7 19.5 7H17.5C16.95 7 16.5 7.45 16.5 8V12C16.5 12.55 16.05 13 15.5 13C14.95 13 14.5 12.55 14.5 12V4C14.5 3.45 14.05 3 13.5 3H5.5C3.85 3 2.5 4.35 2.5 6V6.49H5.5C6.88 6.49 8 7.61 8 8.99C8 9.31 7.94 9.61 7.83 9.88C8.53 10.33 9 11.1 9 11.99C9 13.37 7.88 14.49 6.5 14.49H2.56C2.72 15.1 3.17 15.61 3.74 15.85C3.58 16.2 3.5 16.59 3.5 17C3.5 18.65 4.85 20 6.5 20C8.15 20 9.5 18.65 9.5 17C9.5 16.65 9.44 16.31 9.32 16H15.68C15.56 16.31 15.5 16.65 15.5 17C15.5 18.65 16.85 20 18.5 20C20.15 20 21.5 18.65 21.5 17C21.5 16.65 21.44 16.31 21.32 16H22.5C23.05 16 23.5 15.55 23.5 15V11C23.5 10.73 23.39 10.48 23.21 10.29Z" fill="#F24848"/>
<path fill-rule="evenodd" clip-rule="evenodd" d="M5.5 9.99316H2.5C1.947 9.99316 1.5 9.54616 1.5 8.99316C1.5 8.44016 1.947 7.99316 2.5 7.99316H5.5C6.053 7.99316 6.5 8.44016 6.5 8.99316C6.5 9.54616 6.053 9.99316 5.5 9.99316Z" fill="#F24848"/>
<path fill-rule="evenodd" clip-rule="evenodd" d="M6.5 12.9932H1.5C0.947 12.9932 0.5 12.5462 0.5 11.9932C0.5 11.4402 0.947 10.9932 1.5 10.9932H6.5C7.053 10.9932 7.5 11.4402 7.5 11.9932C7.5 12.5462 7.053 12.9932 6.5 12.9932Z" fill="#F24848"/>
</svg>
