<svg width="24" height="24" viewBox="0 0 24 24" fill="none" xmlns="http://www.w3.org/2000/svg">
<path fill-rule="evenodd" clip-rule="evenodd" d="M4.70704 5.293L9.74004 10.827C11.313 12.4 12.686 12.399 14.293 10.793L19.26 5.327L20.189 4.398C18.883 3.232 17.063 3 15.375 3H8.62504C6.93704 3 5.11704 3.232 3.81104 4.397L4.70704 5.293Z" fill="#F24848"/>
<path fill-rule="evenodd" clip-rule="evenodd" d="M20.707 6.70688L15.74 12.1729C14.524 13.3899 13.255 13.9959 11.99 13.9959C10.735 13.9959 9.484 13.3979 8.293 12.2069L3.26 6.67287L2.634 6.04688C2.236 6.95388 2 8.11888 2 9.62488V14.3749C2 20.2469 5.54 20.9999 8.625 20.9999H15.375C18.46 20.9999 22 20.2469 22 14.3749V9.62488C22 8.11888 21.764 6.95388 21.366 6.04788L20.707 6.70688Z" fill="#F24848"/>
</svg>
