<svg width="24" height="24" viewBox="0 0 24 24" fill="none" xmlns="http://www.w3.org/2000/svg">
<path fill-rule="evenodd" clip-rule="evenodd" d="M4.70704 5.293L9.74004 10.827C11.313 12.4 12.686 12.399 14.293 10.793L19.26 5.327L20.189 4.398C18.883 3.232 17.063 3 15.375 3H8.62504C6.93704 3 5.11704 3.232 3.81104 4.397L4.70704 5.293Z" fill="#3973E5"/>
<path fill-rule="evenodd" clip-rule="evenodd" d="M20.707 6.707L15.74 12.173C14.524 13.39 13.255 13.996 11.99 13.996C10.735 13.996 9.484 13.398 8.293 12.207L3.26 6.673L2.634 6.047C2.236 6.954 2 8.119 2 9.625V14.375C2 20.247 5.54 21 8.625 21H15.375C18.46 21 22 20.247 22 14.375V9.625C22 8.119 21.764 6.954 21.366 6.048L20.707 6.707Z" fill="#3973E5"/>
</svg>
