<svg width="24" height="24" viewBox="0 0 24 24" fill="none" xmlns="http://www.w3.org/2000/svg">
<path fill-rule="evenodd" clip-rule="evenodd" d="M12.2195 2H11.7795C11.2491 2 10.7404 2.21071 10.3653 2.58579C9.99025 2.96086 9.77953 3.46957 9.77953 4V4.18C9.77917 4.53073 9.68659 4.87519 9.51107 5.17884C9.33555 5.48248 9.08327 5.73464 8.77953 5.91L8.62953 5.99C8.32549 6.16554 7.98061 6.25795 7.62953 6.25795C7.27846 6.25795 6.93357 6.16554 6.62953 5.99L6.46953 5.9C6.0106 5.63526 5.46537 5.56344 4.95354 5.70031C4.4417 5.83717 4.00508 6.17154 3.73953 6.63L3.51953 7.01C3.2548 7.46894 3.18298 8.01416 3.31984 8.526C3.45671 9.03783 3.79107 9.47445 4.24953 9.74L4.39953 9.84C4.70181 10.0145 4.95315 10.2651 5.12858 10.5668C5.30402 10.8686 5.39743 11.211 5.39953 11.56V11.74C5.39917 12.0907 5.30659 12.4352 5.13107 12.7388C4.95555 13.0425 4.70327 13.2946 4.39953 13.47L4.24953 13.55C3.79107 13.8156 3.45671 14.2522 3.31984 14.764C3.18298 15.2758 3.2548 15.8211 3.51953 16.28L3.73953 16.66C4.00508 17.1185 4.4417 17.4528 4.95354 17.5897C5.46537 17.7266 6.0106 17.6547 6.46953 17.39L6.62953 17.3C6.93357 17.1245 7.27846 17.0321 7.62953 17.0321C7.98061 17.0321 8.32549 17.1245 8.62953 17.3L8.77953 17.38C9.08327 17.5554 9.33555 17.8075 9.51107 18.1112C9.68659 18.4148 9.77917 18.7593 9.77953 19.11V20C9.77953 20.5304 9.99025 21.0391 10.3653 21.4142C10.7404 21.7893 11.2491 22 11.7795 22H12.2195C12.75 22 13.2587 21.7893 13.6337 21.4142C14.0088 21.0391 14.2195 20.5304 14.2195 20V19.82C14.2199 19.4693 14.3125 19.1248 14.488 18.8212C14.6635 18.5175 14.9158 18.2654 15.2195 18.09L15.3695 18.01C15.6736 17.8345 16.0185 17.7421 16.3695 17.7421C16.7206 17.7421 17.0655 17.8345 17.3695 18.01L17.5295 18.1C17.9885 18.3647 18.5337 18.4366 19.0455 18.2997C19.5574 18.1628 19.994 17.8285 20.2595 17.37L20.4795 16.99C20.7443 16.5311 20.8161 15.9858 20.6792 15.474C20.5424 14.9622 20.208 14.5256 19.7495 14.26L19.5995 14.18C19.2958 14.0046 19.0435 13.7525 18.868 13.4488C18.6925 13.1452 18.5999 12.8007 18.5995 12.45V12.27C18.5999 11.9193 18.6925 11.5748 18.868 11.2712C19.0435 10.9675 19.2958 10.7154 19.5995 10.54L19.7495 10.44C20.208 10.1744 20.5424 9.73783 20.6792 9.226C20.8161 8.71416 20.7443 8.16893 20.4795 7.71L20.2595 7.33C19.994 6.87154 19.5574 6.53717 19.0455 6.40031C18.5337 6.26344 17.9885 6.33526 17.5295 6.6L17.3695 6.69C17.0655 6.86554 16.7206 6.95795 16.3695 6.95795C16.0185 6.95795 15.6736 6.86554 15.3695 6.69L15.2195 6.61C14.9158 6.43464 14.6635 6.18248 14.488 5.87884C14.3125 5.57519 14.2199 5.23073 14.2195 4.88V4C14.2195 3.46957 14.0088 2.96086 13.6337 2.58579C13.2587 2.21071 12.75 2 12.2195 2ZM11.9995 9C12.7952 9 13.5582 9.31607 14.1209 9.87868C14.6835 10.4413 14.9995 11.2044 14.9995 12C14.9995 12.7956 14.6835 13.5587 14.1209 14.1213C13.5582 14.6839 12.7952 15 11.9995 15C11.2039 15 10.4408 14.6839 9.87821 14.1213C9.3156 13.5587 8.99953 12.7956 8.99953 12C8.99953 11.2044 9.3156 10.4413 9.87821 9.87868C10.4408 9.31607 11.2039 9 11.9995 9Z" fill="#F24848"/>
</svg>
