<svg width="24" height="21" viewBox="0 0 24 21" fill="none" xmlns="http://www.w3.org/2000/svg">
<path d="M5.90918 0.592773C8.08389 0.195096 10.2809 1.09748 11.6016 2.86328L12.0039 3.40039L12.4033 2.86133C12.573 2.63229 12.7551 2.42069 12.9492 2.22363C14.0208 1.13545 15.536 0.50598 17.1035 0.505859C18.4592 0.505859 19.7645 0.97283 20.7783 1.81543C22.5304 3.27122 23.4435 5.17463 23.499 7.50684C23.5234 8.52253 23.1235 9.4333 22.7373 10.165C21.8488 11.8476 20.6287 13.2079 19.5244 14.3389H19.5234C17.5823 16.3287 15.2605 18.287 12.4189 20.3262L12.4102 20.333C12.3014 20.4148 12.1773 20.5 12.001 20.5C11.8872 20.5 11.7681 20.4652 11.6406 20.375H11.6416C8.44159 18.0728 5.99894 15.9777 3.94238 13.7783L3.53613 13.334C2.61599 12.3013 1.88502 11.2936 1.30762 10.2676L1.10254 9.875C0.151012 7.90522 0.316122 5.80973 1.66602 3.58008L1.66699 3.58105C2.67523 1.91905 4.09575 0.923672 5.9082 0.592773H5.90918Z" stroke="#6A7282"/>
</svg>
