<svg width="24" height="24" viewBox="0 0 24 24" fill="none" xmlns="http://www.w3.org/2000/svg">
<path fill-rule="evenodd" clip-rule="evenodd" d="M12 12.9902C10.35 12.9902 9 11.6502 9 9.99023C9 8.34023 10.35 6.99023 12 6.99023C13.65 6.99023 15 8.34023 15 9.99023C15 11.6502 13.65 12.9902 12 12.9902ZM12 1.99023C7.59 1.99023 4 5.58023 4 9.99023C4 16.4302 11.12 21.5902 11.42 21.8102C11.59 21.9302 11.8 21.9902 12 21.9902C12.2 21.9902 12.41 21.9302 12.58 21.8102C12.88 21.5902 20 16.4302 20 9.99023C20 5.58023 16.41 1.99023 12 1.99023Z" fill="#F24848"/>
</svg>
