<svg width="116" height="28" viewBox="0 0 116 28" fill="none" xmlns="http://www.w3.org/2000/svg">
<g clip-path="url(#clip0_503_467)">
<path d="M15.9999 0C23.4999 0 29.9999 5.9 29.9999 14C29.9999 22 23.5999 28.1 15.5999 28C8.29994 27.9 1.89994 21.8 1.99994 13.9C2.09994 6.2 8.29994 0 15.9999 0ZM11.3999 2.3V2.4C11.4999 2.5 11.5999 2.6 11.7999 2.6C13.0999 3.3 13.2999 3.9 12.6999 5.2C12.4999 5.6 12.5999 6 12.8999 6.3C13.0999 6.5 13.3999 6.7 13.5999 6.9C13.6999 7.1 13.7999 7.4 13.6999 7.6C13.5999 7.8 13.2999 7.9 13.0999 7.9C12.5999 7.9 12.0999 8 11.7999 8.4C11.0999 9.2 10.3999 10 9.79994 10.8C9.29994 11.4 8.79994 11.7 8.09994 11.7C7.69994 11.7 7.29994 11.8 6.89994 12C6.39994 12.2 6.29994 12.9 6.59994 13.3C6.79994 13.6 7.19994 13.6 7.69994 13.2C8.39994 12.7 8.99994 12.7 9.59994 13.3C9.69994 13.4 9.79994 13.7 9.79994 13.9C9.79994 14 9.39994 14.2 9.29994 14.2C8.59994 14 7.89994 14.2 7.29994 14.4C6.09994 14.6 5.39994 14.3 4.79994 13.2C4.59994 12.8 4.49994 12.5 4.29994 12.1C3.99994 12 3.89994 11.9 3.79994 11.7C3.79994 11.7 3.69994 11.7 3.69994 11.8C3.19994 14.7 3.59994 17.4 4.99994 20C6.29994 22.4 8.19994 24.2 10.6999 25.4C10.6999 25.3 10.7999 25.3 10.7999 25.2C10.5999 23.9 10.4999 22.6 10.1999 21.3C10.1999 21.1 9.99994 20.8 9.79994 20.7C9.09994 20.3 8.69994 19.7 8.19994 19.1C7.79994 18.6 7.79994 18 7.89994 17.3C7.99994 16.9 8.19994 16.5 8.39994 16.1C8.89994 14.7 10.7999 14.5 11.8999 15.2C12.1999 15.4 12.5999 15.6 12.9999 15.7C13.4999 15.9 13.8999 16.2 13.9999 16.7C14.0999 17 14.2999 17.2 14.5999 17.3C15.1999 17.4 15.8999 17.6 16.3999 17.8C16.9999 18 17.1999 18.5 16.9999 19.1C16.7999 19.6 16.5999 20.2 16.4999 20.8C16.3999 21.3 16.0999 21.6 15.6999 21.7C15.2999 21.8 15.0999 22.1 14.8999 22.4C14.5999 23.1 14.1999 23.8 13.4999 24.3C12.6999 24.8 12.5999 24.9 12.6999 25.9C12.6999 26 12.8999 26.2 12.9999 26.3C13.5999 26.4 14.2999 26.6 14.8999 26.6C17.5999 26.8 20.1999 26.3 22.5999 24.9C23.1999 24.5 23.7999 24.1 24.3999 23.6C23.8999 23.2 23.5999 22.7 23.4999 22.1C23.3999 21.8 23.2999 21.6 23.2999 21.3C23.2999 20.8 23.0999 20.3 23.2999 19.8C23.5999 18.8 23.2999 17.9 22.9999 17.1C22.7999 16.6 22.4999 16.3 21.8999 16.3C21.4999 16.3 21.0999 16.3 20.6999 16.4C19.8999 16.5 19.1999 16.2 18.6999 15.6C17.9999 14.8 18.0999 13.9 18.1999 13C18.2999 12.2 18.5999 11.6 19.2999 11.2C19.3999 11.1 19.4999 11 19.5999 10.9C19.8999 10.6 20.1999 10.3 20.4999 10.2C21.2999 9.8 22.0999 9.7 22.9999 9.7C23.2999 9.7 23.4999 9.8 23.5999 10.1C23.6999 10.3 23.8999 10.4 23.9999 10.5C24.2999 10.6 24.6999 10.6 24.8999 10.2C25.0999 9.8 24.9999 9.5 24.6999 9.2C23.9999 8.5 23.2999 8.2 22.2999 8.6C22.1999 8.6 22.0999 8.7 21.9999 8.7C21.2999 8.9 20.7999 8.4 20.9999 7.7C21.0999 7.5 20.9999 7.3 20.7999 7.2C20.2999 7 19.9999 6.4 20.0999 5.9C20.1999 5.7 20.3999 5.4 20.5999 5.4C20.7999 5.4 21.0999 5.5 21.1999 5.7C21.3999 5.9 21.3999 6.1 21.4999 6.4C21.5999 6.8 21.7999 6.8 22.0999 6.7C22.5999 6.6 23.0999 6.5 23.5999 6.3C23.8999 6.2 24.2999 6 24.5999 5.7C24.8999 5.5 24.8999 5.2 24.5999 4.9C24.4999 4.8 24.3999 4.6 24.1999 4.6C24.0999 4.5 23.7999 4.5 23.6999 4.6C23.3999 4.8 23.0999 4.8 22.7999 4.6C22.2999 4.3 22.2999 4 22.5999 3.4C21.2999 2.5 19.9999 2 18.4999 1.7C18.5999 2.7 18.1999 3.4 17.4999 3.9C16.8999 4.3 16.2999 4.8 15.8999 5.4C15.4999 5.9 14.7999 5.9 14.5999 5.3C14.3999 4.9 14.3999 4.4 14.2999 3.9C14.2999 3.6 14.2999 3.2 14.2999 2.9C14.1999 2.3 13.6999 1.7 13.2999 1.7C12.5999 1.9 11.9999 2.1 11.3999 2.3Z" fill="#102540"/>
<path d="M102.6 24.4999V6.2999H95.5V3.8999H112.8V6.2999H105.7V24.4999H102.6Z" fill="#102540"/>
<path d="M51.7999 24.4999L41.8999 14.5999H41.7999V24.4999H38.5757V3.8999H41.7999V13.3999L51.1999 3.8999H54.7999L44.8999 13.7999L55.5 24.4999H51.7999Z" fill="#102540"/>
<path d="M84.8 25.8C78.7 25.8 73.8 20.9 73.8 14.8C73.8 8.70005 78.7 3.80005 84.8 3.80005C90.9 3.80005 95.8 8.70005 95.8 14.8C95.8 20.9 90.8 25.8 84.8 25.8ZM84.8 6.40005C80.1 6.40005 76.3 10.2 76.3 14.9C76.3 19.6 80.1 23.4 84.8 23.4C89.5 23.4 93.3 19.6 93.3 14.9C93.3 10.2 89.4 6.40005 84.8 6.40005Z" fill="#102540"/>
<path d="M58.2 24.4999V14.4999H65.0999C66.4999 14.4999 67.6 14.1999 68.3 13.5999C69.1 12.8999 69.4 11.3999 69.4 10.3999C69.4 9.3999 69.1 7.9999 68.3 7.1999C67.6 6.5999 66.4999 6.1999 65.0999 6.1999H58.2V3.8999H65.5C67.7 3.8999 69.3999 4.3999 70.5999 5.4999C71.6999 6.4999 72.3 8.2999 72.3 10.2999C72.3 12.2999 71.6999 14.0999 70.5999 15.0999C69.3999 16.1999 67.7 16.6999 65.5 16.6999H61.2999V24.3999H58.2V24.4999Z" fill="#102540"/>
</g>
<defs>
<clipPath id="clip0_503_467">
<rect width="116" height="28" fill="white"/>
</clipPath>
</defs>
</svg>
