<svg width="70" height="64" viewBox="0 0 70 64" fill="none" xmlns="http://www.w3.org/2000/svg">
<path d="M5.49151 47.5922L3.86142 47.6015C3.77078 47.602 3.72545 47.6023 3.68722 47.6179C3.65347 47.6318 3.62379 47.654 3.60101 47.6827C3.5752 47.7151 3.56209 47.7587 3.53585 47.846L0.134023 59.1577C0.0885971 59.3088 0.065884 59.3843 0.0821574 59.444C0.0964083 59.4963 0.129797 59.5414 0.175631 59.57C0.227971 59.6026 0.306448 59.6022 0.463401 59.6013L2.74069 59.5889C2.83744 59.5883 2.88582 59.5881 2.92581 59.5707C2.96109 59.5554 2.99161 59.5308 3.01418 59.4996C3.03975 59.4642 3.0506 59.4167 3.07228 59.3219L3.46341 57.6117C3.48509 57.5169 3.49593 57.4695 3.5215 57.4341C3.54406 57.4028 3.57458 57.3783 3.60985 57.3629C3.64983 57.3456 3.6982 57.3453 3.79493 57.3448L6.15723 57.3313C6.254 57.3308 6.30239 57.3305 6.34257 57.3474C6.37802 57.3623 6.40881 57.3866 6.43172 57.4176C6.45769 57.4527 6.46905 57.5 6.49176 57.5946L6.90136 59.3004C6.92407 59.3949 6.93543 59.4422 6.96139 59.4774C6.98429 59.5084 7.01508 59.5326 7.05052 59.5476C7.09069 59.5644 7.13908 59.5642 7.23581 59.5636L9.51274 59.5512C9.66977 59.5503 9.74833 59.5499 9.80036 59.5166C9.84584 59.4875 9.87878 59.4422 9.89246 59.3897C9.908 59.3297 9.88441 59.2544 9.83722 59.1038L6.30374 47.83C6.27651 47.7431 6.26288 47.6996 6.23672 47.6675C6.21361 47.6391 6.18368 47.6172 6.14977 47.6038C6.11137 47.5885 6.06605 47.5888 5.97542 47.5894L5.49151 47.5922ZM4.46657 55.1107C4.31905 55.1116 4.24529 55.112 4.19432 55.0816C4.14964 55.0549 4.11613 55.0128 4.10005 54.9632C4.08171 54.9065 4.09823 54.8342 4.13127 54.6897L4.61667 52.5662C4.71155 52.1512 4.759 51.9436 4.83688 51.8965C4.90395 51.856 4.98769 51.8555 5.05521 51.8953C5.1336 51.9415 5.18331 52.1485 5.28274 52.5626L5.7914 54.6806C5.82603 54.8248 5.84335 54.8969 5.82562 54.9539C5.81008 55.0037 5.77702 55.0462 5.73262 55.0732C5.68198 55.1042 5.60819 55.1046 5.46063 55.1054L4.46657 55.1107Z" fill="#2E4166"/>
<path d="M17.2901 57.7405C17.2895 57.6201 17.2891 57.5599 17.2656 57.514C17.2449 57.4736 17.2119 57.4409 17.1716 57.4205C17.1257 57.3973 17.0659 57.3977 16.9461 57.3983L13.6036 57.4168C13.4838 57.4175 13.4239 57.4177 13.3781 57.3946C13.3378 57.3742 13.3048 57.3415 13.2841 57.3011C13.2606 57.2553 13.2602 57.1951 13.2596 57.0747L13.2099 48.0036C13.2092 47.8832 13.2089 47.823 13.1854 47.7771C13.1646 47.7368 13.1317 47.7041 13.0913 47.6836C13.0455 47.6605 12.9856 47.6608 12.8658 47.6615L10.7508 47.6734C10.6311 47.674 10.5712 47.6744 10.5256 47.6981C10.4854 47.719 10.4529 47.752 10.4327 47.7926C10.4096 47.8387 10.41 47.8989 10.4106 48.0193L10.4731 59.3122C10.4737 59.4326 10.4741 59.4928 10.4976 59.5386C10.5184 59.579 10.5513 59.6117 10.5917 59.6321C10.6375 59.6552 10.6974 59.6549 10.8171 59.6543L12.2913 59.6461L12.5857 59.644L13.2736 59.6404L16.9582 59.62C17.078 59.6194 17.1379 59.619 17.1835 59.5954C17.2236 59.5745 17.2561 59.5415 17.2764 59.5009C17.2995 59.4548 17.2991 59.3946 17.2985 59.2742L17.2901 57.7405Z" fill="#2E4166"/>
<path d="M24.3287 48.1742C24.3284 48.1742 24.3282 48.1742 24.328 48.1741C23.7285 47.8266 23.0173 47.6546 22.1934 47.6597L18.3776 47.6807C18.2579 47.6814 18.1979 47.6817 18.1524 47.7054C18.1122 47.7262 18.0796 47.7593 18.0594 47.7999C18.0363 47.846 18.0367 47.9062 18.0373 48.0267L18.0991 59.3194C18.0998 59.4398 18.1001 59.5001 18.1237 59.5459C18.1444 59.5862 18.1773 59.619 18.2176 59.6393C18.2636 59.6626 18.3234 59.6622 18.4432 59.6616L20.5582 59.6496C20.6779 59.6489 20.7378 59.6486 20.7834 59.6249C20.8235 59.6041 20.856 59.571 20.8764 59.5305C20.8994 59.4843 20.8991 59.4241 20.8985 59.3037L20.8801 55.9265C20.8794 55.8061 20.8791 55.7459 20.9022 55.6999C20.9224 55.6593 20.9549 55.6263 20.9951 55.6054C21.0407 55.5817 21.1006 55.5813 21.2202 55.5807L22.2369 55.5747C23.0609 55.5704 23.7709 55.4056 24.3661 55.0816C24.962 54.7577 25.4204 54.3062 25.7419 53.7285C26.0634 53.1509 26.2223 52.4751 26.218 51.7018C26.2138 50.9178 26.0477 50.2204 25.7198 49.6105C25.3919 49.0007 24.928 48.522 24.3293 48.1745C24.3291 48.1743 24.3289 48.1742 24.3287 48.1742ZM23.2715 52.5621C23.2718 52.5624 23.2718 52.5627 23.2718 52.563C23.194 52.8072 23.0693 52.9984 22.8984 53.1366C22.7273 53.2749 22.5028 53.3445 22.224 53.3459L21.2075 53.3518C21.0878 53.3524 21.0279 53.3528 20.982 53.3296C20.9417 53.3093 20.9087 53.2765 20.8881 53.2362C20.8645 53.1903 20.8641 53.1301 20.8635 53.0097L20.8481 50.2419C20.8474 50.1215 20.847 50.0613 20.8701 50.0151C20.8903 49.9745 20.9228 49.9415 20.963 49.9207C21.0086 49.8969 21.0685 49.8966 21.1882 49.8959L22.2048 49.89C22.4828 49.8885 22.7088 49.9738 22.8813 50.1451C23.0538 50.3171 23.1807 50.5429 23.2612 50.8217C23.3418 51.1012 23.3831 51.4051 23.3852 51.734C23.3867 52.0413 23.3489 52.317 23.2713 52.5614C23.2713 52.5616 23.2713 52.5619 23.2715 52.5621Z" fill="#2E4166"/>
<path d="M33.7289 49.8194C33.8487 49.8187 33.9086 49.8184 33.9542 49.7947C33.9943 49.7739 34.0268 49.7408 34.0471 49.7003C34.0702 49.6541 34.0699 49.5939 34.0692 49.4735L34.0608 47.9319C34.0602 47.8115 34.0598 47.7513 34.0363 47.7054C34.0156 47.6651 33.9827 47.6324 33.9423 47.612C33.8964 47.5888 33.8366 47.5891 33.7168 47.5898L30.065 47.6101L27.6085 47.6239C27.4887 47.6246 27.4289 47.625 27.3832 47.6487C27.3432 47.6695 27.3106 47.7026 27.2904 47.7431C27.2673 47.7892 27.2676 47.8494 27.2683 47.9698L27.3301 59.2627C27.3308 59.3831 27.3311 59.4433 27.3547 59.4892C27.3754 59.5295 27.4083 59.5622 27.4486 59.5826C27.4945 59.6058 27.5544 59.6055 27.6741 59.6048L29.7891 59.5929C29.9089 59.5922 29.9687 59.5919 30.0144 59.5682C30.0545 59.5473 30.087 59.5143 30.1073 59.4737C30.1303 59.4275 30.13 59.3673 30.1293 59.2469L30.1068 55.1625C30.1061 55.0421 30.1058 54.9819 30.1288 54.9358C30.1491 54.8952 30.1817 54.8621 30.2217 54.8413C30.2674 54.8176 30.3272 54.8172 30.447 54.8166L33.4211 54.7997C33.5408 54.799 33.6006 54.7987 33.6462 54.775C33.6864 54.7542 33.7189 54.7211 33.7392 54.6805C33.7622 54.6344 33.7619 54.5742 33.7612 54.4538L33.7529 52.9201C33.7522 52.7996 33.7519 52.7394 33.7284 52.6936C33.7076 52.6532 33.6747 52.6205 33.6343 52.6001C33.5885 52.577 33.5286 52.5773 33.4088 52.578L30.4349 52.5949C30.3151 52.5955 30.2552 52.5959 30.2094 52.5727C30.1691 52.5523 30.1361 52.5196 30.1154 52.4793C30.0919 52.4334 30.0915 52.3732 30.0908 52.2528L30.079 50.1838C30.0784 50.0633 30.078 50.0031 30.101 49.957C30.1214 49.9164 30.1539 49.8834 30.194 49.8625C30.2396 49.8388 30.2995 49.8385 30.4193 49.8378L33.7289 49.8194Z" fill="#FF0002"/>
<path d="M43.1781 50.2569C42.9586 49.5997 42.6542 49.0529 42.265 48.6164C41.8751 48.18 41.4082 47.8503 40.8643 47.6288C40.3204 47.4067 39.7209 47.2977 39.0658 47.3013C38.4057 47.3049 37.8062 47.421 37.2673 47.6489C36.7284 47.8768 36.2651 48.2115 35.8773 48.6523C35.4895 49.0937 35.1908 49.6434 34.982 50.3028C34.7731 50.9621 34.6705 51.7225 34.6755 52.584L34.6854 54.3943C34.6904 55.2558 34.8009 56.0119 35.0169 56.6634C35.2336 57.3148 35.5394 57.861 35.9343 58.2996C36.3292 58.7389 36.7983 59.0686 37.3393 59.2879C37.8804 59.5072 38.4813 59.6147 39.1414 59.6111C39.7964 59.6075 40.3917 59.4928 40.9277 59.2678C41.4638 59.0428 41.9271 58.7081 42.3177 58.2644C42.7084 57.8208 43.0077 57.2718 43.2173 56.6175C43.4269 55.9639 43.5288 55.2056 43.5238 54.3449L43.5139 52.5345C43.5089 51.6731 43.397 50.9141 43.1781 50.2569ZM40.593 55.7234C40.593 55.7234 40.5933 55.7234 40.5933 55.7236C40.5299 56.0996 40.4344 56.4084 40.3083 56.6505C40.1814 56.8927 40.0188 57.0704 39.82 57.1837C39.6211 57.2976 39.3908 57.355 39.1292 57.3564C38.8562 57.3578 38.6188 57.3027 38.4164 57.1916C38.214 57.0805 38.0479 56.9042 37.9181 56.6634C37.7884 56.4226 37.6929 56.1144 37.6309 55.7396C37.5688 55.364 37.5361 54.9104 37.5332 54.3779L37.5232 52.551C37.5204 52.0135 37.5475 51.5556 37.6059 51.1764C37.6637 50.7973 37.7563 50.4898 37.8832 50.2533C38.0101 50.0168 38.1712 49.8434 38.3672 49.7323C38.5632 49.6212 38.7999 49.5653 39.0779 49.5639C39.3452 49.5625 39.5776 49.6162 39.7743 49.7244C39.9711 49.8334 40.1358 50.0054 40.2683 50.2404C40.4009 50.4755 40.5007 50.7823 40.5677 51.1607C40.6354 51.5384 40.6704 51.997 40.6732 52.5345L40.6832 54.3614C40.6861 54.8929 40.6561 55.3472 40.5927 55.7233C40.5927 55.7234 40.5929 55.7236 40.593 55.7234Z" fill="#FF0002"/>
<path d="M50.8618 54.6609H50.862C51.1214 54.5061 51.3567 54.3277 51.5662 54.1241C51.8755 53.8231 52.115 53.4419 52.284 52.9803C52.4536 52.5188 52.5363 51.9447 52.532 51.2588C52.5278 50.4691 52.3674 49.8061 52.0502 49.27C51.7337 48.734 51.2825 48.3305 50.6972 48.0596C50.112 47.7887 49.4213 47.6553 48.6243 47.6596L44.8905 47.6807C44.7707 47.6814 44.7109 47.6817 44.6652 47.7054C44.6251 47.7262 44.5926 47.7593 44.5723 47.7998C44.5493 47.846 44.5496 47.9062 44.5503 48.0266L44.6121 59.3194C44.6127 59.4398 44.6131 59.5 44.6366 59.5459C44.6573 59.5862 44.6902 59.619 44.7306 59.6393C44.7764 59.6625 44.8363 59.6622 44.9561 59.6615L47.071 59.6496C47.1908 59.6489 47.2508 59.6486 47.2963 59.6249C47.3364 59.6041 47.369 59.571 47.3893 59.5304C47.4123 59.4843 47.412 59.4241 47.4113 59.3037L47.3916 55.7626C47.391 55.6422 47.3906 55.582 47.4136 55.5358C47.434 55.4952 47.4665 55.4621 47.5066 55.4413C47.5522 55.4176 47.6122 55.4173 47.7319 55.4167L47.953 55.4155C48.0366 55.415 48.0784 55.4148 48.1146 55.4282C48.1466 55.4399 48.1754 55.4593 48.1984 55.4845C48.2245 55.513 48.2403 55.5519 48.2718 55.6298L49.8059 59.4185C49.8374 59.4963 49.8532 59.5353 49.8792 59.5638C49.9023 59.589 49.9311 59.6083 49.9631 59.6201C49.9993 59.6335 50.0411 59.6332 50.1247 59.6328L52.7952 59.6181C52.8515 59.6178 52.897 59.5718 52.897 59.5152C52.897 59.5014 52.8943 59.4877 52.889 59.4751L50.8615 54.6615C50.8613 54.6613 50.8615 54.6609 50.8618 54.6609ZM47.3615 49.8966C47.3612 49.8968 47.3613 49.8971 47.3616 49.8971L48.6371 49.89C48.8831 49.8885 49.0834 49.953 49.2402 50.0842C49.3963 50.2153 49.5161 50.4038 49.5995 50.6504C49.6829 50.8969 49.7249 51.1929 49.7271 51.5383C49.7292 51.8788 49.6886 52.1712 49.6052 52.4156C49.5218 52.66 49.3963 52.8484 49.2281 52.981C49.0598 53.1136 48.8474 53.1803 48.5908 53.1817L47.7218 53.1864C47.6021 53.187 47.5422 53.1873 47.4963 53.1641C47.456 53.1437 47.4231 53.111 47.4024 53.0707C47.3788 53.0248 47.3785 52.9646 47.3779 52.8442L47.3619 49.8969C47.3619 49.8967 47.3617 49.8966 47.3615 49.8966Z" fill="#FF0002"/>
<path d="M59.1094 56.605C59.1094 56.6049 59.1092 56.6049 59.1092 56.605C58.9966 56.8879 58.8284 57.0834 58.6054 57.1916C58.3823 57.2999 58.1121 57.355 57.7963 57.3565C57.4962 57.3579 57.2517 57.3077 57.0628 57.2045C56.8739 57.1013 56.7257 56.9308 56.618 56.6928C56.5104 56.4549 56.4363 56.1409 56.3956 55.7517C56.355 55.3626 56.3336 54.8795 56.33 54.304L56.3208 52.617C56.3179 52.0523 56.3393 51.575 56.3864 51.1851C56.4334 50.7952 56.5104 50.4805 56.6187 50.2411C56.7264 50.0018 56.8704 49.8298 57.0493 49.7245C57.2289 49.6191 57.4492 49.566 57.7115 49.5646C58.0936 49.5624 58.4008 49.6227 58.6332 49.7445C58.8656 49.867 59.0288 50.077 59.1236 50.3752C59.1947 50.601 59.2321 50.8898 59.2355 51.2426C59.2369 51.3758 59.2375 51.4424 59.2612 51.488C59.2827 51.5297 59.3134 51.56 59.3552 51.581C59.4009 51.6041 59.4636 51.6037 59.5889 51.603L61.677 51.5912C61.799 51.5905 61.86 51.5902 61.9074 51.5643C61.9477 51.5422 61.9824 51.5042 62.0008 51.462C62.0225 51.4124 62.0178 51.3539 62.0085 51.2372C61.9489 50.487 61.7712 49.8331 61.4745 49.2758C61.1324 48.633 60.6455 48.1421 60.014 47.8031C59.3817 47.4641 58.6104 47.2964 57.6987 47.3014C57.0493 47.305 56.4619 47.4289 55.9373 47.6733C55.4119 47.9177 54.9664 48.2711 54.6007 48.734C54.235 49.197 53.9542 49.7582 53.7589 50.4175C53.5635 51.0769 53.468 51.8208 53.4723 52.6493L53.4816 54.3199C53.4858 55.1541 53.5828 55.8979 53.7724 56.5523C53.9613 57.2066 54.24 57.7636 54.6086 58.2222C54.9771 58.6809 55.4283 59.0299 55.9651 59.2678C56.5011 59.5065 57.1156 59.6234 57.8085 59.6198C58.6653 59.6148 59.4116 59.4492 60.0482 59.1217C60.6847 58.7941 61.1773 58.3132 61.5259 57.6775C61.8294 57.1239 61.9968 56.4702 62.0278 55.7166C62.0325 55.6034 62.0348 55.5468 62.0121 55.4987C61.9928 55.4578 61.9576 55.4211 61.9176 55.4003C61.8707 55.3757 61.8114 55.3761 61.6927 55.3767L59.4396 55.3894C59.3275 55.39 59.2392 55.4851 59.2416 55.5979C59.2508 56.0242 59.2067 56.3604 59.1094 56.605C59.1094 56.6051 59.1094 56.6051 59.1094 56.605Z" fill="#FF0002"/>
<path d="M69.5933 59.5707C69.713 59.57 69.7728 59.5697 69.8184 59.546C69.8586 59.5252 69.8912 59.4921 69.9114 59.4515C69.9344 59.4054 69.9341 59.3452 69.9335 59.2248L69.9251 57.691C69.9244 57.5706 69.9241 57.5104 69.9006 57.4646C69.8798 57.4242 69.847 57.3915 69.8066 57.3711C69.7607 57.348 69.7008 57.3482 69.5811 57.349L66.0255 57.3687C65.9057 57.3695 65.8458 57.3697 65.7999 57.3466C65.7596 57.3262 65.7267 57.2935 65.706 57.2531C65.6824 57.2073 65.6821 57.1471 65.6814 57.0267L65.6695 54.8594C65.6688 54.739 65.6685 54.6788 65.6916 54.6327C65.7118 54.5921 65.7444 54.559 65.7845 54.5382C65.8301 54.5145 65.89 54.5142 66.0097 54.5135L68.8861 54.4973C69.0058 54.4966 69.0657 54.4963 69.1113 54.4725C69.1515 54.4517 69.184 54.4186 69.2043 54.3781C69.2273 54.3319 69.2269 54.2717 69.2263 54.1513L69.218 52.6914C69.2174 52.571 69.217 52.5108 69.1934 52.465C69.1727 52.4246 69.1398 52.3919 69.0995 52.3715C69.0536 52.3484 68.9937 52.3487 68.8739 52.3494L65.9983 52.3656C65.8786 52.3663 65.8187 52.3666 65.7728 52.3434C65.7325 52.323 65.6996 52.2903 65.6789 52.25C65.6553 52.2041 65.6549 52.1439 65.6543 52.0235L65.6439 50.1853C65.6433 50.0648 65.6429 50.0046 65.6659 49.9584C65.6862 49.9179 65.7187 49.8848 65.7589 49.864C65.8045 49.8402 65.8644 49.84 65.9842 49.8393L69.564 49.8194C69.6837 49.8187 69.7436 49.8185 69.7892 49.7947C69.8294 49.7739 69.8619 49.7408 69.8822 49.7003C69.9052 49.6541 69.9049 49.5939 69.9043 49.4735L69.8959 47.9319C69.8952 47.8115 69.8949 47.7513 69.8713 47.7055C69.8506 47.6651 69.8177 47.6324 69.7774 47.612C69.7315 47.5888 69.6716 47.5891 69.5518 47.5898L65.6299 47.6116L63.1727 47.6254C63.053 47.6261 62.9931 47.6264 62.9475 47.6501C62.9073 47.671 62.8748 47.704 62.8545 47.7446C62.8315 47.7907 62.8318 47.8509 62.8325 47.9713L62.8949 59.2641C62.8957 59.3845 62.8959 59.4448 62.9195 59.4906C62.9403 59.531 62.9731 59.5637 63.0136 59.584C63.0594 59.6072 63.1193 59.6069 63.2391 59.6062L64.7214 59.5974C64.7216 59.5974 64.7217 59.5976 64.7217 59.5978C64.7217 59.598 64.7218 59.5981 64.7221 59.5981L69.5933 59.5707Z" fill="#FF0002"/>
<path d="M69.7149 61.1332H0.213849C0.0957436 61.1332 0 61.2295 0 61.3482V63.785C0 63.9037 0.0957436 64 0.213849 64H69.7149C69.833 64 69.9287 63.9037 69.9287 63.785V61.3482C69.9287 61.2295 69.833 61.1332 69.7149 61.1332Z" fill="#2E4166"/>
<path d="M25.7612 0.192381C25.9188 0.127972 25.9977 0.0957685 26.061 0.108747C26.1164 0.120095 26.165 0.153022 26.1963 0.200332C26.2321 0.254437 26.2321 0.339986 26.2321 0.511085V2.75414C26.2321 2.83778 26.2321 2.87959 26.2187 2.9158C26.207 2.94779 26.1877 2.9765 26.1627 2.99954C26.1344 3.02563 26.0958 3.04137 26.0188 3.07285L0.471548 13.5092C0.313927 13.5736 0.235116 13.6058 0.171793 13.5928C0.116422 13.5815 0.0677678 13.5486 0.0364602 13.5013C0.00065576 13.4472 0.000633376 13.3616 0.000588608 13.1906L1.71959e-06 10.9482C-2.01743e-05 10.8645 -3.11225e-05 10.8227 0.0133332 10.7865C0.0251426 10.7545 0.0443607 10.7257 0.069398 10.7027C0.0977323 10.6767 0.136274 10.6609 0.213358 10.6294L25.7612 0.192381Z" fill="#2E4166"/>
<path d="M0.214324 14.8174C0.136927 14.8487 0.0982281 14.8644 0.0697688 14.8905C0.0446212 14.9136 0.0253087 14.9423 0.0134362 14.9743C0 15.0107 0 15.0526 0 15.1365V21.3083C0 21.4678 0 21.5476 0.0331682 21.6002C0.0622075 21.6463 0.107604 21.6796 0.160152 21.6933C0.22017 21.709 0.295692 21.6846 0.446733 21.6359L12.6004 17.7136C12.6858 17.686 12.7285 17.6722 12.76 17.6461C12.7879 17.623 12.8096 17.5932 12.8229 17.5594C12.8379 17.5212 12.8379 17.4761 12.8379 17.386V10.2148C12.8379 10.0441 12.8379 9.95883 12.8023 9.90479C12.7711 9.85756 12.7225 9.82459 12.6673 9.81313C12.6041 9.80008 12.5254 9.8319 12.368 9.89569L0.214324 14.8174ZM11.7107 15.704C11.7107 15.7036 11.7103 15.7034 11.71 15.7035L8.82421 16.6921C8.67152 16.7444 8.59525 16.7705 8.53444 16.7554C8.48119 16.7423 8.435 16.7091 8.40549 16.6627C8.3717 16.6097 8.3717 16.5286 8.3717 16.3664V12.9479C8.3717 12.863 8.3717 12.8205 8.38539 12.7839C8.39751 12.7515 8.41718 12.7226 8.44277 12.6995C8.47178 12.6734 8.51113 12.658 8.58983 12.6273L11.2446 11.5896C11.4009 11.5285 11.4791 11.498 11.5417 11.5115C11.5965 11.5234 11.6445 11.5564 11.6754 11.6035C11.7107 11.6573 11.7107 11.7416 11.7107 11.9103V15.704Z" fill="#2E4166"/>
<path d="M0.241957 22.8552C0.155105 22.8819 0.111679 22.8952 0.0795013 22.9214C0.0510946 22.9445 0.0290336 22.9744 0.0154202 23.0085C0 23.0471 0 23.0928 0 23.1841V29.5263C0 29.6745 0 29.7486 0.0304692 29.7996C0.0571803 29.8444 0.0991776 29.8779 0.148625 29.8938C0.205029 29.912 0.276789 29.895 0.420306 29.8612L12.574 26.9946C12.6682 26.9724 12.7154 26.9613 12.7506 26.9353C12.7816 26.9125 12.8059 26.8817 12.8209 26.8461C12.8379 26.8058 12.8379 26.7571 12.8379 26.6597V19.4415C12.8379 19.284 12.8379 19.2052 12.8053 19.1529C12.7766 19.107 12.7318 19.0737 12.6798 19.0595C12.6203 19.0434 12.5454 19.0665 12.3956 19.1126L0.241957 22.8552ZM11.7107 24.8618C11.7107 24.8615 11.7103 24.8612 11.71 24.8613L8.79306 25.5594C8.64921 25.5938 8.57735 25.611 8.52075 25.5929C8.47121 25.5771 8.42908 25.5437 8.40228 25.4988C8.3717 25.4477 8.3717 25.3734 8.3717 25.2248V21.7851C8.3717 21.6921 8.3717 21.6456 8.38753 21.6065C8.40157 21.572 8.42424 21.5418 8.45332 21.5188C8.48632 21.4927 8.5308 21.4799 8.61969 21.4543L11.2744 20.6908C11.4225 20.6482 11.4965 20.6269 11.5551 20.6436C11.6065 20.6582 11.6505 20.6916 11.6786 20.7372C11.7107 20.7893 11.7107 20.8667 11.7107 21.0215V24.8618Z" fill="#2E4166"/>
<path d="M0.268733 31.0505C0.172863 31.0717 0.124927 31.0823 0.0891374 31.1081C0.0575701 31.1309 0.0327742 31.1619 0.0174143 31.1978C0 31.2385 0 31.2878 0 31.3865V37.702C0 37.8392 0 37.9077 0.0276916 37.957C0.0519997 38.0002 0.0904411 38.0336 0.136488 38.0516C0.188943 38.0721 0.256428 38.0622 0.391398 38.0425L12.545 36.2655C12.649 36.2503 12.7009 36.2427 12.7399 36.2174C12.7744 36.1951 12.8017 36.1634 12.8187 36.1259C12.8379 36.0834 12.8379 36.0307 12.8379 35.9251V28.7018C12.8379 28.5554 12.8379 28.4822 12.808 28.4315C12.7816 28.387 12.7403 28.3535 12.6914 28.3373C12.6356 28.3187 12.5645 28.3344 12.4224 28.3658L0.268733 31.0505ZM11.7107 33.714C11.7107 33.8205 11.7107 33.8738 11.6911 33.9165C11.6739 33.9542 11.6462 33.9861 11.6114 34.0083C11.5719 34.0335 11.5194 34.0406 11.4144 34.0549L8.7597 34.4162C8.62575 34.4344 8.55882 34.4435 8.50678 34.4228C8.46116 34.4046 8.4231 34.3712 8.39907 34.3282C8.3717 34.2791 8.3717 34.2112 8.3717 34.0753V30.6151C8.3717 30.515 8.3717 30.4651 8.38945 30.424C8.40513 30.3878 8.43044 30.3567 8.46252 30.3339C8.49894 30.3082 8.5477 30.2982 8.64514 30.2781L11.2998 29.7311C11.4406 29.702 11.5109 29.6876 11.566 29.7066C11.6144 29.7232 11.6552 29.7566 11.6811 29.8009C11.7107 29.8514 11.7107 29.9236 11.7107 30.068V33.714Z" fill="#2E4166"/>
<path d="M0.297869 39.2102C0.192361 39.224 0.139607 39.231 0.0998748 39.2561C0.0648666 39.2783 0.0370069 39.3102 0.0196729 39.348C0 39.3909 0 39.4443 0 39.5513V45.458C0 45.5784 0 45.6386 0.0233081 45.6846C0.0438107 45.725 0.0765253 45.7579 0.116764 45.7785C0.162508 45.802 0.222392 45.802 0.342159 45.802H12.4958C12.6156 45.802 12.6755 45.802 12.7212 45.7785C12.7615 45.7579 12.7942 45.725 12.8146 45.6846C12.8379 45.6386 12.8379 45.5784 12.8379 45.458V37.9562C12.8379 37.8209 12.8379 37.7532 12.8107 37.7043C12.7868 37.6613 12.749 37.6279 12.7035 37.6096C12.6518 37.5888 12.585 37.5976 12.4515 37.6151L0.297869 39.2102ZM11.7107 42.8227C11.7107 42.9374 11.7107 42.9947 11.6889 43.0394C11.6697 43.0789 11.639 43.1114 11.601 43.1328C11.5577 43.157 11.5007 43.1601 11.3868 43.1662L8.73204 43.3086C8.60658 43.3154 8.54385 43.3187 8.49559 43.2962C8.45325 43.2765 8.41846 43.2433 8.39658 43.2019C8.3717 43.1546 8.3717 43.0914 8.3717 42.9651V39.5043C8.3717 39.3944 8.3717 39.3395 8.39209 39.2959C8.41012 39.2576 8.43906 39.2254 8.4752 39.2035C8.51626 39.1787 8.57058 39.1731 8.67922 39.162L11.3339 38.8908C11.4645 38.8774 11.5297 38.8708 11.5802 38.8922C11.6245 38.9111 11.6612 38.9444 11.6843 38.9868C11.7107 39.0351 11.7107 39.1011 11.7107 39.233V42.8227Z" fill="#2E4166"/>
<path d="M14.1619 9.16922C14.0844 9.20061 14.0457 9.21623 14.0173 9.24232C13.9921 9.2654 13.9728 9.29414 13.961 9.32617C13.9475 9.36251 13.9475 9.40444 13.9475 9.48836V16.8076C13.9475 16.9671 13.9475 17.0468 13.9807 17.0995C14.0097 17.1456 14.0551 17.1789 14.1077 17.1926C14.1677 17.2083 14.2432 17.1839 14.3942 17.1351L25.994 13.3913C26.0794 13.3638 26.1221 13.3499 26.1537 13.3238C26.1815 13.3008 26.2031 13.271 26.2165 13.2372C26.2316 13.1989 26.2316 13.1539 26.2316 13.0638V4.79094C26.2316 4.62033 26.2316 4.53502 26.1959 4.48098C26.1647 4.43371 26.1162 4.40078 26.0609 4.38932C25.9977 4.37623 25.919 4.4081 25.7616 4.47184L14.1619 9.16922ZM18.9427 13.0109C18.9427 13.0996 18.9427 13.1439 18.928 13.1817C18.915 13.215 18.894 13.2446 18.8668 13.2677C18.836 13.2938 18.7942 13.3081 18.7108 13.3367L15.5015 14.4348C15.3489 14.487 15.2725 14.5131 15.2117 14.4981C15.1585 14.4849 15.1123 14.4517 15.0828 14.4053C15.049 14.3523 15.049 14.2712 15.049 14.1091V10.3672C15.049 10.2823 15.049 10.2398 15.0627 10.2032C15.0749 10.1709 15.0946 10.1419 15.1202 10.1188C15.1492 10.0927 15.1885 10.0773 15.2673 10.0466L18.4766 8.79303C18.633 8.73197 18.7111 8.70144 18.7738 8.71498C18.8286 8.72688 18.8766 8.75985 18.9075 8.80694C18.9427 8.86076 18.9427 8.94504 18.9427 9.11368V13.0109Z" fill="#2E4166"/>
<path d="M14.1895 18.5614C14.1026 18.5882 14.0592 18.6016 14.027 18.6277C13.9986 18.6507 13.9765 18.6808 13.9629 18.7148C13.9475 18.7534 13.9475 18.7991 13.9475 18.8904V26.2374C13.9475 26.3856 13.9475 26.4597 13.9779 26.5108C14.0047 26.5556 14.0467 26.589 14.0961 26.6049C14.1525 26.6231 14.2243 26.6062 14.3678 26.5723L25.9676 23.8369C26.0619 23.8146 26.109 23.8035 26.1442 23.7776C26.1752 23.7547 26.1995 23.7239 26.2145 23.6883C26.2316 23.648 26.2316 23.5993 26.2316 23.5019V15.3191C26.2316 15.1616 26.2316 15.0829 26.1989 15.0304C26.1702 14.9845 26.1254 14.9512 26.0734 14.9371C26.014 14.921 25.939 14.944 25.7893 14.9902L14.1895 18.5614ZM18.9427 22.89C18.9427 22.9871 18.9427 23.0356 18.9257 23.0759C18.9107 23.1114 18.8865 23.1422 18.8556 23.1651C18.8206 23.191 18.7736 23.2022 18.6796 23.2247L15.4703 23.9914C15.3266 24.0258 15.2546 24.0429 15.1981 24.0249C15.1486 24.009 15.1064 23.9756 15.0796 23.9308C15.049 23.8797 15.049 23.8053 15.049 23.6567V19.8937C15.049 19.8007 15.049 19.7543 15.0649 19.7152C15.0789 19.6807 15.1017 19.6504 15.1307 19.6274C15.1637 19.6013 15.2082 19.5886 15.2972 19.563L18.5066 18.6408C18.6546 18.5983 18.7286 18.5771 18.7872 18.5938C18.8385 18.6084 18.8825 18.6418 18.9107 18.6874C18.9427 18.7394 18.9427 18.8168 18.9427 18.9717V22.89Z" fill="#2E4166"/>
<path d="M14.2162 27.9702C14.1204 27.9914 14.0725 28.002 14.0367 28.0279C14.0051 28.0507 13.9803 28.0816 13.9649 28.1175C13.9475 28.1582 13.9475 28.2075 13.9475 28.3062V35.6639C13.9475 35.801 13.9475 35.8695 13.9752 35.9188C13.9995 35.962 14.038 35.9955 14.084 36.0134C14.1365 36.0339 14.2039 36.024 14.3389 36.0043L25.9387 34.3083C26.0425 34.2931 26.0945 34.2855 26.1336 34.2602C26.168 34.2379 26.1953 34.2062 26.2123 34.1687C26.2316 34.1262 26.2316 34.0734 26.2316 33.9679V25.744C26.2316 25.5977 26.2316 25.5246 26.2016 25.4737C26.1753 25.4292 26.1339 25.3958 26.085 25.3795C26.0292 25.3609 25.9581 25.3766 25.816 25.408L14.2162 27.9702ZM18.9427 32.6952C18.9427 32.8 18.9427 32.8524 18.9236 32.8947C18.9068 32.932 18.8797 32.9637 18.8457 32.986C18.8069 33.0114 18.7554 33.0194 18.6524 33.0352L15.443 33.5296C15.3073 33.5506 15.2394 33.561 15.1866 33.5407C15.1403 33.523 15.1015 33.4895 15.077 33.4461C15.049 33.3968 15.049 33.3277 15.049 33.1896V29.4141C15.049 29.3139 15.049 29.2637 15.0669 29.2226C15.0826 29.1863 15.1081 29.1551 15.1403 29.1324C15.1769 29.1067 15.2258 29.0967 15.3236 29.0769L18.5329 28.4266C18.6734 28.3981 18.7436 28.3838 18.7985 28.4029C18.8468 28.4196 18.8874 28.4531 18.9133 28.4973C18.9427 28.5477 18.9427 28.6198 18.9427 28.7638V32.6952Z" fill="#2E4166"/>
<path d="M14.2454 37.3791C14.1399 37.3929 14.0872 37.3999 14.0474 37.425C14.0124 37.4472 13.9845 37.4791 13.9672 37.5168C13.9475 37.5598 13.9475 37.6132 13.9475 37.7202V45.4579C13.9475 45.5784 13.9475 45.6386 13.9708 45.6846C13.9913 45.725 14.0241 45.7579 14.0643 45.7785C14.11 45.8019 14.1699 45.8019 14.2897 45.8019H25.8894C26.0092 45.8019 26.0691 45.8019 26.1148 45.7785C26.1551 45.7579 26.1878 45.725 26.2083 45.6846C26.2316 45.6386 26.2316 45.5784 26.2316 45.4579V36.1981C26.2316 36.0628 26.2316 35.9952 26.2044 35.9462C26.1805 35.9033 26.1426 35.8699 26.0971 35.8516C26.0454 35.8308 25.9786 35.8395 25.8452 35.8571L14.2454 37.3791ZM18.9427 42.6195C18.9427 42.7346 18.9427 42.7921 18.9209 42.8369C18.9016 42.8764 18.8707 42.9089 18.8325 42.9303C18.7891 42.9544 18.732 42.9573 18.6177 42.9631L15.4084 43.125C15.2832 43.1313 15.2206 43.1344 15.1726 43.1119C15.1303 43.0921 15.0956 43.0589 15.0739 43.0175C15.049 42.9703 15.049 42.9073 15.049 42.7814V38.9915C15.049 38.8831 15.049 38.829 15.0691 38.7858C15.0868 38.7478 15.1151 38.7157 15.1507 38.6936C15.191 38.6686 15.2446 38.6624 15.3516 38.6498L18.5609 38.2735C18.693 38.258 18.759 38.2503 18.8102 38.2714C18.8551 38.29 18.8923 38.3233 18.9159 38.366C18.9427 38.4147 18.9427 38.4815 18.9427 38.6152V42.6195Z" fill="#2E4166"/>
<path d="M69.7877 31.0154C69.8394 31.0532 69.8653 31.072 69.884 31.0963C69.9005 31.1177 69.9129 31.1421 69.9204 31.1681C69.929 31.1975 69.929 31.2296 69.929 31.2939V33.4297C69.929 33.6474 69.929 33.7562 69.8841 33.8144C69.8451 33.865 69.7856 33.8955 69.722 33.8975C69.6487 33.8999 69.5611 33.836 69.3859 33.7082L27.4428 3.12596C27.391 3.08822 27.3652 3.06935 27.3465 3.04516C27.33 3.02374 27.3176 2.99936 27.31 2.97331C27.3015 2.94391 27.3015 2.91177 27.3015 2.84748V0.711666C27.3015 0.494005 27.3015 0.385174 27.3464 0.327021C27.3854 0.276399 27.4449 0.245911 27.5085 0.24386C27.5817 0.241504 27.6693 0.305397 27.8445 0.433183L69.7877 31.0154Z" fill="#FF0002"/>
<path d="M49.9379 39.8613C49.7997 39.8367 49.7306 39.8243 49.6767 39.844C49.6295 39.8613 49.5897 39.8948 49.5645 39.9386C49.5359 39.9884 49.5359 40.059 49.5359 40.2V45.4578C49.5359 45.5783 49.5359 45.6385 49.5592 45.6844C49.5797 45.7249 49.6124 45.7578 49.6527 45.7784C49.6984 45.8018 49.7583 45.8018 49.878 45.8018H56.6C56.7197 45.8018 56.7796 45.8018 56.8254 45.7784C56.8656 45.7578 56.8983 45.7249 56.9188 45.6844C56.9421 45.6385 56.9421 45.5783 56.9421 45.4578V41.3995C56.9421 41.297 56.9421 41.2457 56.9237 41.204C56.9074 41.1672 56.8812 41.1358 56.848 41.1132C56.8104 41.0876 56.7601 41.0787 56.6598 41.0608L49.9379 39.8613ZM52.2603 43.6861C52.2603 43.812 52.2603 43.8749 52.2356 43.922C52.2139 43.9635 52.1792 43.9966 52.137 44.0164C52.089 44.0389 52.0264 44.0359 51.9014 44.0297L50.9588 43.9832C50.8444 43.9776 50.7872 43.9747 50.7437 43.9506C50.7054 43.9293 50.6746 43.8967 50.6553 43.8573C50.6334 43.8124 50.6334 43.7548 50.6334 43.6396V41.3633C50.6334 41.2273 50.6334 41.1593 50.6608 41.1103C50.6849 41.0672 50.723 41.0337 50.7687 41.0156C50.8207 40.9949 50.8877 41.0041 51.0218 41.0225L51.9644 41.1516C52.0693 41.166 52.1218 41.1731 52.1612 41.1984C52.196 41.2206 52.2236 41.2525 52.2409 41.2901C52.2603 41.3328 52.2603 41.3861 52.2603 41.4925V43.6861ZM55.5806 43.8943C55.5806 44.0201 55.5806 44.0829 55.5559 44.13C55.5341 44.1715 55.4996 44.2046 55.4574 44.2244C55.4094 44.247 55.347 44.244 55.222 44.238L54.6008 44.2079C54.4862 44.2024 54.429 44.1996 54.3854 44.1755C54.3471 44.1542 54.3163 44.1216 54.297 44.0821C54.275 44.0373 54.275 43.9796 54.275 43.8644V41.9082C54.275 41.7724 54.275 41.7044 54.3024 41.6554C54.3264 41.6123 54.3645 41.5789 54.4101 41.5607C54.4621 41.54 54.529 41.5491 54.6629 41.5672L55.2842 41.6515C55.3892 41.6657 55.4417 41.6729 55.4813 41.698C55.5161 41.7202 55.5438 41.7521 55.561 41.7898C55.5806 41.8326 55.5806 41.8859 55.5806 41.9924V43.8943Z" fill="#FF0002"/>
<path d="M49.9935 33.5459C49.8394 33.4904 49.7624 33.4626 49.7009 33.4772C49.6471 33.4899 49.6003 33.523 49.5702 33.5696C49.5359 33.6229 49.5359 33.7052 49.5359 33.8697V38.567C49.5359 38.6671 49.5359 38.7171 49.5537 38.7582C49.5694 38.7945 49.5947 38.8256 49.6268 38.8483C49.6633 38.874 49.7121 38.8841 49.8096 38.9041L56.5315 40.2837C56.6723 40.3126 56.7425 40.327 56.7976 40.308C56.846 40.2914 56.8867 40.2579 56.9126 40.2137C56.9421 40.1632 56.9421 40.091 56.9421 39.9467V36.2914C56.9421 36.2042 56.9421 36.1606 56.9278 36.1232C56.9152 36.0903 56.8947 36.061 56.868 36.0378C56.8379 36.0117 56.7971 35.997 56.7154 35.9676L49.9935 33.5459ZM52.2603 37.7391C52.2603 37.8865 52.2603 37.9602 52.2301 38.0112C52.2035 38.0559 52.1617 38.0893 52.1126 38.1054C52.0564 38.1237 51.9849 38.1073 51.8419 38.0744L50.8993 37.8577C50.8044 37.8358 50.7569 37.8249 50.7215 37.7991C50.6903 37.7762 50.6658 37.7453 50.6506 37.7096C50.6334 37.6691 50.6334 37.6202 50.6334 37.5223V35.2688C50.6334 35.11 50.6334 35.0306 50.6664 34.978C50.6953 34.932 50.7405 34.8986 50.7929 34.8848C50.8527 34.869 50.928 34.8929 51.0787 34.9408L52.0212 35.2401C52.1071 35.2674 52.1501 35.2811 52.1818 35.3072C52.2099 35.3302 52.2317 35.3601 52.2451 35.394C52.2603 35.4324 52.2603 35.4776 52.2603 35.5682V37.7391ZM55.5806 38.5474C55.5806 38.6947 55.5806 38.7683 55.5503 38.8193C55.5239 38.8638 55.4822 38.8974 55.433 38.9134C55.3769 38.9318 55.3055 38.9155 55.1626 38.8829L54.5414 38.741C54.4463 38.7193 54.3988 38.7085 54.3633 38.6826C54.332 38.6597 54.3074 38.6288 54.2923 38.5932C54.275 38.5526 54.275 38.5036 54.275 38.4056V36.4708C54.275 36.3122 54.275 36.2328 54.308 36.1803C54.3369 36.1342 54.382 36.101 54.4343 36.087C54.4941 36.0712 54.5693 36.095 54.7198 36.1426L55.3411 36.339C55.4271 36.3662 55.4701 36.3798 55.5019 36.406C55.5301 36.429 55.5519 36.4589 55.5654 36.4928C55.5806 36.5312 55.5806 36.5765 55.5806 36.6672V38.5474Z" fill="#FF0002"/>
<path d="M60.0105 42.2303C59.8746 42.2092 59.8066 42.1987 59.7538 42.2189C59.7074 42.2366 59.6686 42.2701 59.644 42.3135C59.616 42.3629 59.616 42.4321 59.616 42.5703V44.5345C59.616 44.6498 59.616 44.7074 59.638 44.7523C59.6572 44.7918 59.6882 44.8243 59.7265 44.8456C59.7699 44.8698 59.8272 44.8725 59.9417 44.8781L63.7669 45.0637C63.8814 45.0693 63.9386 45.072 63.9822 45.0962C64.0205 45.1175 64.0513 45.15 64.0707 45.1895C64.0925 45.2344 64.0925 45.292 64.0925 45.4072V45.4572C64.0925 45.5776 64.0925 45.6378 64.0692 45.6837C64.0488 45.7242 64.0161 45.7571 63.9758 45.7778C63.93 45.8012 63.8701 45.8012 63.7504 45.8012H57.826C57.7063 45.8012 57.6464 45.8012 57.6006 45.7778C57.5604 45.7571 57.5277 45.7242 57.5072 45.6837C57.4839 45.6378 57.4839 45.5776 57.4839 45.4572V41.6184C57.4839 41.4774 57.4839 41.4069 57.5125 41.3569C57.5378 41.3131 57.5775 41.2796 57.6247 41.2624C57.6786 41.2427 57.7477 41.2551 57.8859 41.2797L63.8972 42.3527C63.915 42.3559 63.924 42.3575 63.9317 42.3595C64.0206 42.3824 64.0851 42.4597 64.092 42.5517C64.0925 42.5597 64.0925 42.5689 64.0925 42.5872C64.0925 42.6117 64.0925 42.6241 64.0916 42.634C64.081 42.7496 63.981 42.8358 63.8657 42.8287C63.8558 42.8281 63.8438 42.8263 63.8195 42.8225L60.0105 42.2303Z" fill="#FF0002"/>
<path d="M41.9396 16.0247C41.7654 15.9025 41.6783 15.8415 41.6059 15.8447C41.5428 15.8476 41.4842 15.8783 41.4457 15.9287C41.4016 15.9866 41.4016 16.0933 41.4016 16.3068V20.0931C41.4016 20.1647 41.4016 20.2004 41.4119 20.2325C41.421 20.2609 41.4358 20.2871 41.4556 20.3094C41.4778 20.3346 41.5084 20.3528 41.5697 20.3892L48.68 24.6157C48.7412 24.6521 48.7719 24.6703 48.7941 24.6955C48.8138 24.7178 48.8287 24.7441 48.8377 24.7724C48.848 24.8046 48.848 24.8403 48.848 24.9118V25.0678C48.848 25.2615 48.848 25.3584 48.8075 25.4147C48.7721 25.4639 48.7178 25.4958 48.6579 25.5025C48.5892 25.5103 48.5053 25.4626 48.3375 25.3673L39.6921 20.4555C39.6288 20.4195 39.5971 20.4015 39.5741 20.3762C39.5537 20.3537 39.5383 20.3271 39.5289 20.2983C39.5183 20.2656 39.5183 20.2291 39.5183 20.156V13.94C39.5183 13.723 39.5183 13.6145 39.563 13.5565C39.6019 13.5059 39.6613 13.4753 39.7249 13.4731C39.7979 13.4707 39.8854 13.5341 40.0606 13.661L48.7059 19.9269C48.758 19.9646 48.784 19.9836 48.8028 20.0078C48.8194 20.0292 48.8319 20.0536 48.8394 20.0797C48.848 20.1093 48.848 20.1418 48.848 20.2069C48.848 20.4227 48.848 20.5307 48.8039 20.5885C48.7654 20.639 48.7068 20.6697 48.6438 20.6725C48.5713 20.6758 48.4842 20.6147 48.3101 20.4926L41.9396 16.0247Z" fill="#FF0002"/>
<path d="M41.9006 23.8561C41.7356 23.7706 41.6532 23.7279 41.586 23.7373C41.5274 23.7455 41.4748 23.7778 41.4407 23.8264C41.4016 23.8821 41.4016 23.9754 41.4016 24.1618V28.0086C41.4016 28.092 41.4016 28.1337 41.4149 28.1698C41.4267 28.2018 41.4459 28.2305 41.4708 28.2535C41.4991 28.2796 41.5375 28.2954 41.6142 28.327L48.6353 31.2144C48.7122 31.2461 48.7505 31.2618 48.7788 31.2879C48.8037 31.311 48.8229 31.3397 48.8346 31.3715C48.848 31.4077 48.848 31.4494 48.848 31.5329V31.6716C48.848 31.8398 48.848 31.9239 48.8128 31.9776C48.7821 32.0247 48.7342 32.0577 48.6795 32.0697C48.617 32.0833 48.539 32.0531 48.3829 31.9927L39.7375 28.6469C39.6584 28.6162 39.6189 28.601 39.5898 28.5748C39.5641 28.5517 39.5443 28.5228 39.5321 28.4903C39.5183 28.4536 39.5183 28.4111 39.5183 28.3258V22.141C39.5183 21.9511 39.5183 21.8563 39.558 21.8002C39.5927 21.7513 39.6461 21.7192 39.7054 21.7117C39.7733 21.7031 39.8564 21.7481 40.0227 21.8381L48.6681 26.5195C48.7335 26.5549 48.7662 26.5727 48.79 26.5982C48.8111 26.6208 48.8272 26.6477 48.8369 26.6771C48.848 26.7103 48.848 26.7477 48.848 26.8224V26.8918C48.848 27.0784 48.848 27.1716 48.8089 27.2274C48.7748 27.276 48.7222 27.3082 48.6636 27.3165C48.5964 27.3259 48.5139 27.2831 48.3491 27.1976L41.9006 23.8561Z" fill="#FF0002"/>
<path d="M50.0781 20.9217C49.9031 20.7948 49.8155 20.7313 49.7425 20.7338C49.6789 20.736 49.6196 20.7665 49.5806 20.8171C49.5359 20.8752 49.5359 20.9837 49.5359 21.2007V25.8472C49.5359 25.9202 49.5359 25.9567 49.5465 25.9894C49.556 26.0183 49.5714 26.0448 49.5917 26.0673C49.6148 26.0927 49.6464 26.1107 49.7097 26.1466L56.4316 29.9662C56.5994 30.0615 56.6833 30.1091 56.752 30.1014C56.812 30.0947 56.8663 30.0629 56.9016 30.0137C56.9421 29.9573 56.9421 29.8605 56.9421 29.6667V26.0727C56.9421 26.0082 56.9421 25.976 56.9336 25.9465C56.926 25.9203 56.9135 25.896 56.8969 25.8745C56.8781 25.8502 56.8521 25.8314 56.8001 25.7937L50.0781 20.9217ZM52.299 25.732C52.299 25.9297 52.299 26.0285 52.2578 26.0852C52.2218 26.1346 52.1666 26.1662 52.106 26.1722C52.0364 26.1791 51.9518 26.1287 51.7827 26.0281L50.8442 25.4698C50.783 25.4333 50.7524 25.4151 50.7301 25.3899C50.7104 25.3676 50.6956 25.3415 50.6865 25.3131C50.6763 25.281 50.6763 25.2452 50.6763 25.1737V23.0255C50.6763 22.8149 50.6763 22.7096 50.7199 22.6519C50.7579 22.6017 50.8159 22.5708 50.8786 22.5673C50.9506 22.5635 51.0373 22.6226 51.2105 22.7408L52.1491 23.3812C52.2039 23.4187 52.2313 23.4374 52.2512 23.462C52.2688 23.4837 52.2819 23.5087 52.29 23.5355C52.299 23.5658 52.299 23.5992 52.299 23.6659V25.732ZM55.5806 27.7269C55.5806 27.9242 55.5806 28.0229 55.5394 28.0796C55.5035 28.1289 55.4483 28.1606 55.3877 28.1666C55.3182 28.1735 55.2337 28.1234 55.0646 28.0232L54.4434 27.6549C54.382 27.6185 54.3513 27.6003 54.329 27.5751C54.3093 27.5527 54.2944 27.5266 54.2853 27.4981C54.275 27.466 54.275 27.4302 54.275 27.3586V25.5252C54.275 25.3148 54.275 25.2096 54.3186 25.1519C54.3565 25.1017 54.4146 25.0708 54.4772 25.0673C54.5492 25.0634 54.6358 25.1224 54.809 25.2403L55.4303 25.6632C55.4852 25.7006 55.5128 25.7193 55.5327 25.7439C55.5503 25.7657 55.5634 25.7907 55.5715 25.8176C55.5806 25.8479 55.5806 25.8813 55.5806 25.948V27.7269Z" fill="#FF0002"/>
<path d="M50.0403 27.2628C49.8741 27.1727 49.7909 27.1277 49.723 27.1363C49.6637 27.1438 49.6103 27.1759 49.5756 27.2248C49.5359 27.2808 49.5359 27.3758 49.5359 27.5656V32.2031C49.5359 32.2883 49.5359 32.3309 49.5496 32.3676C49.5618 32.4 49.5817 32.4291 49.6074 32.4521C49.6365 32.4782 49.676 32.4936 49.7552 32.5242L56.4771 35.1254C56.6331 35.1857 56.7112 35.216 56.7737 35.2023C56.8284 35.1903 56.8763 35.1573 56.907 35.1103C56.9421 35.0565 56.9421 34.9724 56.9421 34.8043V31.2056C56.9421 31.1309 56.9421 31.0936 56.9311 31.0603C56.9213 31.031 56.9053 31.0041 56.8842 30.9814C56.8604 30.9559 56.8277 30.9382 56.7622 30.9027L50.0403 27.2628ZM52.2804 31.7625C52.2804 31.9341 52.2804 32.0198 52.2445 32.074C52.2131 32.1214 52.1643 32.1543 52.1089 32.1655C52.0454 32.1784 51.9664 32.1459 51.8085 32.0809L50.8673 31.6933C50.7905 31.6617 50.7522 31.6459 50.724 31.6198C50.699 31.5968 50.6799 31.5681 50.6681 31.5361C50.6548 31.5 50.6548 31.4583 50.6548 31.375V29.1656C50.6548 28.9818 50.6548 28.8899 50.6933 28.8345C50.727 28.786 50.7789 28.7537 50.837 28.7449C50.9035 28.7349 50.9854 28.7758 51.1492 28.8575L52.0904 29.3272C52.1593 29.3616 52.1938 29.3788 52.2191 29.4046C52.2413 29.4274 52.2583 29.4549 52.2687 29.4851C52.2804 29.5192 52.2804 29.5579 52.2804 29.6354V31.7625ZM55.5806 33.1652C55.5806 33.3365 55.5806 33.4222 55.5448 33.4763C55.5134 33.5236 55.4647 33.5566 55.4093 33.5678C55.3459 33.5808 55.267 33.5484 55.1092 33.4837L54.488 33.229C54.4111 33.1974 54.3726 33.1817 54.3443 33.1556C54.3193 33.1326 54.3002 33.1038 54.2884 33.0719C54.275 33.0357 54.275 32.994 54.275 32.9105V31.0176C54.275 30.834 54.275 30.7422 54.3135 30.6868C54.3471 30.6384 54.399 30.606 54.4571 30.5972C54.5236 30.5871 54.6054 30.6279 54.7691 30.7094L55.3903 31.0187C55.4594 31.0531 55.4939 31.0702 55.5191 31.096C55.5414 31.1188 55.5584 31.1463 55.5688 31.1765C55.5806 31.2107 55.5806 31.2495 55.5806 31.3269V33.1652Z" fill="#FF0002"/>
<path d="M65.0308 31.7588C64.8557 31.6318 64.7681 31.5684 64.6951 31.5709C64.6315 31.5731 64.5721 31.6036 64.5332 31.6542C64.4885 31.7123 64.4885 31.8208 64.4885 32.0378V34.3428C64.4885 34.4158 64.4885 34.4524 64.4991 34.485C64.5086 34.5139 64.524 34.5404 64.5443 34.5629C64.5674 34.5883 64.599 34.6063 64.6623 34.6422L69.418 37.3445C69.5857 37.4398 69.6696 37.4875 69.7383 37.4797C69.7983 37.473 69.8527 37.4412 69.8879 37.392C69.9285 37.3356 69.9285 37.2387 69.9285 37.045V35.485C69.9285 35.4205 69.9285 35.3882 69.9199 35.3588C69.9123 35.3326 69.8999 35.3082 69.8832 35.2867C69.8645 35.2625 69.8385 35.2437 69.7864 35.206L65.0308 31.7588ZM66.1313 34.2826C66.1313 34.3562 66.1313 34.3929 66.1253 34.4178C66.0965 34.5374 65.974 34.6084 65.8567 34.5733C65.8322 34.5661 65.8006 34.5476 65.7374 34.5108C65.714 34.4972 65.7023 34.4903 65.6922 34.4827C65.6455 34.4473 65.6152 34.3945 65.6082 34.3361C65.6067 34.3234 65.6067 34.3099 65.6067 34.2826V33.244C65.6067 33.1657 65.6067 33.1266 65.6132 33.1009C65.6437 32.9776 65.7736 32.9077 65.8927 32.9505C65.9175 32.9594 65.9498 32.9812 66.0146 33.0247C66.0356 33.0387 66.0461 33.0457 66.0552 33.0535C66.0972 33.0889 66.1239 33.1393 66.13 33.1941C66.1313 33.206 66.1313 33.2187 66.1313 33.244V34.2826ZM67.2621 35.0255C67.2621 35.0512 67.2621 35.0641 67.2613 35.073C67.2489 35.2227 67.0916 35.3137 66.9566 35.2495C66.9485 35.2456 66.9375 35.2391 66.9153 35.2262C66.9071 35.2214 66.903 35.219 66.8993 35.2166C66.8403 35.1789 66.8034 35.1145 66.8005 35.0443C66.8004 35.0398 66.8004 35.035 66.8004 35.0255V34.014C66.8004 33.9866 66.8004 33.9729 66.8012 33.9637C66.8144 33.8088 66.9817 33.7188 67.1172 33.7937C67.1252 33.7981 67.1366 33.8058 67.1593 33.821C67.1666 33.8259 67.1703 33.8283 67.1737 33.8308C67.2268 33.8696 67.2593 33.9306 67.2619 33.9965C67.2621 34.0007 67.2621 34.0051 67.2621 34.014V35.0255Z" fill="#FF0002"/>
<path d="M60.1149 33.2948C59.9501 33.2094 59.8676 33.1667 59.8004 33.176C59.7418 33.1842 59.6892 33.2165 59.6551 33.2651C59.616 33.3209 59.616 33.4141 59.616 33.6006V35.4986C59.616 35.5821 59.616 35.6238 59.6294 35.6599C59.6411 35.6919 59.6603 35.7205 59.6852 35.7436C59.7135 35.7696 59.7518 35.7855 59.8287 35.8171L63.9468 37.5108C63.9592 37.5159 63.9653 37.5184 63.9709 37.5211C64.0412 37.5549 64.0878 37.6245 64.0922 37.7028C64.0925 37.709 64.0925 37.7156 64.0925 37.729C64.0925 37.7559 64.0925 37.7693 64.0916 37.7794C64.0791 37.9129 63.9493 38.0025 63.8209 37.9663C63.8113 37.9635 63.7988 37.9587 63.7738 37.9491L57.7032 35.5994C57.624 35.5688 57.5845 35.5535 57.5554 35.5274C57.5296 35.5043 57.5098 35.4753 57.4976 35.4429C57.4839 35.4062 57.4839 35.3636 57.4839 35.2784V31.87C57.4839 31.6801 57.4839 31.5852 57.5236 31.5291C57.5583 31.4803 57.6117 31.4482 57.671 31.4407C57.7389 31.432 57.822 31.477 57.9883 31.5671L63.9793 34.8104C63.9801 34.8108 63.9804 34.8111 63.9808 34.8112C64.0494 34.8487 64.0923 34.9209 64.0925 34.9993C64.0925 34.9998 64.0925 35.0002 64.0925 35.001C64.0925 35.0032 64.0925 35.0043 64.0925 35.005C64.0914 35.1647 63.9237 35.2674 63.7821 35.1953C63.7814 35.1949 63.7805 35.1945 63.7785 35.1935L60.1149 33.2948Z" fill="#FF0002"/>
<path d="M60.067 37.7486C59.9148 37.6973 59.8386 37.6716 59.7781 37.6868C59.725 37.7001 59.6791 37.7334 59.6497 37.7797C59.616 37.8327 59.616 37.9134 59.616 38.0747V40.0157C59.616 40.1136 59.616 40.1625 59.6332 40.2029C59.6484 40.2386 59.6729 40.2695 59.7041 40.2924C59.7395 40.3183 59.787 40.3292 59.8818 40.351L63.8959 41.2752C63.9249 41.2818 63.9394 41.2851 63.9518 41.2897C64.0272 41.3173 64.081 41.3851 64.0909 41.4652C64.0925 41.4784 64.0925 41.4934 64.0925 41.5233C64.0925 41.5672 64.0925 41.5892 64.0897 41.6066C64.0722 41.7136 63.9783 41.7907 63.8705 41.7865C63.853 41.7859 63.8316 41.7814 63.7887 41.7727L57.7576 40.5352C57.6601 40.5152 57.6113 40.5052 57.5748 40.4794C57.5427 40.4567 57.5174 40.4255 57.5017 40.3894C57.4839 40.3483 57.4839 40.2983 57.4839 40.1981V36.7335C57.4839 36.569 57.4839 36.4868 57.5182 36.4335C57.5483 36.3868 57.5951 36.3536 57.6489 36.3409C57.7103 36.3265 57.7874 36.3542 57.9414 36.4097L63.9412 38.5705C63.9504 38.5738 63.955 38.5754 63.9592 38.5771C64.0368 38.6088 64.0889 38.6832 64.0924 38.7674C64.0925 38.7719 64.0925 38.7768 64.0925 38.7866C64.0925 38.8048 64.0925 38.8139 64.0921 38.8209C64.0834 38.956 63.9541 39.0495 63.8239 39.0148C63.8172 39.013 63.8087 39.0102 63.7915 39.0044L60.067 37.7486Z" fill="#FF0002"/>
<path d="M41.8525 31.6095C41.7004 31.5582 41.6242 31.5325 41.5636 31.5477C41.5106 31.561 41.4647 31.5943 41.4353 31.6406C41.4016 31.6936 41.4016 31.7743 41.4016 31.9357V35.8253C41.4016 35.9231 41.4016 35.9721 41.4189 36.0126C41.434 36.0483 41.4585 36.0792 41.4897 36.102C41.5251 36.1279 41.5725 36.1388 41.6675 36.1607L48.5822 37.7519C48.677 37.7737 48.7245 37.7847 48.7599 37.8105C48.7911 37.8333 48.8156 37.8642 48.8308 37.8999C48.848 37.9404 48.848 37.9893 48.848 38.0872V38.2854C48.848 38.4298 48.848 38.502 48.8185 38.5525C48.7926 38.5967 48.7518 38.6301 48.7035 38.6468C48.6484 38.6658 48.578 38.6514 48.4374 38.6225L39.792 36.848C39.6944 36.828 39.6457 36.8179 39.6093 36.7922C39.5771 36.7695 39.5517 36.7383 39.5361 36.7021C39.5183 36.661 39.5183 36.611 39.5183 36.5109V30.2605C39.5183 30.0961 39.5183 30.0138 39.5526 29.9605C39.5827 29.9138 39.6295 29.8806 39.6833 29.8679C39.7448 29.8535 39.8218 29.8812 39.9759 29.9367L48.6212 33.0514C48.7029 33.0808 48.7438 33.0955 48.7738 33.1217C48.8005 33.1448 48.821 33.1742 48.8337 33.2071C48.848 33.2445 48.848 33.288 48.848 33.3753V33.4891C48.848 33.6505 48.848 33.7312 48.8143 33.7842C48.785 33.8305 48.739 33.8638 48.686 33.8771C48.6254 33.8923 48.5492 33.8666 48.397 33.8154L41.8525 31.6095Z" fill="#FF0002"/>
<path d="M64.8905 42.5303C64.7523 42.5057 64.6833 42.4934 64.6294 42.513C64.5821 42.5303 64.5423 42.5637 64.5172 42.6075C64.4885 42.6575 64.4885 42.728 64.4885 42.869V45.4579C64.4885 45.5783 64.4885 45.6385 64.5118 45.6845C64.5323 45.725 64.565 45.7579 64.6053 45.7785C64.651 45.8019 64.7109 45.8019 64.8307 45.8019H69.5863C69.7061 45.8019 69.766 45.8019 69.8117 45.7785C69.8519 45.7579 69.8847 45.725 69.9052 45.6845C69.9285 45.6385 69.9285 45.5783 69.9285 45.4579V43.718C69.9285 43.6155 69.9285 43.5642 69.91 43.5225C69.8937 43.4857 69.8676 43.4543 69.8343 43.4317C69.7967 43.4062 69.7465 43.3972 69.6461 43.3792L64.8905 42.5303ZM66.1175 44.64C66.1175 44.6872 66.1175 44.7108 66.1139 44.7303C66.0972 44.8208 66.025 44.8905 65.9344 44.9038C65.915 44.9066 65.8914 44.9057 65.8445 44.9039C65.8008 44.9021 65.779 44.9013 65.7607 44.8973C65.6759 44.8787 65.6106 44.8105 65.5955 44.7245C65.5923 44.706 65.5923 44.684 65.5923 44.64V43.5084C65.5923 43.4574 65.5923 43.4319 65.5963 43.4114C65.6149 43.3159 65.695 43.2449 65.7916 43.2383C65.8123 43.2368 65.8375 43.2401 65.8877 43.2464C65.9279 43.2515 65.948 43.2541 65.9649 43.2591C66.0431 43.2826 66.1012 43.3489 66.1146 43.4299C66.1175 43.4474 66.1175 43.4678 66.1175 43.5084V44.64ZM67.2621 44.7447C67.2621 44.7612 67.2621 44.7693 67.2616 44.7762C67.2545 44.8872 67.1645 44.9744 67.0539 44.9774C67.0471 44.9776 67.039 44.9773 67.0226 44.9767C67.0074 44.9761 66.9998 44.9758 66.9933 44.9752C66.8888 44.9648 66.8072 44.8797 66.8007 44.7743C66.8004 44.7678 66.8004 44.7601 66.8004 44.7447V43.6524C66.8004 43.6347 66.8004 43.6259 66.8009 43.6186C66.8087 43.501 66.9094 43.4117 67.0264 43.4184C67.0336 43.4189 67.0424 43.42 67.0599 43.4222C67.0738 43.4239 67.0808 43.4248 67.0869 43.4259C67.1838 43.4438 67.256 43.5261 67.2617 43.6251C67.2621 43.6312 67.2621 43.6383 67.2621 43.6524V44.7447Z" fill="#FF0002"/>
<path d="M64.9461 38.9331C64.792 38.8777 64.715 38.8499 64.6535 38.8644C64.5997 38.8771 64.5529 38.9103 64.5228 38.9569C64.4885 39.0102 64.4885 39.0924 64.4885 39.257V41.6351C64.4885 41.7352 64.4885 41.7852 64.5063 41.8263C64.522 41.8625 64.5473 41.8937 64.5795 41.9164C64.6159 41.9421 64.6647 41.9522 64.7623 41.9722L69.5178 42.9483C69.6586 42.9772 69.7289 42.9916 69.7839 42.9727C69.8323 42.956 69.873 42.9225 69.8989 42.8783C69.9285 42.8278 69.9285 42.7556 69.9285 42.6113V40.9699C69.9285 40.8827 69.9285 40.8391 69.9142 40.8017C69.9015 40.7688 69.881 40.7395 69.8544 40.7163C69.8242 40.6902 69.7834 40.6755 69.7017 40.6461L64.9461 38.9331ZM66.1175 41.2132C66.1175 41.2684 66.1175 41.2961 66.1131 41.3176C66.0924 41.4184 66.0036 41.4903 65.9012 41.4891C65.8794 41.4889 65.8525 41.4829 65.7989 41.4712C65.7624 41.4632 65.7443 41.4592 65.7289 41.4531C65.6576 41.4254 65.6065 41.3616 65.5948 41.2858C65.5923 41.2694 65.5923 41.2506 65.5923 41.2132V40.0976C65.5923 40.0381 65.5923 40.0084 65.5971 39.9859C65.6198 39.8803 65.7169 39.8081 65.8239 39.8171C65.8467 39.8189 65.875 39.8277 65.9316 39.845C65.9645 39.8551 65.981 39.8602 65.9951 39.8669C66.0598 39.8976 66.1049 39.9589 66.1153 40.0302C66.1175 40.0456 66.1175 40.0629 66.1175 40.0976V41.2132ZM67.2621 41.5312C67.2621 41.5504 67.2621 41.56 67.2615 41.5677C67.2527 41.6922 67.1405 41.783 67.0176 41.7652C67.0101 41.7641 67.0008 41.7621 66.9821 41.7579C66.9695 41.7552 66.9631 41.7538 66.9576 41.7523C66.8688 41.7278 66.8057 41.6489 66.8007 41.5566C66.8004 41.5507 66.8004 41.5442 66.8004 41.5312V40.4525C66.8004 40.4319 66.8004 40.4215 66.801 40.4135C66.8106 40.2826 66.9338 40.1909 67.0611 40.2197C67.0688 40.2214 67.0787 40.2244 67.0984 40.2305C67.1099 40.234 67.1156 40.2358 67.1207 40.2376C67.2018 40.2669 67.2574 40.3424 67.2618 40.429C67.2621 40.4344 67.2621 40.4405 67.2621 40.4525V41.5312Z" fill="#FF0002"/>
<path d="M64.9929 35.3591C64.8266 35.2691 64.7435 35.2241 64.6756 35.2327C64.6163 35.2402 64.5629 35.2723 64.5282 35.3212C64.4885 35.3773 64.4885 35.4721 64.4885 35.662V37.9889C64.4885 38.0741 64.4885 38.1167 64.5023 38.1534C64.5145 38.1859 64.5343 38.2148 64.56 38.2379C64.5891 38.2641 64.6287 38.2793 64.7077 38.31L69.4634 40.1507C69.6195 40.2112 69.6975 40.2413 69.7601 40.2277C69.8147 40.2157 69.8626 40.1827 69.8933 40.1357C69.9285 40.0819 69.9285 39.9978 69.9285 39.8297V38.237C69.9285 38.1624 69.9285 38.125 69.9174 38.0918C69.9076 38.0624 69.8916 38.0354 69.8705 38.0129C69.8467 37.9874 69.8139 37.9696 69.7486 37.9342L64.9929 35.3591ZM66.1244 37.7648C66.1244 37.8287 66.1244 37.8606 66.1193 37.8839C66.0945 37.9947 65.9883 38.067 65.8767 38.0491C65.8532 38.0453 65.8238 38.0334 65.7649 38.0097C65.7356 37.998 65.7209 37.9921 65.7084 37.985C65.6502 37.9519 65.6108 37.8933 65.6018 37.8267C65.5998 37.8123 65.5998 37.7965 65.5998 37.7648V36.6813C65.5998 36.6128 65.5998 36.5786 65.6055 36.5545C65.6322 36.4392 65.7466 36.3674 65.8613 36.3937C65.8853 36.3992 65.916 36.4143 65.9771 36.4443C66.0034 36.4572 66.0166 36.4636 66.0278 36.4711C66.0801 36.5055 66.1148 36.5614 66.1227 36.6238C66.1244 36.6373 66.1244 36.652 66.1244 36.6813V37.7648ZM67.2621 38.2955C67.2621 38.3177 67.2621 38.3289 67.2614 38.3372C67.2508 38.4747 67.116 38.5668 66.9849 38.5259C66.977 38.5235 66.9667 38.5193 66.9461 38.5112C66.9357 38.507 66.9306 38.505 66.926 38.5029C66.8528 38.4696 66.8044 38.3979 66.8006 38.3172C66.8004 38.3122 66.8004 38.3066 66.8004 38.2955V37.2444C66.8004 37.2204 66.8004 37.2085 66.801 37.1999C66.8126 37.0562 66.9586 36.9644 67.092 37.0168C67.1 37.02 67.1107 37.0252 67.1322 37.0357C67.1414 37.0402 67.146 37.0425 67.1502 37.0448C67.2161 37.0807 67.2585 37.1488 67.2619 37.2242C67.2621 37.229 67.2621 37.2341 67.2621 37.2444V38.2955Z" fill="#FF0002"/>
<path d="M60.1539 28.8004C59.9799 28.6782 59.8928 28.6171 59.8203 28.6204C59.7572 28.6233 59.6986 28.654 59.6602 28.7044C59.616 28.7623 59.616 28.869 59.616 29.0824V30.9201C59.616 30.9916 59.616 31.0274 59.6263 31.0595C59.6354 31.0879 59.6503 31.1141 59.6699 31.1364C59.6922 31.1616 59.7228 31.1798 59.784 31.2162L63.9768 33.7087C63.9873 33.7148 63.9924 33.7179 63.9971 33.721C64.0534 33.7587 64.0887 33.8208 64.0923 33.8887C64.0925 33.8943 64.0925 33.9004 64.0925 33.9125C64.0925 33.9452 64.0925 33.9615 64.0913 33.9729C64.0761 34.117 63.9262 34.205 63.7939 34.1474C63.7834 34.1429 63.7693 34.1349 63.741 34.1188L57.6577 30.6632C57.5944 30.6273 57.5628 30.6093 57.5398 30.5839C57.5194 30.5615 57.504 30.535 57.4945 30.5061C57.4839 30.4734 57.4839 30.4368 57.4839 30.3637V26.9615C57.4839 26.7445 57.4839 26.636 57.5286 26.5779C57.5676 26.5273 57.6269 26.4968 57.6905 26.4946C57.7635 26.4921 57.8511 26.5556 58.0261 26.6825L64.0103 31.0194C64.062 31.0569 64.0925 31.117 64.0925 31.181C64.0925 31.342 63.9124 31.4365 63.7811 31.3444L60.1539 28.8004Z" fill="#FF0002"/>
<path d="M41.7961 39.3988C41.6602 39.3776 41.5923 39.3671 41.5394 39.3873C41.493 39.4051 41.4541 39.4385 41.4296 39.4819C41.4016 39.5314 41.4016 39.6005 41.4016 39.7388V43.6523C41.4016 43.7675 41.4016 43.8252 41.4236 43.87C41.4429 43.9095 41.4737 43.9421 41.512 43.9634C41.5556 43.9876 41.6128 43.9904 41.7274 43.9959L48.5223 44.3248C48.6368 44.3304 48.6941 44.3331 48.7376 44.3574C48.7758 44.3787 48.8068 44.4112 48.826 44.4507C48.848 44.4955 48.848 44.5532 48.848 44.6685V45.4572C48.848 45.5776 48.848 45.6378 48.8247 45.6838C48.8041 45.7243 48.7714 45.7572 48.7312 45.7778C48.6855 45.8012 48.6256 45.8012 48.5058 45.8012H39.8605C39.7407 45.8012 39.6808 45.8012 39.6351 45.7778C39.5948 45.7572 39.5621 45.7243 39.5416 45.6838C39.5183 45.6378 39.5183 45.5776 39.5183 45.4572V38.412C39.5183 38.2709 39.5183 38.2004 39.547 38.1505C39.5721 38.1067 39.6119 38.0733 39.6592 38.056C39.7131 38.0363 39.7821 38.0486 39.9203 38.0733L48.5656 39.6167C48.6661 39.6346 48.7162 39.6436 48.7539 39.6692C48.787 39.6917 48.8133 39.7231 48.8295 39.7599C48.848 39.8016 48.848 39.8529 48.848 39.9554V40.0943C48.848 40.2326 48.848 40.3016 48.82 40.3511C48.7954 40.3945 48.7566 40.4279 48.7102 40.4457C48.6574 40.466 48.5894 40.4554 48.4535 40.4342L41.7961 39.3988Z" fill="#FF0002"/>
<path d="M27.8438 4.80568C27.6687 4.67879 27.5812 4.61534 27.5081 4.61784C27.4445 4.62001 27.3852 4.65054 27.3462 4.70112C27.3015 4.75924 27.3015 4.86774 27.3015 5.08474V13.2135C27.3015 13.2866 27.3015 13.3231 27.3121 13.3558C27.3216 13.3847 27.337 13.4112 27.3573 13.4337C27.3804 13.4591 27.412 13.4771 27.4753 13.513L38.1734 19.5922C38.3411 19.6876 38.425 19.7352 38.4937 19.7275C38.5537 19.7208 38.6081 19.6889 38.6434 19.6397C38.6839 19.5834 38.6839 19.4865 38.6839 19.2928V12.8385C38.6839 12.774 38.6839 12.7418 38.6753 12.7123C38.6677 12.6861 38.6553 12.6617 38.6387 12.6403C38.6198 12.616 38.5938 12.5972 38.5418 12.5595L27.8438 4.80568ZM33.1464 14.0886C33.1464 14.2869 33.1464 14.3861 33.1051 14.4429C33.069 14.4923 33.0136 14.524 32.9529 14.5298C32.8833 14.5365 32.7985 14.4857 32.6291 14.3841L29.0878 12.2616C29.0269 12.225 28.9965 12.2068 28.9744 12.1817C28.9549 12.1594 28.94 12.1332 28.931 12.1049C28.9209 12.0729 28.9209 12.0373 28.9209 11.9661V7.91051C28.9209 7.69916 28.9209 7.59345 28.9646 7.53575C29.0027 7.48544 29.0609 7.45455 29.1237 7.45133C29.1958 7.4476 29.2825 7.50723 29.4561 7.62648L32.9974 10.0602C33.0519 10.0977 33.0792 10.1164 33.099 10.141C33.1164 10.1627 33.1295 10.1876 33.1375 10.2144C33.1464 10.2445 33.1464 10.2778 33.1464 10.3442V14.0886Z" fill="#FF0002"/>
<path d="M27.8059 15.2225C27.6397 15.1325 27.5565 15.0874 27.4886 15.096C27.4293 15.1035 27.3759 15.1356 27.3412 15.1845C27.3015 15.2405 27.3015 15.3355 27.3015 15.5253V23.5979C27.3015 23.6831 27.3015 23.7257 27.3153 23.7624C27.3275 23.7948 27.3473 23.8238 27.373 23.8469C27.4021 23.873 27.4417 23.8883 27.5208 23.9189L38.2188 28.0589C38.3749 28.1192 38.453 28.1495 38.5155 28.1358C38.5702 28.1238 38.618 28.0908 38.6487 28.0438C38.6839 27.99 38.6839 27.9059 38.6839 27.7378V21.3183C38.6839 21.2436 38.6839 21.2062 38.6728 21.173C38.663 21.1436 38.6471 21.1167 38.626 21.0941C38.6021 21.0685 38.5694 21.0508 38.5039 21.0154L27.8059 15.2225ZM33.1464 23.634C33.1464 23.8061 33.1464 23.8922 33.1104 23.9465C33.0789 23.9938 33.03 24.0267 32.9744 24.0378C32.9108 24.0506 32.8317 24.0177 32.6735 23.9518L29.1321 22.4779C29.0558 22.4461 29.0176 22.4302 28.9896 22.4042C28.9648 22.3812 28.9457 22.3526 28.9341 22.3207C28.9209 22.2847 28.9209 22.2431 28.9209 22.1601V18.0443C28.9209 17.8599 28.9209 17.7676 28.9595 17.7121C28.9933 17.6636 29.0454 17.6313 29.1036 17.6227C29.1703 17.6128 29.2523 17.6541 29.4163 17.7367L32.9576 19.5212C33.0262 19.5558 33.0605 19.573 33.0855 19.5988C33.1077 19.6216 33.1245 19.649 33.1348 19.6791C33.1464 19.7132 33.1464 19.7516 33.1464 19.8288V23.634Z" fill="#FF0002"/>
<path d="M27.7591 25.5355C27.605 25.48 27.5281 25.4523 27.4665 25.4668C27.4127 25.4795 27.3659 25.5126 27.3359 25.5593C27.3015 25.6126 27.3015 25.6948 27.3015 25.8594V34.0046C27.3015 34.1047 27.3015 34.1548 27.3193 34.1959C27.335 34.232 27.3603 34.2632 27.3925 34.2859C27.429 34.3117 27.4777 34.3217 27.5752 34.3417L38.2733 36.5369C38.414 36.5658 38.4843 36.5803 38.5394 36.5613C38.5877 36.5446 38.6285 36.5111 38.6543 36.4669C38.6839 36.4164 38.6839 36.3443 38.6839 36.1998V29.7137C38.6839 29.6265 38.6839 29.5828 38.6696 29.5455C38.6569 29.5125 38.6364 29.4832 38.6098 29.4601C38.5796 29.434 38.5388 29.4193 38.4572 29.3898L27.7591 25.5355ZM33.1464 33.0886C33.1464 33.2367 33.1464 33.3107 33.116 33.3618C33.0893 33.4065 33.0474 33.44 32.998 33.4559C32.9416 33.4741 32.8699 33.4572 32.7264 33.4236L29.1852 32.5917C29.0908 32.5695 29.0436 32.5584 29.0084 32.5326C28.9773 32.5097 28.953 32.4789 28.938 32.4433C28.9209 32.4029 28.9209 32.3542 28.9209 32.2567V28.0984C28.9209 27.939 28.9209 27.8592 28.954 27.8066C28.9831 27.7604 29.0284 27.7272 29.081 27.7134C29.141 27.6978 29.2165 27.7222 29.3675 27.7709L32.9089 28.9132C32.9943 28.9408 33.037 28.9546 33.0685 28.9807C33.0964 29.0038 33.1181 29.0336 33.1314 29.0674C33.1464 29.1056 33.1464 29.1507 33.1464 29.2408V33.0886Z" fill="#FF0002"/>
<path d="M27.7035 35.8925C27.5653 35.8678 27.4963 35.8555 27.4424 35.8751C27.3951 35.8924 27.3554 35.9259 27.3302 35.9697C27.3015 36.0196 27.3015 36.0901 27.3015 36.2312V45.458C27.3015 45.5784 27.3015 45.6386 27.3248 45.6846C27.3454 45.725 27.3781 45.7579 27.4183 45.7786C27.464 45.802 27.5239 45.802 27.6437 45.802H38.3417C38.4615 45.802 38.5214 45.802 38.5671 45.7786C38.6074 45.7579 38.6401 45.725 38.6605 45.6846C38.6839 45.6386 38.6839 45.5784 38.6839 45.458V38.1408C38.6839 38.0383 38.6839 37.9871 38.6654 37.9454C38.6491 37.9085 38.6229 37.8771 38.5898 37.8545C38.5521 37.829 38.5019 37.82 38.4016 37.8021L27.7035 35.8925ZM33.1464 42.4883C33.1464 42.6147 33.1464 42.6779 33.1216 42.7251C33.0997 42.7667 33.0649 42.7998 33.0225 42.8196C32.9742 42.842 32.9114 42.8387 32.7859 42.8318L29.2445 42.6396C29.1307 42.6334 29.0738 42.6303 29.0305 42.6061C28.9924 42.5847 28.9618 42.5522 28.9426 42.5129C28.9209 42.4681 28.9209 42.4108 28.9209 42.2961V38.1152C28.9209 37.9786 28.9209 37.9103 28.9484 37.8611C28.9726 37.818 29.0109 37.7845 29.0568 37.7665C29.109 37.7459 29.1763 37.7555 29.3108 37.7746L32.8522 38.2773C32.9565 38.2921 33.0087 38.2995 33.0479 38.3248C33.0825 38.3471 33.11 38.3788 33.1271 38.4164C33.1464 38.459 33.1464 38.512 33.1464 38.6179V42.4883Z" fill="#FF0002"/>
</svg>
