<svg width="48" height="44" viewBox="0 0 48 44" fill="none" xmlns="http://www.w3.org/2000/svg">
<g clip-path="url(#clip0_109_165)">
<path d="M3.76561 32.7196L2.64783 32.7261C2.58568 32.7264 2.55459 32.7266 2.52838 32.7373C2.50523 32.7468 2.48488 32.7622 2.46926 32.7819C2.45157 32.8041 2.44257 32.8341 2.42458 32.8941L0.0919014 40.6709C0.0607523 40.7748 0.0451776 40.8267 0.0563365 40.8678C0.0661085 40.9037 0.0890033 40.9347 0.120433 40.9543C0.156323 40.9768 0.210136 40.9765 0.317761 40.9759L1.87933 40.9674C1.94567 40.967 1.97885 40.9668 2.00627 40.9549C2.03046 40.9443 2.05139 40.9274 2.06686 40.906C2.0844 40.8816 2.09184 40.849 2.10671 40.7838L2.37491 39.608C2.38977 39.5428 2.39721 39.5103 2.41474 39.4859C2.43021 39.4644 2.45114 39.4476 2.47532 39.437C2.50274 39.4251 2.53591 39.4249 2.60224 39.4245L4.2221 39.4153C4.28846 39.4149 4.32164 39.4147 4.34919 39.4264C4.3735 39.4366 4.39462 39.4533 4.41033 39.4746C4.42813 39.4988 4.43592 39.5313 4.45149 39.5963L4.73236 40.769C4.74793 40.834 4.75572 40.8665 4.77352 40.8907C4.78923 40.912 4.81034 40.9287 4.83464 40.939C4.86219 40.9506 4.89537 40.9504 4.9617 40.95L6.52302 40.9414C6.6307 40.9408 6.68457 40.9405 6.72025 40.9177C6.75143 40.8977 6.77402 40.8665 6.7834 40.8304C6.79406 40.7892 6.77788 40.7374 6.74552 40.6339L4.32257 32.8831C4.30389 32.8234 4.29455 32.7935 4.2766 32.7714C4.26076 32.7519 4.24024 32.7368 4.21699 32.7276C4.19065 32.7171 4.15958 32.7173 4.09743 32.7177L3.76561 32.7196ZM3.06279 37.8886C2.96163 37.8892 2.91105 37.8895 2.8761 37.8686C2.84547 37.8503 2.82249 37.8213 2.81146 37.7872C2.79888 37.7483 2.81021 37.6985 2.83287 37.5992L3.16572 36.1393C3.23078 35.8539 3.26331 35.7113 3.31672 35.6789C3.36271 35.651 3.42013 35.6507 3.46643 35.678C3.52018 35.7098 3.55427 35.8521 3.62245 36.1368L3.97124 37.593C3.99499 37.6921 4.00687 37.7417 3.99471 37.7808C3.98405 37.815 3.96138 37.8442 3.93094 37.8629C3.89621 37.8841 3.84562 37.8844 3.74444 37.885L3.06279 37.8886Z" fill="white"/>
<path d="M11.8562 39.6966C11.8558 39.6138 11.8555 39.5724 11.8394 39.5409C11.8252 39.5131 11.8026 39.4906 11.7749 39.4766C11.7435 39.4607 11.7024 39.4609 11.6203 39.4614L9.32828 39.4741C9.24616 39.4745 9.2051 39.4747 9.17367 39.4588C9.146 39.4448 9.12342 39.4223 9.1092 39.3945C9.09307 39.363 9.09282 39.3216 9.09238 39.2388L9.05831 33.0025C9.05787 32.9197 9.05763 32.8783 9.0415 32.8468C9.02728 32.819 9.00469 32.7966 8.97703 32.7825C8.9456 32.7666 8.90449 32.7668 8.82237 32.7673L7.37211 32.7755C7.28999 32.7759 7.24893 32.7762 7.21765 32.7925C7.19013 32.8068 7.16784 32.8295 7.15396 32.8574C7.13812 32.8892 7.13836 32.9305 7.1388 33.0133L7.18167 40.7771C7.18211 40.8599 7.18235 40.9013 7.19849 40.9328C7.21271 40.9606 7.23529 40.9831 7.26296 40.9971C7.29439 41.013 7.33545 41.0128 7.41756 41.0123L8.42845 41.0067L8.63032 41.0053L9.10201 41.0028L11.6286 40.9888C11.7107 40.9884 11.7518 40.9881 11.7831 40.9718C11.8106 40.9575 11.8329 40.9348 11.8468 40.9069C11.8626 40.8752 11.8624 40.8338 11.8619 40.751L11.8562 39.6966Z" fill="white"/>
<path d="M16.6824 33.1198C16.6822 33.1198 16.682 33.1198 16.6819 33.1197C16.2709 32.8808 15.7831 32.7626 15.2182 32.766L12.6016 32.7805C12.5195 32.7809 12.4784 32.7812 12.4472 32.7974C12.4197 32.8118 12.3973 32.8345 12.3834 32.8624C12.3676 32.8941 12.3679 32.9355 12.3683 33.0183L12.4107 40.7821C12.4112 40.8649 12.4114 40.9063 12.4275 40.9378C12.4417 40.9655 12.4643 40.988 12.492 41.002C12.5234 41.018 12.5645 41.0178 12.6466 41.0173L14.0969 41.0091C14.179 41.0086 14.2201 41.0084 14.2513 40.9921C14.2789 40.9778 14.3012 40.9551 14.3151 40.9272C14.3309 40.8955 14.3307 40.8541 14.3302 40.7713L14.3176 38.4495C14.3172 38.3667 14.3169 38.3253 14.3328 38.2936C14.3467 38.2658 14.3689 38.243 14.3965 38.2287C14.4278 38.2124 14.4688 38.2121 14.5509 38.2117L15.248 38.2076C15.8131 38.2047 16.2999 38.0913 16.708 37.8686C17.1167 37.6459 17.431 37.3355 17.6514 36.9384C17.8719 36.5412 17.9809 36.0766 17.9779 35.545C17.975 35.006 17.8611 34.5265 17.6363 34.1072C17.4115 33.688 17.0933 33.3589 16.6828 33.1199C16.6827 33.1198 16.6825 33.1198 16.6824 33.1198ZM15.9575 36.1365C15.9576 36.1367 15.9577 36.1369 15.9576 36.1371C15.9043 36.3049 15.8188 36.4364 15.7016 36.5314C15.5843 36.6265 15.4303 36.6743 15.2392 36.6753L14.5422 36.6793C14.4601 36.6798 14.419 36.68 14.3875 36.6641C14.3599 36.6501 14.3373 36.6276 14.3231 36.5999C14.3069 36.5683 14.3067 36.5269 14.3062 36.4442L14.2957 34.5413C14.2952 34.4585 14.2949 34.4171 14.3108 34.3854C14.3247 34.3575 14.347 34.3348 14.3745 34.3204C14.4058 34.3041 14.4468 34.3039 14.5289 34.3034L15.226 34.2994C15.4166 34.2984 15.5716 34.357 15.6899 34.4748C15.8082 34.593 15.8952 34.7482 15.9504 34.9399C16.0056 35.1321 16.034 35.341 16.0355 35.5671C16.0364 35.7784 16.0105 35.968 15.9573 36.1359C15.9573 36.1361 15.9573 36.1363 15.9575 36.1365Z" fill="white"/>
<path d="M23.1285 34.2509C23.2107 34.2504 23.2517 34.2502 23.283 34.2339C23.3105 34.2195 23.3328 34.1968 23.3467 34.1689C23.3625 34.1372 23.3623 34.0958 23.3619 34.013L23.3561 32.9532C23.3557 32.8704 23.3555 32.829 23.3393 32.7975C23.3251 32.7698 23.3026 32.7473 23.2748 32.7332C23.2434 32.7173 23.2024 32.7175 23.1202 32.718L20.6161 32.732L18.9317 32.7415C18.8496 32.7419 18.8085 32.7422 18.7772 32.7585C18.7497 32.7728 18.7274 32.7955 18.7135 32.8234C18.6977 32.8551 18.6979 32.8965 18.6984 32.9793L18.7408 40.7431C18.7412 40.8259 18.7414 40.8673 18.7576 40.8988C18.7718 40.9266 18.7944 40.949 18.822 40.9631C18.8535 40.979 18.8946 40.9788 18.9767 40.9783L20.427 40.9701C20.5091 40.9696 20.5501 40.9694 20.5814 40.9531C20.6089 40.9388 20.6312 40.9161 20.6452 40.8882C20.6609 40.8564 20.6607 40.8151 20.6603 40.7323L20.6448 37.9242C20.6443 37.8414 20.6441 37.8 20.6599 37.7684C20.6738 37.7405 20.6961 37.7177 20.7236 37.7034C20.7549 37.6871 20.796 37.6869 20.8781 37.6864L22.9174 37.6748C22.9996 37.6743 23.0406 37.6741 23.0718 37.6578C23.0994 37.6435 23.1217 37.6207 23.1356 37.5929C23.1514 37.5612 23.1512 37.5198 23.1507 37.437L23.145 36.3826C23.1445 36.2998 23.1443 36.2584 23.1282 36.2268C23.1139 36.1991 23.0914 36.1766 23.0637 36.1626C23.0323 36.1467 22.9911 36.1469 22.909 36.1474L20.8698 36.159C20.7876 36.1594 20.7466 36.1597 20.7152 36.1438C20.6875 36.1297 20.6649 36.1072 20.6507 36.0795C20.6346 36.048 20.6343 36.0066 20.6338 35.9238L20.6258 34.5014C20.6253 34.4185 20.6251 34.3772 20.6409 34.3455C20.6548 34.3175 20.6771 34.2948 20.7046 34.2805C20.7359 34.2642 20.7769 34.264 20.8591 34.2635L23.1285 34.2509Z" fill="white"/>
<path d="M29.6079 34.5516C29.4573 34.0998 29.2486 33.7239 28.9817 33.4238C28.7143 33.1237 28.3942 32.8971 28.0212 32.7448C27.6483 32.5921 27.2372 32.5172 26.788 32.5197C26.3353 32.5221 25.9243 32.6019 25.5547 32.7586C25.1852 32.9153 24.8675 33.1454 24.6016 33.4484C24.3357 33.7519 24.1309 34.1299 23.9876 34.5832C23.8444 35.0365 23.774 35.5593 23.7775 36.1515L23.7843 37.3961C23.7877 37.9884 23.8635 38.5082 24.0116 38.9561C24.1602 39.404 24.3699 39.7794 24.6407 40.081C24.9115 40.383 25.2331 40.6096 25.6041 40.7604C25.9751 40.9112 26.3872 40.9851 26.8398 40.9826C27.289 40.9802 27.6971 40.9013 28.0647 40.7466C28.4323 40.5919 28.75 40.3618 29.0179 40.0568C29.2857 39.7518 29.491 39.3744 29.6347 38.9245C29.7784 38.4752 29.8483 37.9539 29.8449 37.3621L29.8381 36.1175C29.8347 35.5253 29.7579 35.0035 29.6079 34.5516ZM27.8352 38.3099C27.8352 38.3099 27.8354 38.3099 27.8354 38.31C27.7919 38.5685 27.7264 38.7808 27.6399 38.9472C27.5529 39.1137 27.4415 39.2359 27.3051 39.3138C27.1687 39.3921 27.0109 39.4315 26.8315 39.4325C26.6443 39.4335 26.4815 39.3956 26.3427 39.3192C26.2039 39.2428 26.09 39.1216 26.001 38.9561C25.912 38.7905 25.8465 38.5786 25.804 38.321C25.7615 38.0628 25.739 37.7509 25.7371 37.3848L25.7302 36.1288C25.7283 35.7593 25.7468 35.4444 25.7869 35.1838C25.8265 34.9231 25.89 34.7118 25.9771 34.5492C26.0641 34.3866 26.1745 34.2673 26.3089 34.191C26.4434 34.1146 26.6057 34.0762 26.7963 34.0752C26.9796 34.0742 27.1389 34.1111 27.2738 34.1855C27.4087 34.2604 27.5217 34.3787 27.6126 34.5403C27.7035 34.7019 27.7719 34.9128 27.8179 35.173C27.8643 35.4326 27.8883 35.748 27.8902 36.1175L27.8971 37.3734C27.899 37.7389 27.8785 38.0512 27.835 38.3098C27.835 38.3099 27.8351 38.31 27.8352 38.3099Z" fill="white"/>
<path d="M34.8764 37.5794H34.8766C35.0544 37.473 35.2157 37.3503 35.3594 37.2103C35.5715 37.0034 35.7358 36.7413 35.8516 36.424C35.9679 36.1067 36.0246 35.712 36.0217 35.2404C36.0188 34.6975 35.9088 34.2417 35.6913 33.8731C35.4743 33.5046 35.1648 33.2272 34.7635 33.0409C34.3622 32.8547 33.8886 32.763 33.3421 32.766L30.7818 32.7805C30.6997 32.7809 30.6586 32.7812 30.6273 32.7974C30.5998 32.8118 30.5775 32.8345 30.5636 32.8624C30.5478 32.8941 30.548 32.9355 30.5485 33.0183L30.5909 40.7821C30.5913 40.8649 30.5916 40.9062 30.6077 40.9378C30.6219 40.9655 30.6444 40.988 30.6722 41.002C30.7036 41.018 30.7446 41.0178 30.8268 41.0173L32.277 41.0091C32.3591 41.0086 32.4003 41.0084 32.4315 40.9921C32.459 40.9778 32.4813 40.955 32.4952 40.9271C32.511 40.8955 32.5108 40.8541 32.5103 40.7713L32.4968 38.3368C32.4964 38.254 32.4962 38.2126 32.5119 38.1809C32.5259 38.153 32.5482 38.1302 32.5757 38.1159C32.607 38.0996 32.6481 38.0994 32.7302 38.099L32.8818 38.0981C32.9392 38.0978 32.9678 38.0976 32.9926 38.1069C33.0146 38.1149 33.0343 38.1282 33.0501 38.1456C33.0679 38.1652 33.0788 38.1919 33.1004 38.2455L34.1523 40.8502C34.174 40.9037 34.1848 40.9305 34.2026 40.9501C34.2185 40.9674 34.2382 40.9807 34.2601 40.9888C34.285 40.998 34.3136 40.9978 34.3709 40.9976L36.2022 40.9874C36.2408 40.9873 36.272 40.9556 36.272 40.9167C36.272 40.9072 36.2701 40.8978 36.2665 40.8891L34.8762 37.5798C34.8761 37.5796 34.8762 37.5794 34.8764 37.5794ZM32.4762 34.3039C32.476 34.304 32.4761 34.3043 32.4763 34.3043L33.3509 34.2993C33.5196 34.2984 33.6569 34.3427 33.7644 34.4329C33.8715 34.523 33.9536 34.6526 34.0108 34.8221C34.068 34.9916 34.0968 35.1951 34.0983 35.4326C34.0998 35.6666 34.0719 35.8677 34.0147 36.0357C33.9575 36.2037 33.8715 36.3333 33.7561 36.4245C33.6408 36.5156 33.4951 36.5614 33.3191 36.5624L32.7232 36.5656C32.6412 36.5661 32.6001 36.5663 32.5686 36.5503C32.541 36.5363 32.5184 36.5138 32.5042 36.4861C32.4881 36.4546 32.4878 36.4132 32.4874 36.3304L32.4765 34.3041C32.4765 34.304 32.4763 34.3039 32.4762 34.3039Z" fill="white"/>
<path d="M40.532 38.916C40.532 38.9159 40.5319 38.9159 40.5319 38.9159C40.4547 39.1104 40.3393 39.2448 40.1864 39.3192C40.0334 39.3937 39.8482 39.4316 39.6317 39.4326C39.4259 39.4336 39.2582 39.3991 39.1287 39.3281C38.9991 39.2572 38.8975 39.1399 38.8237 38.9763C38.7499 38.8127 38.699 38.5969 38.6712 38.3293C38.6433 38.0618 38.6286 37.7297 38.6262 37.334L38.6198 36.1742C38.6179 35.7859 38.6325 35.4578 38.6648 35.1898C38.6971 34.9217 38.7499 34.7054 38.8242 34.5408C38.898 34.3762 38.9967 34.258 39.1194 34.1856C39.2426 34.1132 39.3936 34.0766 39.5735 34.0757C39.8355 34.0742 40.0462 34.1156 40.2055 34.1993C40.3648 34.2836 40.4768 34.428 40.5418 34.6329C40.5905 34.7882 40.6161 34.9868 40.6185 35.2293C40.6195 35.3209 40.6199 35.3666 40.6361 35.398C40.6509 35.4267 40.6719 35.4475 40.7006 35.4619C40.7319 35.4778 40.7749 35.4776 40.8608 35.4771L42.2927 35.469C42.3764 35.4685 42.4182 35.4683 42.4507 35.4505C42.4783 35.4353 42.5021 35.4091 42.5147 35.3801C42.5296 35.346 42.5264 35.3058 42.52 35.2256C42.4791 34.7098 42.3572 34.2603 42.1539 33.8771C41.9192 33.4352 41.5854 33.0977 41.1523 32.8646C40.7187 32.6315 40.1899 32.5162 39.5647 32.5197C39.1194 32.5222 38.7166 32.6074 38.3569 32.7754C37.9966 32.9434 37.6911 33.1863 37.4404 33.5046C37.1896 33.8229 36.997 34.2087 36.8631 34.662C36.7292 35.1154 36.6637 35.6268 36.6666 36.1964L36.673 37.3449C36.6759 37.9184 36.7424 38.4298 36.8724 38.8797C37.0019 39.3295 37.193 39.7124 37.4457 40.0278C37.6985 40.3431 38.0079 40.583 38.3759 40.7466C38.7435 40.9107 39.1648 40.9911 39.64 40.9886C40.2275 40.9851 40.7393 40.8713 41.1758 40.6461C41.6123 40.421 41.95 40.0903 42.189 39.6533C42.3972 39.2727 42.5119 38.8233 42.5333 38.3052C42.5364 38.2273 42.538 38.1884 42.5225 38.1553C42.5092 38.1273 42.4851 38.102 42.4577 38.0877C42.4255 38.0708 42.3848 38.071 42.3034 38.0715L40.7585 38.0802C40.6816 38.0806 40.621 38.146 40.6227 38.2235C40.629 38.5166 40.5987 38.7477 40.532 38.916C40.532 38.916 40.532 38.916 40.532 38.916Z" fill="white"/>
<path d="M47.7211 40.9548C47.8032 40.9543 47.8442 40.9541 47.8755 40.9378C47.903 40.9235 47.9253 40.9008 47.9392 40.8729C47.955 40.8412 47.9548 40.7998 47.9544 40.717L47.9486 39.6626C47.9482 39.5798 47.9479 39.5384 47.9318 39.5069C47.9176 39.4791 47.895 39.4567 47.8674 39.4426C47.8359 39.4267 47.7948 39.4269 47.7127 39.4274L45.2746 39.441C45.1925 39.4415 45.1514 39.4417 45.1199 39.4258C45.0923 39.4117 45.0697 39.3893 45.0555 39.3615C45.0393 39.33 45.0391 39.2886 45.0386 39.2058L45.0305 37.7158C45.03 37.6331 45.0298 37.5917 45.0456 37.5599C45.0595 37.532 45.0819 37.5093 45.1094 37.495C45.1406 37.4787 45.1817 37.4785 45.2638 37.478L47.2361 37.4669C47.3182 37.4664 47.3593 37.4662 47.3906 37.4499C47.4181 37.4355 47.4404 37.4128 47.4543 37.3849C47.4701 37.3532 47.4699 37.3118 47.4694 37.229L47.4638 36.2254C47.4633 36.1426 47.4631 36.1012 47.4469 36.0696C47.4327 36.0419 47.4101 36.0194 47.3825 36.0054C47.351 35.9895 47.3099 35.9897 47.2278 35.9902L45.256 36.0013C45.1738 36.0018 45.1328 36.002 45.1014 35.9861C45.0737 35.972 45.0511 35.9496 45.0369 35.9218C45.0208 35.8903 45.0205 35.8489 45.0201 35.7661L45.0129 34.5024C45.0125 34.4195 45.0122 34.3781 45.028 34.3464C45.042 34.3185 45.0643 34.2958 45.0918 34.2815C45.1231 34.2652 45.1641 34.265 45.2463 34.2645L47.701 34.2508C47.7831 34.2504 47.8242 34.2502 47.8554 34.2339C47.883 34.2195 47.9052 34.1968 47.9192 34.1689C47.935 34.1372 47.9348 34.0958 47.9343 34.013L47.9286 32.9532C47.9281 32.8704 47.9279 32.829 47.9117 32.7975C47.8975 32.7697 47.875 32.7473 47.8473 32.7332C47.8158 32.7173 47.7748 32.7175 47.6927 32.718L45.0033 32.7329L43.3184 32.7425C43.2363 32.7429 43.1952 32.7431 43.164 32.7595C43.1364 32.7738 43.1141 32.7965 43.1002 32.8244C43.0844 32.8561 43.0846 32.8975 43.0851 32.9803L43.1279 40.744C43.1284 40.8268 43.1286 40.8683 43.1448 40.8998C43.159 40.9275 43.1816 40.95 43.2093 40.964C43.2407 40.98 43.2818 40.9797 43.3639 40.9792L44.3803 40.9732C44.3805 40.9732 44.3806 40.9733 44.3806 40.9735C44.3806 40.9736 44.3807 40.9737 44.3808 40.9737L47.7211 40.9548Z" fill="white"/>
<path d="M47.8045 42.0291H0.14664C0.0656528 42.0291 0 42.0953 0 42.1769V43.8522C0 43.9338 0.0656528 44 0.14664 44H47.8045C47.8855 44 47.9511 43.9338 47.9511 43.8522V42.1769C47.9511 42.0953 47.8855 42.0291 47.8045 42.0291Z" fill="white"/>
<path d="M17.6648 0.132263C17.7729 0.0879817 17.827 0.0658418 17.8704 0.0747645C17.9084 0.0825662 17.9417 0.105204 17.9632 0.137729C17.9877 0.174926 17.9877 0.233741 17.9877 0.351372V1.89348C17.9877 1.95098 17.9877 1.97972 17.9786 2.00461C17.9705 2.02661 17.9573 2.04635 17.9401 2.06219C17.9207 2.08012 17.8943 2.09094 17.8414 2.11259L0.323347 9.28758C0.215264 9.33188 0.161223 9.354 0.117801 9.34508C0.0798322 9.3373 0.0464693 9.31463 0.0250012 9.28212C0.000449664 9.24496 0.000434315 9.18613 0.000403617 9.06857L1.17915e-06 7.52689C-1.38338e-05 7.46934 -2.13411e-05 7.44062 0.00914277 7.41569C0.0172406 7.39371 0.0304188 7.37395 0.0475872 7.35814C0.0670164 7.3402 0.0934448 7.32936 0.146302 7.30768L17.6648 0.132263Z" fill="white"/>
<path d="M0.146965 10.1869C0.0938928 10.2085 0.0673564 10.2193 0.0478414 10.2372C0.0305974 10.2531 0.0173545 10.2728 0.00921336 10.2949C0 10.3198 0 10.3487 0 10.4063V14.6495C0 14.7591 0 14.8139 0.0227439 14.8502C0.0426566 14.8818 0.0737856 14.9048 0.109818 14.9142C0.150974 14.9249 0.20276 14.9082 0.306331 14.8746L8.64024 12.1781C8.6988 12.1591 8.72808 12.1497 8.74974 12.1317C8.76885 12.1158 8.78371 12.0953 8.79285 12.0721C8.80316 12.0458 8.80316 12.0148 8.80316 11.9529V7.02264C8.80316 6.90533 8.80316 6.84669 8.77872 6.80954C8.75731 6.77707 8.72402 6.7544 8.68614 6.74652C8.64279 6.73755 8.58882 6.75943 8.4809 6.80328L0.146965 10.1869ZM8.03018 10.7965C8.03018 10.7962 8.02993 10.7961 8.02969 10.7961L6.05088 11.4758C5.94618 11.5118 5.89388 11.5297 5.85219 11.5194C5.81567 11.5103 5.784 11.4875 5.76376 11.4556C5.74059 11.4191 5.7406 11.3634 5.7406 11.2519V8.90168C5.7406 8.8433 5.7406 8.81408 5.74998 8.78895C5.75829 8.76668 5.77178 8.74677 5.78933 8.73091C5.80922 8.71297 5.8362 8.70238 5.89017 8.68124L7.71055 7.96788C7.81774 7.92585 7.87137 7.90486 7.91433 7.91417C7.95192 7.9223 7.98482 7.94502 8.00598 7.97739C8.03018 8.01439 8.03018 8.07234 8.03018 8.18832V10.7965Z" fill="white"/>
<path d="M0.165913 15.7129C0.106358 15.7313 0.07658 15.7405 0.0545152 15.7585C0.0350363 15.7743 0.0199088 15.7949 0.0105739 15.8183C0 15.8449 0 15.8763 0 15.939V20.2993C0 20.4012 0 20.4522 0.0208932 20.4873C0.0392094 20.5181 0.0680075 20.5411 0.101914 20.552C0.140592 20.5645 0.189798 20.5528 0.28821 20.5296L8.62216 18.5588C8.68678 18.5435 8.71914 18.5359 8.74323 18.518C8.7645 18.5023 8.78117 18.4811 8.79148 18.4567C8.80316 18.429 8.80316 18.3955 8.80316 18.3285V13.3661C8.80316 13.2578 8.80316 13.2036 8.78077 13.1676C8.76112 13.1361 8.73038 13.1131 8.6947 13.1034C8.65393 13.0924 8.60256 13.1082 8.49986 13.1399L0.165913 15.7129ZM8.03018 17.0925C8.03018 17.0923 8.02993 17.0921 8.02969 17.0922L6.02952 17.5721C5.93088 17.5957 5.88161 17.6076 5.8428 17.5951C5.80883 17.5843 5.77994 17.5613 5.76156 17.5304C5.7406 17.4953 5.7406 17.4442 5.7406 17.342V14.9773C5.7406 14.9133 5.7406 14.8814 5.75145 14.8545C5.76108 14.8308 5.77662 14.81 5.79656 14.7942C5.81919 14.7762 5.84969 14.7675 5.91065 14.7499L7.73103 14.2249C7.83255 14.1957 7.88334 14.181 7.92352 14.1925C7.95871 14.2026 7.98892 14.2255 8.00818 14.2568C8.03018 14.2926 8.03018 14.3458 8.03018 14.4523V17.0925Z" fill="white"/>
<path d="M0.184274 21.3472C0.118535 21.3618 0.0856644 21.3691 0.0611228 21.3868C0.0394766 21.4025 0.0224737 21.4238 0.0119412 21.4485C0 21.4764 0 21.5104 0 21.5782V25.9201C0 26.0144 0 26.0616 0.0189885 26.0954C0.035657 26.1252 0.0620168 26.1481 0.0935917 26.1605C0.129561 26.1745 0.175836 26.1678 0.268387 26.1542L8.60231 24.9325C8.67358 24.9221 8.70917 24.9169 8.73595 24.8995C8.75956 24.8841 8.77833 24.8623 8.78996 24.8365C8.80316 24.8073 8.80316 24.7711 8.80316 24.6985V19.7325C8.80316 19.6318 8.80316 19.5815 8.78263 19.5466C8.76455 19.516 8.7362 19.493 8.70266 19.4819C8.66439 19.4691 8.61566 19.4799 8.51819 19.5015L0.184274 21.3472ZM8.03018 23.1784C8.03018 23.2516 8.03018 23.2882 8.01678 23.3176C8.00495 23.3435 7.98599 23.3654 7.96209 23.3807C7.93501 23.398 7.89898 23.4029 7.82703 23.4127L6.00665 23.6611C5.9148 23.6736 5.8689 23.6799 5.83322 23.6657C5.80194 23.6532 5.77584 23.6302 5.75937 23.6006C5.7406 23.5669 5.7406 23.5202 5.7406 23.4267V21.0479C5.7406 20.9791 5.7406 20.9447 5.75277 20.9165C5.76352 20.8916 5.78087 20.8702 5.80287 20.8546C5.82785 20.8369 5.86128 20.83 5.9281 20.8162L7.74843 20.4401C7.84497 20.4201 7.89321 20.4102 7.931 20.4232C7.96414 20.4347 7.99215 20.4577 8.00989 20.4881C8.03018 20.5228 8.03018 20.5725 8.03018 20.6718V23.1784Z" fill="white"/>
<path d="M0.204253 26.957C0.131905 26.9665 0.0957302 26.9713 0.0684855 26.9886C0.04448 27.0038 0.0253762 27.0258 0.01349 27.0518C0 27.0812 0 27.118 0 27.1915V31.2524C0 31.3351 0 31.3765 0.0159827 31.4082C0.0300416 31.4359 0.0524745 31.4586 0.0800666 31.4728C0.111434 31.4889 0.152497 31.4889 0.234623 31.4889H8.56854C8.65071 31.4889 8.69176 31.4889 8.7231 31.4728C8.75071 31.4586 8.77315 31.4359 8.78718 31.4082C8.80316 31.3765 8.80316 31.3351 8.80316 31.2524V26.0949C8.80316 26.0019 8.80316 25.9553 8.78449 25.9217C8.76811 25.8921 8.74216 25.8692 8.71097 25.8566C8.67549 25.8423 8.62974 25.8483 8.53818 25.8604L0.204253 26.957ZM8.03018 29.4406C8.03018 29.5195 8.03018 29.5589 8.01522 29.5896C8.00207 29.6167 7.98105 29.6391 7.95495 29.6538C7.92528 29.6704 7.88618 29.6725 7.80807 29.6767L5.98768 29.7747C5.90165 29.7793 5.85864 29.7816 5.82555 29.7662C5.79651 29.7526 5.77266 29.7298 5.75765 29.7013C5.74059 29.6688 5.7406 29.6253 5.7406 29.5385V27.1592C5.7406 27.0836 5.74059 27.0459 5.75457 27.0159C5.76694 26.9896 5.78679 26.9675 5.81157 26.9524C5.83972 26.9353 5.87697 26.9315 5.95146 26.9239L7.7718 26.7374C7.86134 26.7282 7.90607 26.7237 7.94068 26.7384C7.97108 26.7514 7.99625 26.7743 8.01209 26.8034C8.03018 26.8366 8.03018 26.882 8.03018 26.9727V29.4406Z" fill="white"/>
<path d="M9.71095 6.30383C9.65786 6.32541 9.63132 6.33615 9.61182 6.35409C9.59456 6.36995 9.58132 6.38971 9.5732 6.41174C9.56396 6.43672 9.56396 6.46554 9.56396 6.52324V11.5552C9.56396 11.6649 9.56396 11.7197 9.58669 11.7559C9.60664 11.7876 9.63777 11.8105 9.6738 11.8199C9.71495 11.8307 9.76672 11.8139 9.87029 11.7804L17.8244 9.2065C17.883 9.18758 17.9122 9.17807 17.9339 9.16013C17.953 9.14427 17.9678 9.12377 17.977 9.10056C17.9873 9.07425 17.9873 9.04331 17.9873 8.98133V3.29376C17.9873 3.17647 17.9873 3.11782 17.9628 3.08066C17.9415 3.04817 17.9082 3.02552 17.8703 3.01765C17.827 3.00865 17.773 3.03056 17.6651 3.07438L9.71095 6.30383ZM12.9892 8.94501C12.9892 9.00596 12.9892 9.03641 12.9791 9.06238C12.9703 9.08529 12.9558 9.10564 12.9372 9.1215C12.916 9.13949 12.8874 9.14929 12.8302 9.16895L10.6295 9.9239C10.5249 9.95982 10.4725 9.97776 10.4308 9.96741C10.3944 9.95834 10.3627 9.93553 10.3425 9.9036C10.3193 9.86719 10.3193 9.81146 10.3193 9.70001V7.12746C10.3193 7.06907 10.3193 7.03986 10.3287 7.01468C10.337 6.99246 10.3505 6.97255 10.3681 6.95668C10.388 6.93875 10.415 6.92816 10.469 6.90702L12.6696 6.0452C12.7769 6.00322 12.8305 5.98223 12.8734 5.99154C12.911 5.99972 12.9439 6.02239 12.9651 6.05476C12.9892 6.09176 12.9892 6.14971 12.9892 6.26564V8.94501Z" fill="white"/>
<path d="M9.72991 12.761C9.67033 12.7794 9.64056 12.7886 9.61847 12.8065C9.59901 12.8224 9.58386 12.843 9.57452 12.8664C9.56397 12.8929 9.56396 12.9244 9.56396 12.9871V18.0382C9.56396 18.1401 9.56396 18.1911 9.58484 18.2262C9.60317 18.2569 9.63196 18.28 9.66588 18.2909C9.70454 18.3034 9.75377 18.2917 9.85216 18.2685L17.8063 16.3879C17.8709 16.3725 17.9033 16.3649 17.9274 16.3471C17.9487 16.3314 17.9653 16.3102 17.9756 16.2857C17.9873 16.258 17.9873 16.2245 17.9873 16.1576V10.5319C17.9873 10.4236 17.9873 10.3695 17.9649 10.3334C17.9452 10.3019 17.9145 10.279 17.8789 10.2693C17.8381 10.2582 17.7867 10.274 17.684 10.3058L9.72991 12.761ZM12.9892 15.7369C12.9892 15.8036 12.9892 15.837 12.9776 15.8647C12.9673 15.8891 12.9507 15.9103 12.9295 15.926C12.9055 15.9438 12.8733 15.9515 12.8089 15.967L10.6082 16.4941C10.5096 16.5177 10.4603 16.5295 10.4215 16.5171C10.3875 16.5062 10.3587 16.4832 10.3403 16.4524C10.3193 16.4173 10.3193 16.3662 10.3193 16.264V13.677C10.3193 13.613 10.3193 13.5811 10.3302 13.5542C10.3398 13.5305 10.3554 13.5097 10.3753 13.4939C10.398 13.4759 10.4285 13.4672 10.4895 13.4496L12.6902 12.8156C12.7917 12.7864 12.8424 12.7717 12.8826 12.7832C12.9178 12.7933 12.948 12.8162 12.9673 12.8476C12.9892 12.8833 12.9892 12.9365 12.9892 13.043V15.7369Z" fill="white"/>
<path d="M9.74824 19.2295C9.6825 19.2441 9.64965 19.2514 9.62511 19.2692C9.60346 19.2848 9.58645 19.3061 9.57589 19.3308C9.56397 19.3588 9.56396 19.3927 9.56396 19.4605V24.5189C9.56396 24.6132 9.56396 24.6603 9.58298 24.6942C9.59965 24.7239 9.62599 24.7469 9.65757 24.7592C9.69354 24.7733 9.73979 24.7665 9.83236 24.7529L17.7865 23.587C17.8577 23.5765 17.8933 23.5713 17.9201 23.5539C17.9437 23.5386 17.9624 23.5168 17.9741 23.491C17.9873 23.4618 17.9873 23.4255 17.9873 23.3529V17.699C17.9873 17.5984 17.9873 17.5481 17.9668 17.5132C17.9487 17.4826 17.9203 17.4596 17.8868 17.4484C17.8486 17.4356 17.7998 17.4464 17.7024 17.468L9.74824 19.2295ZM12.9892 22.478C12.9892 22.55 12.9892 22.586 12.9762 22.6151C12.9646 22.6408 12.9461 22.6625 12.9227 22.6779C12.8962 22.6953 12.8608 22.7008 12.7902 22.7117L10.5895 23.0516C10.4964 23.066 10.4499 23.0732 10.4136 23.0593C10.3819 23.047 10.3553 23.024 10.3385 22.9942C10.3193 22.9603 10.3193 22.9128 10.3193 22.8179V20.2222C10.3193 20.1533 10.3193 20.1188 10.3316 20.0905C10.3423 20.0656 10.3598 20.0441 10.3819 20.0285C10.4069 20.0109 10.4405 20.004 10.5076 19.9904L12.7083 19.5433C12.8046 19.5237 12.8527 19.5139 12.8904 19.527C12.9235 19.5385 12.9513 19.5615 12.9691 19.5919C12.9892 19.6266 12.9892 19.6761 12.9892 19.7751V22.478Z" fill="white"/>
<path d="M9.76823 25.6981C9.69589 25.7076 9.65972 25.7124 9.63245 25.7297C9.60845 25.7449 9.58933 25.7668 9.57746 25.7928C9.56396 25.8223 9.56396 25.8591 9.56396 25.9326V31.2523C9.56396 31.3351 9.56396 31.3765 9.57995 31.4081C9.59403 31.4359 9.61646 31.4586 9.64403 31.4727C9.67541 31.4888 9.71647 31.4888 9.79859 31.4888H17.7527C17.8348 31.4888 17.8759 31.4888 17.9073 31.4727C17.9349 31.4586 17.9573 31.4359 17.9713 31.4081C17.9873 31.3765 17.9873 31.3351 17.9873 31.2523V24.8862C17.9873 24.7932 17.9873 24.7467 17.9687 24.713C17.9523 24.6835 17.9263 24.6605 17.8951 24.648C17.8597 24.6336 17.8139 24.6396 17.7224 24.6517L9.76823 25.6981ZM12.9892 29.3009C12.9892 29.38 12.9892 29.4195 12.9743 29.4504C12.9611 29.4775 12.9399 29.4999 12.9137 29.5145C12.8839 29.5311 12.8448 29.5332 12.7664 29.5371L10.5657 29.6484C10.4799 29.6527 10.437 29.6549 10.404 29.6394C10.375 29.6258 10.3512 29.603 10.3363 29.5745C10.3193 29.5421 10.3193 29.4988 10.3193 29.4122V26.8066C10.3193 26.7321 10.3193 26.6949 10.333 26.6652C10.3452 26.6391 10.3646 26.617 10.389 26.6019C10.4167 26.5847 10.4534 26.5804 10.5268 26.5717L12.7274 26.313C12.818 26.3024 12.8633 26.2971 12.8984 26.3116C12.9291 26.3244 12.9547 26.3473 12.9708 26.3766C12.9892 26.4101 12.9892 26.456 12.9892 26.548V29.3009Z" fill="white"/>
<path d="M47.8546 21.3231C47.89 21.3491 47.9078 21.362 47.9206 21.3787C47.9319 21.3934 47.9404 21.4102 47.9456 21.428C47.9514 21.4482 47.9514 21.4704 47.9514 21.5146V22.9829C47.9514 23.1326 47.9514 23.2074 47.9207 23.2474C47.8939 23.2822 47.8531 23.3031 47.8095 23.3045C47.7593 23.3062 47.6992 23.2622 47.5791 23.1744L18.8181 2.14909C18.7826 2.12314 18.7648 2.11017 18.752 2.09354C18.7407 2.07881 18.7322 2.06205 18.727 2.04415C18.7212 2.02393 18.7212 2.00183 18.7212 1.95763V0.489263C18.7212 0.33962 18.7212 0.264799 18.7519 0.224819C18.7787 0.190016 18.8195 0.169056 18.8631 0.167646C18.9133 0.166026 18.9734 0.209952 19.0936 0.297805L47.8546 21.3231Z" fill="white"/>
<path d="M34.2429 27.4047C34.1482 27.3877 34.1008 27.3792 34.0639 27.3928C34.0315 27.4047 34.0042 27.4277 33.9869 27.4578C33.9673 27.4921 33.9673 27.5406 33.9673 27.6375V31.2523C33.9673 31.3351 33.9673 31.3765 33.9833 31.4081C33.9973 31.4359 34.0198 31.4585 34.0474 31.4727C34.0787 31.4888 34.1198 31.4888 34.2019 31.4888H38.8112C38.8933 31.4888 38.9344 31.4888 38.9658 31.4727C38.9934 31.4585 39.0158 31.4359 39.0299 31.4081C39.0458 31.3765 39.0458 31.3351 39.0458 31.2523V28.4622C39.0458 28.3917 39.0458 28.3565 39.0332 28.3278C39.022 28.3025 39.0041 28.2809 38.9813 28.2654C38.9555 28.2478 38.9211 28.2416 38.8522 28.2293L34.2429 27.4047ZM35.8355 30.0342C35.8355 30.1207 35.8355 30.164 35.8185 30.1964C35.8036 30.2249 35.7798 30.2477 35.7509 30.2613C35.718 30.2768 35.6751 30.2747 35.5894 30.2704L34.943 30.2385C34.8645 30.2346 34.8253 30.2326 34.7955 30.216C34.7693 30.2014 34.7481 30.179 34.7349 30.1519C34.7199 30.121 34.7199 30.0814 34.7199 30.0022V28.4373C34.7199 28.3438 34.7199 28.297 34.7387 28.2633C34.7552 28.2337 34.7813 28.2107 34.8126 28.1982C34.8483 28.184 34.8942 28.1904 34.9862 28.203L35.6325 28.2918C35.7045 28.3016 35.7404 28.3065 35.7675 28.3239C35.7913 28.3392 35.8103 28.3611 35.8221 28.387C35.8355 28.4163 35.8355 28.4529 35.8355 28.5261V30.0342ZM38.1122 30.1774C38.1122 30.2638 38.1122 30.307 38.0953 30.3394C38.0804 30.3679 38.0567 30.3907 38.0277 30.4043C37.9948 30.4198 37.952 30.4178 37.8663 30.4136L37.4403 30.393C37.3618 30.3892 37.3225 30.3873 37.2927 30.3707C37.2664 30.356 37.2453 30.3336 37.232 30.3065C37.217 30.2757 37.217 30.236 37.217 30.1568V28.8119C37.217 28.7185 37.217 28.6718 37.2357 28.6381C37.2522 28.6085 37.2783 28.5855 37.3096 28.573C37.3452 28.5588 37.3911 28.565 37.483 28.5775L37.909 28.6354C37.981 28.6452 38.017 28.6501 38.0441 28.6674C38.068 28.6827 38.087 28.7046 38.0988 28.7305C38.1122 28.7599 38.1122 28.7966 38.1122 28.8698V30.1774Z" fill="white"/>
<path d="M34.281 23.0628C34.1754 23.0246 34.1226 23.0055 34.0804 23.0155C34.0435 23.0243 34.0114 23.047 33.9908 23.0791C33.9673 23.1158 33.9673 23.1723 33.9673 23.2854V26.5148C33.9673 26.5836 33.9673 26.618 33.9795 26.6463C33.9903 26.6712 34.0076 26.6926 34.0297 26.7082C34.0546 26.7259 34.0881 26.7328 34.155 26.7465L38.7643 27.6951C38.8608 27.7149 38.909 27.7248 38.9468 27.7118C38.9799 27.7003 39.0079 27.6773 39.0256 27.6469C39.0458 27.6122 39.0458 27.5626 39.0458 27.4633V24.9503C39.0458 24.8903 39.0458 24.8604 39.036 24.8347C39.0274 24.8121 39.0133 24.7919 38.995 24.776C38.9744 24.7581 38.9464 24.7479 38.8904 24.7277L34.281 23.0628ZM35.8355 25.9456C35.8355 26.047 35.8355 26.0977 35.8147 26.1327C35.7965 26.1634 35.7679 26.1864 35.7341 26.1974C35.6956 26.2101 35.6466 26.1988 35.5485 26.1762L34.9022 26.0272C34.8371 26.0121 34.8045 26.0046 34.7803 25.9868C34.7589 25.9711 34.7421 25.9499 34.7317 25.9254C34.7199 25.8975 34.7199 25.8639 34.7199 25.7966V24.2473C34.7199 24.1381 34.7199 24.0835 34.7425 24.0474C34.7623 24.0157 34.7933 23.9928 34.8292 23.9833C34.8702 23.9724 34.9219 23.9889 35.0252 24.0218L35.6715 24.2276C35.7304 24.2464 35.7599 24.2557 35.7817 24.2737C35.8009 24.2895 35.8159 24.3101 35.8251 24.3334C35.8355 24.3597 35.8355 24.3909 35.8355 24.4531V25.9456ZM38.1122 26.5013C38.1122 26.6026 38.1122 26.6532 38.0915 26.6882C38.0733 26.7189 38.0447 26.7419 38.011 26.753C37.9725 26.7656 37.9236 26.7544 37.8256 26.732L37.3996 26.6344C37.3344 26.6195 37.3018 26.6121 37.2775 26.5943C37.2561 26.5786 37.2392 26.5573 37.2288 26.5328C37.217 26.5049 37.217 26.4712 37.217 26.4038V25.0736C37.217 24.9646 37.217 24.9101 37.2396 24.8739C37.2594 24.8423 37.2903 24.8194 37.3262 24.8098C37.3672 24.7989 37.4188 24.8153 37.522 24.848L37.948 24.9831C38.007 25.0018 38.0365 25.0111 38.0583 25.0291C38.0776 25.045 38.0925 25.0655 38.1018 25.0888C38.1122 25.1152 38.1122 25.1464 38.1122 25.2087V26.5013Z" fill="white"/>
<path d="M41.15 29.0334C41.0568 29.0188 41.0102 29.0116 40.974 29.0255C40.9422 29.0377 40.9155 29.0607 40.8987 29.0906C40.8795 29.1245 40.8795 29.1721 40.8795 29.2671V30.6175C40.8795 30.6967 40.8795 30.7363 40.8946 30.7672C40.9078 30.7943 40.929 30.8167 40.9552 30.8313C40.9851 30.848 41.0243 30.8499 41.1029 30.8537L43.7258 30.9813C43.8043 30.9851 43.8436 30.987 43.8735 31.0036C43.8997 31.0183 43.9209 31.0407 43.9341 31.0678C43.9491 31.0986 43.9491 31.1383 43.9491 31.2175V31.2518C43.9491 31.3346 43.9491 31.376 43.9331 31.4076C43.9191 31.4354 43.8967 31.458 43.8691 31.4722C43.8377 31.4883 43.7966 31.4883 43.7145 31.4883H39.6521C39.57 31.4883 39.5289 31.4883 39.4975 31.4722C39.47 31.458 39.4475 31.4354 39.4335 31.4076C39.4175 31.376 39.4175 31.3346 39.4175 31.2518V28.6127C39.4175 28.5157 39.4175 28.4672 39.4371 28.4329C39.4544 28.4028 39.4817 28.3798 39.5141 28.3679C39.551 28.3544 39.5984 28.3629 39.6931 28.3798L43.8151 29.1175C43.8274 29.1197 43.8335 29.1208 43.8389 29.1222C43.8998 29.1379 43.944 29.1911 43.9487 29.2543C43.9491 29.2598 43.9491 29.2661 43.9491 29.2787C43.9491 29.2956 43.9491 29.3041 43.9485 29.3109C43.9412 29.3903 43.8726 29.4496 43.7936 29.4447C43.7868 29.4443 43.7785 29.4431 43.7619 29.4404L41.15 29.0334Z" fill="white"/>
<path d="M28.7584 11.017C28.639 10.933 28.5793 10.891 28.5296 10.8932C28.4864 10.8952 28.4462 10.9163 28.4198 10.951C28.3896 10.9908 28.3895 11.0642 28.3895 11.2109V13.814C28.3895 13.8632 28.3895 13.8878 28.3966 13.9099C28.4028 13.9294 28.413 13.9474 28.4266 13.9627C28.4418 13.98 28.4628 13.9926 28.5048 14.0176L33.3804 16.9233C33.4224 16.9483 33.4434 16.9608 33.4587 16.9782C33.4722 16.9935 33.4824 17.0116 33.4886 17.0311C33.4956 17.0531 33.4956 17.0777 33.4956 17.1269V17.2341C33.4956 17.3673 33.4956 17.4339 33.4679 17.4726C33.4436 17.5064 33.4064 17.5284 33.3653 17.533C33.3182 17.5383 33.2606 17.5056 33.1456 17.44L27.2173 14.0632C27.1739 14.0384 27.1522 14.0261 27.1364 14.0086C27.1224 13.9932 27.1119 13.9749 27.1054 13.9551C27.0981 13.9326 27.0981 13.9075 27.0981 13.8572V9.58378C27.0981 9.43458 27.0981 9.35999 27.1288 9.32008C27.1555 9.28529 27.1962 9.2643 27.2398 9.26277C27.2898 9.2611 27.3499 9.3047 27.47 9.39196L33.3982 13.6998C33.4339 13.7257 33.4517 13.7387 33.4646 13.7554C33.476 13.7701 33.4846 13.7869 33.4898 13.8048C33.4956 13.8251 33.4956 13.8475 33.4956 13.8923C33.4956 14.0406 33.4956 14.1148 33.4654 14.1546C33.439 14.1893 33.3989 14.2104 33.3556 14.2124C33.3059 14.2146 33.2462 14.1726 33.1268 14.0887L28.7584 11.017Z" fill="white"/>
<path d="M28.7317 16.4011C28.6186 16.3423 28.5621 16.3129 28.516 16.3194C28.4758 16.325 28.4397 16.3472 28.4163 16.3806C28.3895 16.419 28.3895 16.4831 28.3895 16.6113V19.2559C28.3895 19.3133 28.3895 19.3419 28.3987 19.3668C28.4068 19.3887 28.4199 19.4084 28.437 19.4243C28.4564 19.4422 28.4827 19.4531 28.5354 19.4748L33.3498 21.4599C33.4025 21.4817 33.4288 21.4925 33.4482 21.5104C33.4653 21.5263 33.4784 21.546 33.4865 21.5679C33.4956 21.5928 33.4956 21.6215 33.4956 21.6789V21.7742C33.4956 21.8899 33.4956 21.9477 33.4715 21.9846C33.4505 22.017 33.4176 22.0397 33.3801 22.0479C33.3373 22.0573 33.2837 22.0365 33.1767 21.995L27.2484 19.6947C27.1942 19.6737 27.1671 19.6632 27.1472 19.6452C27.1295 19.6293 27.1159 19.6094 27.1076 19.5871C27.0981 19.5619 27.0981 19.5326 27.0981 19.474V15.2219C27.0981 15.0914 27.0981 15.0262 27.1254 14.9877C27.1492 14.954 27.1858 14.932 27.2264 14.9268C27.273 14.9209 27.33 14.9518 27.444 15.0137L33.3723 18.2322C33.4171 18.2565 33.4396 18.2687 33.4559 18.2863C33.4704 18.3018 33.4814 18.3203 33.4881 18.3405C33.4956 18.3633 33.4956 18.3891 33.4956 18.4404V18.4881C33.4956 18.6164 33.4956 18.6805 33.4688 18.7188C33.4455 18.7522 33.4094 18.7744 33.3692 18.7801C33.3231 18.7865 33.2666 18.7571 33.1535 18.6984L28.7317 16.4011Z" fill="white"/>
<path d="M34.3391 14.3837C34.2191 14.2965 34.159 14.2528 34.1089 14.2545C34.0653 14.256 34.0247 14.277 33.9979 14.3118C33.9673 14.3517 33.9673 14.4263 33.9673 14.5755V17.77C33.9673 17.8202 33.9673 17.8453 33.9746 17.8678C33.9811 17.8876 33.9916 17.9058 34.0056 17.9213C34.0214 17.9388 34.043 17.9511 34.0865 17.9758L38.6958 20.6018C38.8108 20.6673 38.8684 20.7001 38.9155 20.6947C38.9566 20.6902 38.9938 20.6682 39.0181 20.6344C39.0458 20.5957 39.0458 20.5291 39.0458 20.3959V17.925C39.0458 17.8807 39.0458 17.8585 39.04 17.8382C39.0348 17.8203 39.0262 17.8035 39.0149 17.7887C39.002 17.7721 38.9841 17.7591 38.9484 17.7332L34.3391 14.3837ZM35.862 17.6908C35.862 17.8267 35.862 17.8946 35.8338 17.9336C35.8091 17.9676 35.7712 17.9893 35.7296 17.9934C35.6819 17.9981 35.6239 17.9635 35.5079 17.8943L34.8644 17.5105C34.8224 17.4855 34.8015 17.4729 34.7862 17.4556C34.7727 17.4403 34.7625 17.4223 34.7563 17.4028C34.7493 17.3807 34.7493 17.3561 34.7493 17.3069V15.8301C34.7493 15.6853 34.7493 15.6129 34.7792 15.5732C34.8052 15.5387 34.845 15.5174 34.888 15.5151C34.9374 15.5124 34.9968 15.5531 35.1156 15.6344L35.7592 16.0746C35.7968 16.1004 35.8156 16.1132 35.8292 16.1301C35.8413 16.1451 35.8503 16.1623 35.8558 16.1807C35.862 16.2015 35.862 16.2245 35.862 16.2703V17.6908ZM38.1122 19.0623C38.1122 19.1979 38.1122 19.2658 38.084 19.3047C38.0594 19.3387 38.0215 19.3605 37.98 19.3646C37.9323 19.3693 37.8743 19.3349 37.7584 19.266L37.3324 19.0127C37.2903 18.9878 37.2693 18.9752 37.254 18.9579C37.2405 18.9425 37.2303 18.9245 37.224 18.905C37.217 18.8829 37.217 18.8583 37.217 18.8091V17.5486C37.217 17.404 37.217 17.3316 37.2469 17.292C37.2729 17.2575 37.3127 17.2362 37.3556 17.2338C37.405 17.2311 37.4643 17.2717 37.5831 17.3527L38.0092 17.6435C38.0468 17.6692 38.0657 17.6821 38.0793 17.699C38.0914 17.7139 38.1005 17.7311 38.106 17.7496C38.1122 17.7704 38.1122 17.7934 38.1122 17.8393V19.0623Z" fill="white"/>
<path d="M34.3132 18.7431C34.1992 18.6813 34.1421 18.6503 34.0956 18.6562C34.0549 18.6614 34.0183 18.6834 33.9945 18.717C33.9673 18.7556 33.9673 18.8209 33.9673 18.9514V22.1396C33.9673 22.1982 33.9673 22.2275 33.9767 22.2528C33.9851 22.275 33.9987 22.295 34.0163 22.3108C34.0363 22.3288 34.0634 22.3393 34.1176 22.3604L38.727 24.1487C38.834 24.1902 38.8875 24.211 38.9303 24.2016C38.9679 24.1933 39.0007 24.1706 39.0217 24.1383C39.0458 24.1013 39.0458 24.0435 39.0458 23.928V21.4539C39.0458 21.4025 39.0458 21.3768 39.0383 21.354C39.0316 21.3338 39.0206 21.3153 39.0061 21.2997C38.9898 21.2822 38.9673 21.27 38.9225 21.2456L34.3132 18.7431ZM35.8493 21.8367C35.8493 21.9547 35.8493 22.0136 35.8246 22.0509C35.8031 22.0835 35.7696 22.1061 35.7316 22.1138C35.6881 22.1227 35.6339 22.1003 35.5257 22.0556L34.8803 21.7892C34.8276 21.7674 34.8013 21.7565 34.782 21.7386C34.7649 21.7228 34.7518 21.7031 34.7437 21.6811C34.7346 21.6563 34.7345 21.6276 34.7345 21.5703V20.0513C34.7345 19.925 34.7346 19.8618 34.7609 19.8237C34.784 19.7904 34.8197 19.7682 34.8595 19.7621C34.9051 19.7552 34.9613 19.7833 35.0735 19.8395L35.7189 20.1625C35.7662 20.1861 35.7899 20.198 35.8072 20.2156C35.8224 20.2313 35.8341 20.2502 35.8412 20.271C35.8493 20.2945 35.8493 20.3211 35.8493 20.3743V21.8367ZM38.1122 22.8011C38.1122 22.9189 38.1122 22.9777 38.0877 23.0149C38.0661 23.0475 38.0328 23.0701 37.9947 23.0779C37.9513 23.0868 37.8972 23.0645 37.789 23.0201L37.363 22.8449C37.3103 22.8232 37.2839 22.8124 37.2645 22.7945C37.2474 22.7786 37.2342 22.7589 37.2261 22.7369C37.217 22.7121 37.217 22.6833 37.217 22.6259V21.3246C37.217 21.1984 37.217 21.1353 37.2434 21.0972C37.2664 21.0639 37.302 21.0416 37.3418 21.0356C37.3874 21.0286 37.4435 21.0567 37.5557 21.1127L37.9817 21.3254C38.0291 21.349 38.0528 21.3608 38.0701 21.3785C38.0854 21.3942 38.097 21.4131 38.1041 21.4339C38.1122 21.4574 38.1122 21.484 38.1122 21.5373V22.8011Z" fill="white"/>
<path d="M44.5925 21.8341C44.4725 21.7469 44.4124 21.7033 44.3624 21.7049C44.3188 21.7065 44.278 21.7275 44.2514 21.7622C44.2207 21.8022 44.2207 21.8768 44.2207 22.026V23.6106C44.2207 23.6608 44.2207 23.686 44.228 23.7084C44.2344 23.7283 44.245 23.7465 44.259 23.762C44.2748 23.7794 44.2965 23.7918 44.3399 23.8165L47.6009 25.6743C47.7159 25.7398 47.7734 25.7726 47.8206 25.7673C47.8617 25.7627 47.899 25.7408 47.9232 25.707C47.951 25.6682 47.951 25.6016 47.951 25.4684V24.3959C47.951 24.3515 47.951 24.3294 47.9451 24.3091C47.9399 24.2911 47.9314 24.2743 47.9199 24.2596C47.9071 24.2429 47.8892 24.23 47.8536 24.2041L44.5925 21.8341ZM45.3472 23.5693C45.3472 23.6199 45.3472 23.6451 45.3431 23.6622C45.3233 23.7445 45.2393 23.7932 45.1589 23.7691C45.1421 23.7642 45.1204 23.7515 45.0771 23.7261C45.061 23.7168 45.053 23.712 45.0461 23.7068C45.0141 23.6825 44.9932 23.6462 44.9885 23.6061C44.9875 23.5973 44.9875 23.588 44.9875 23.5693V22.8552C44.9875 22.8014 44.9875 22.7745 44.9919 22.7569C45.0128 22.6721 45.1019 22.624 45.1836 22.6535C45.2006 22.6596 45.2227 22.6746 45.2672 22.7044C45.2815 22.7141 45.2887 22.7189 45.295 22.7242C45.3238 22.7486 45.3421 22.7833 45.3463 22.8209C45.3472 22.8291 45.3472 22.8378 45.3472 22.8552V23.5693ZM46.1226 24.08C46.1226 24.0977 46.1226 24.1066 46.122 24.1127C46.1135 24.2156 46.0056 24.2782 45.9131 24.234C45.9075 24.2313 45.9 24.2269 45.8848 24.218C45.8791 24.2147 45.8764 24.213 45.8738 24.2114C45.8333 24.1854 45.8081 24.1412 45.8061 24.0929C45.806 24.0898 45.806 24.0866 45.806 24.08V23.3846C45.806 23.3658 45.806 23.3563 45.8065 23.35C45.8156 23.2436 45.9303 23.1817 46.0232 23.2331C46.0287 23.2362 46.0365 23.2414 46.0521 23.2519C46.0571 23.2553 46.0597 23.257 46.062 23.2587C46.0984 23.2853 46.1207 23.3273 46.1224 23.3726C46.1226 23.3755 46.1226 23.3785 46.1226 23.3846V24.08Z" fill="white"/>
<path d="M41.2216 22.8902C41.1086 22.8315 41.052 22.8021 41.006 22.8085C40.9658 22.8142 40.9297 22.8363 40.9063 22.8697C40.8795 22.9081 40.8795 22.9722 40.8795 23.1004V24.4053C40.8795 24.4627 40.8795 24.4913 40.8887 24.5162C40.8967 24.5381 40.9099 24.5579 40.927 24.5737C40.9463 24.5916 40.9726 24.6025 41.0253 24.6242L43.8492 25.7887C43.8577 25.7922 43.8619 25.7939 43.8657 25.7957C43.9139 25.819 43.9459 25.8669 43.9489 25.9207C43.9491 25.9249 43.9491 25.9295 43.9491 25.9387C43.9491 25.9572 43.9491 25.9664 43.9485 25.9733C43.9399 26.0651 43.8509 26.1267 43.7628 26.1018C43.7562 26.0999 43.7477 26.0966 43.7306 26.09L39.5678 24.4746C39.5136 24.4535 39.4864 24.443 39.4665 24.4251C39.4489 24.4092 39.4353 24.3893 39.4269 24.367C39.4175 24.3417 39.4175 24.3125 39.4175 24.2539V21.9106C39.4175 21.7801 39.4175 21.7148 39.4447 21.6763C39.4685 21.6427 39.5051 21.6206 39.5458 21.6155C39.5923 21.6095 39.6493 21.6405 39.7634 21.7023L43.8715 23.9321C43.872 23.9324 43.8722 23.9326 43.8725 23.9327C43.9196 23.9585 43.9489 24.0081 43.9491 24.062C43.9491 24.0623 43.9491 24.0626 43.9491 24.0632C43.9491 24.0647 43.9491 24.0654 43.9491 24.0659C43.9483 24.1757 43.8334 24.2464 43.7363 24.1967C43.7358 24.1965 43.7351 24.1962 43.7338 24.1955L41.2216 22.8902Z" fill="white"/>
<path d="M41.1887 25.9522C41.0844 25.9169 41.0322 25.8993 40.9906 25.9097C40.9543 25.9189 40.9228 25.9417 40.9026 25.9736C40.8795 26.01 40.8795 26.0655 40.8795 26.1764V27.5108C40.8795 27.5781 40.8795 27.6118 40.8913 27.6395C40.9017 27.6641 40.9185 27.6853 40.9399 27.701C40.9642 27.7188 40.9967 27.7263 41.0618 27.7413L43.8143 28.3767C43.8342 28.3813 43.8441 28.3836 43.8526 28.3867C43.9044 28.4057 43.9412 28.4523 43.948 28.5074C43.9491 28.5164 43.9491 28.5267 43.9491 28.5473C43.9491 28.5775 43.9491 28.5926 43.9472 28.6045C43.9352 28.6781 43.8708 28.7311 43.7969 28.7283C43.7849 28.7278 43.7702 28.7248 43.7408 28.7188L39.6052 27.868C39.5383 27.8542 39.5049 27.8473 39.4798 27.8296C39.4578 27.814 39.4405 27.7926 39.4297 27.7677C39.4175 27.7395 39.4175 27.7051 39.4175 27.6363V25.2543C39.4175 25.1412 39.4175 25.0847 39.441 25.048C39.4616 25.016 39.4937 24.9931 39.5306 24.9844C39.5728 24.9745 39.6256 24.9935 39.7312 25.0317L43.8454 26.5172C43.8517 26.5195 43.8548 26.5206 43.8577 26.5218C43.9109 26.5436 43.9466 26.5947 43.949 26.6526C43.9491 26.6557 43.9491 26.6591 43.9491 26.6658C43.9491 26.6784 43.9491 26.6846 43.9488 26.6894C43.9429 26.7823 43.8542 26.8466 43.7649 26.8227C43.7604 26.8215 43.7545 26.8195 43.7427 26.8155L41.1887 25.9522Z" fill="white"/>
<path d="M28.6988 21.7315C28.5944 21.6962 28.5422 21.6786 28.5007 21.689C28.4643 21.6982 28.4328 21.7211 28.4126 21.7529C28.3895 21.7893 28.3895 21.8448 28.3895 21.9557V24.6299C28.3895 24.6971 28.3895 24.7308 28.4014 24.7586C28.4117 24.7832 28.4286 24.8044 28.45 24.8201C28.4743 24.8379 28.5068 24.8454 28.5719 24.8604L33.3134 25.9544C33.3784 25.9694 33.411 25.9769 33.4352 25.9947C33.4566 26.0104 33.4734 26.0316 33.4839 26.0562C33.4956 26.084 33.4956 26.1177 33.4956 26.185V26.3212C33.4956 26.4205 33.4956 26.4701 33.4754 26.5048C33.4577 26.5352 33.4297 26.5582 33.3966 26.5697C33.3588 26.5827 33.3105 26.5728 33.2141 26.5529L27.2858 25.333C27.2189 25.3192 27.1855 25.3123 27.1605 25.2946C27.1385 25.279 27.1211 25.2576 27.1103 25.2327C27.0981 25.2045 27.0981 25.1701 27.0981 25.1012V20.8041C27.0981 20.691 27.0981 20.6345 27.1217 20.5978C27.1423 20.5657 27.1744 20.5429 27.2113 20.5342C27.2534 20.5242 27.3063 20.5433 27.4119 20.5814L33.3401 22.7228C33.3962 22.7431 33.4242 22.7532 33.4448 22.7712C33.4631 22.787 33.4772 22.8072 33.4858 22.8299C33.4956 22.8556 33.4956 22.8855 33.4956 22.9455V23.0238C33.4956 23.1347 33.4956 23.1902 33.4726 23.2266C33.4524 23.2585 33.4209 23.2813 33.3845 23.2905C33.343 23.3009 33.2908 23.2833 33.1864 23.2481L28.6988 21.7315Z" fill="white"/>
<path d="M44.4963 29.2396C44.4016 29.2227 44.3542 29.2142 44.3173 29.2277C44.2849 29.2396 44.2576 29.2626 44.2404 29.2927C44.2207 29.327 44.2207 29.3755 44.2207 29.4725V31.2523C44.2207 31.3351 44.2207 31.3765 44.2367 31.4081C44.2507 31.4359 44.2732 31.4585 44.3008 31.4727C44.3321 31.4888 44.3732 31.4888 44.4553 31.4888H47.7163C47.7985 31.4888 47.8395 31.4888 47.8709 31.4727C47.8985 31.4585 47.9209 31.4359 47.935 31.4081C47.951 31.3765 47.951 31.3351 47.951 31.2523V30.0561C47.951 29.9856 47.951 29.9504 47.9383 29.9217C47.9271 29.8965 47.9092 29.8748 47.8864 29.8593C47.8606 29.8418 47.8262 29.8356 47.7574 29.8232L44.4963 29.2396ZM45.3377 30.69C45.3377 30.7225 45.3377 30.7387 45.3353 30.7521C45.3238 30.8143 45.2743 30.8622 45.2122 30.8714C45.1988 30.8733 45.1827 30.8727 45.1505 30.8714C45.1206 30.8702 45.1056 30.8696 45.0931 30.8669C45.0349 30.8541 44.9901 30.8072 44.9798 30.7481C44.9776 30.7354 44.9776 30.7202 44.9776 30.69V29.912C44.9776 29.877 44.9776 29.8595 44.9803 29.8454C44.9931 29.7797 45.048 29.7309 45.1142 29.7263C45.1285 29.7253 45.1457 29.7276 45.1802 29.7319C45.2077 29.7354 45.2215 29.7372 45.2331 29.7407C45.2867 29.7568 45.3266 29.8024 45.3358 29.8581C45.3377 29.8701 45.3377 29.8841 45.3377 29.912V30.69ZM46.1226 30.762C46.1226 30.7733 46.1226 30.7789 46.1222 30.7837C46.1174 30.8599 46.0557 30.9199 45.9798 30.922C45.9751 30.9221 45.9696 30.9219 45.9584 30.9215C45.9479 30.9211 45.9427 30.9209 45.9382 30.9204C45.8666 30.9133 45.8106 30.8548 45.8062 30.7823C45.806 30.7778 45.806 30.7726 45.806 30.762V30.0111C45.806 29.9989 45.806 29.9928 45.8063 29.9878C45.8117 29.907 45.8807 29.8456 45.961 29.8502C45.9659 29.8505 45.9719 29.8512 45.9839 29.8528C45.9935 29.8539 45.9983 29.8546 46.0024 29.8553C46.0689 29.8676 46.1184 29.9242 46.1223 29.9922C46.1226 29.9965 46.1226 30.0014 46.1226 30.0111V30.762Z" fill="white"/>
<path d="M44.5345 26.7665C44.4288 26.7284 44.376 26.7093 44.3338 26.7193C44.297 26.728 44.2648 26.7508 44.2442 26.7829C44.2207 26.8196 44.2207 26.8761 44.2207 26.9892V28.6241C44.2207 28.693 44.2207 28.7274 44.2329 28.7556C44.2436 28.7805 44.261 28.8019 44.2831 28.8175C44.3081 28.8352 44.3415 28.8421 44.4084 28.8559L47.6694 29.527C47.7659 29.5468 47.8141 29.5568 47.8518 29.5437C47.885 29.5323 47.9129 29.5092 47.9307 29.4788C47.951 29.4441 47.951 29.3945 47.951 29.2953V28.1669C47.951 28.1069 47.951 28.0769 47.9411 28.0512C47.9324 28.0285 47.9184 28.0084 47.9001 27.9925C47.8795 27.9745 47.8514 27.9644 47.7954 27.9442L44.5345 26.7665ZM45.3377 28.3341C45.3377 28.3721 45.3377 28.3911 45.3347 28.4059C45.3205 28.4751 45.2596 28.5246 45.1894 28.5238C45.1744 28.5236 45.156 28.5195 45.1192 28.5115C45.0942 28.5059 45.0818 28.5032 45.0712 28.499C45.0224 28.48 44.9873 28.4361 44.9793 28.384C44.9776 28.3727 44.9776 28.3598 44.9776 28.3341V27.5671C44.9776 27.5262 44.9776 27.5058 44.9809 27.4903C44.9964 27.4177 45.063 27.3681 45.1364 27.3743C45.152 27.3755 45.1714 27.3816 45.2102 27.3935C45.2328 27.4004 45.2441 27.4039 45.2538 27.4085C45.2982 27.4296 45.3291 27.4718 45.3362 27.5207C45.3377 27.5314 45.3377 27.5433 45.3377 27.5671V28.3341ZM46.1226 28.5527C46.1226 28.5659 46.1226 28.5725 46.1222 28.5778C46.1162 28.6634 46.0392 28.7258 45.955 28.7136C45.9498 28.7128 45.9434 28.7115 45.9306 28.7086C45.9219 28.7067 45.9176 28.7057 45.9138 28.7047C45.8529 28.6879 45.8096 28.6337 45.8062 28.5701C45.806 28.5662 45.806 28.5617 45.806 28.5527V27.8111C45.806 27.7969 45.806 27.7898 45.8064 27.7843C45.813 27.6943 45.8974 27.6313 45.9848 27.6511C45.9901 27.6523 45.9968 27.6543 46.0103 27.6585C46.0182 27.6609 46.0221 27.6621 46.0256 27.6633C46.0812 27.6835 46.1193 27.7354 46.1224 27.7949C46.1226 27.7987 46.1226 27.8028 46.1226 27.8111V28.5527Z" fill="white"/>
<path d="M44.5666 24.3094C44.4525 24.2475 44.3955 24.2165 44.349 24.2225C44.3083 24.2276 44.2717 24.2497 44.2479 24.2833C44.2207 24.3218 44.2207 24.3871 44.2207 24.5176V26.1174C44.2207 26.1759 44.2207 26.2052 44.2301 26.2304C44.2385 26.2528 44.2521 26.2727 44.2697 26.2885C44.2897 26.3065 44.3168 26.317 44.371 26.3381L47.632 27.6036C47.7391 27.6451 47.7926 27.6659 47.8355 27.6565C47.873 27.6483 47.9058 27.6256 47.9268 27.5933C47.951 27.5563 47.951 27.4985 47.951 27.3829V26.2879C47.951 26.2366 47.951 26.2109 47.9433 26.1881C47.9366 26.1679 47.9257 26.1493 47.9112 26.1338C47.8949 26.1163 47.8724 26.1041 47.8276 26.0797L44.5666 24.3094ZM45.3424 25.9633C45.3424 26.0072 45.3424 26.0291 45.3389 26.0451C45.3219 26.1213 45.2491 26.1711 45.1726 26.1587C45.1565 26.1561 45.1363 26.148 45.0959 26.1317C45.0758 26.1236 45.0658 26.1195 45.0572 26.1147C45.0173 26.0919 44.9903 26.0516 44.9841 26.0059C44.9827 25.996 44.9827 25.9851 44.9827 25.9633V25.2184C44.9827 25.1713 44.9827 25.1478 44.9866 25.1312C45.0049 25.052 45.0834 25.0026 45.162 25.0207C45.1785 25.0245 45.1995 25.0348 45.2415 25.0554C45.2594 25.0643 45.2685 25.0687 45.2762 25.0738C45.3121 25.0975 45.3359 25.1359 45.3413 25.1788C45.3424 25.1881 45.3424 25.1982 45.3424 25.2184V25.9633ZM46.1226 26.3281C46.1226 26.3434 46.1226 26.3511 46.1221 26.3568C46.1148 26.4513 46.0224 26.5146 45.9325 26.4866C45.9271 26.4849 45.92 26.482 45.9059 26.4764C45.8988 26.4736 45.8953 26.4722 45.8921 26.4707C45.842 26.4478 45.8088 26.3985 45.8061 26.3431C45.806 26.3396 45.806 26.3357 45.806 26.3281V25.6055C45.806 25.589 45.806 25.5808 45.8064 25.5749C45.8143 25.4761 45.9144 25.413 46.0059 25.449C46.0114 25.4512 46.0188 25.4548 46.0335 25.462C46.0398 25.4651 46.043 25.4667 46.0458 25.4683C46.091 25.493 46.1201 25.5398 46.1224 25.5916C46.1226 25.5949 46.1226 25.5984 46.1226 25.6055V26.3281Z" fill="white"/>
<path d="M41.2484 19.8003C41.129 19.7163 41.0693 19.6743 41.0196 19.6765C40.9764 19.6785 40.9361 19.6996 40.9098 19.7343C40.8795 19.7741 40.8795 19.8475 40.8795 19.9942V21.2576C40.8795 21.3068 40.8795 21.3313 40.8866 21.3534C40.8928 21.3729 40.903 21.391 40.9165 21.4063C40.9317 21.4236 40.9527 21.4361 40.9947 21.4612L43.8698 23.1747C43.8769 23.1789 43.8805 23.1811 43.8837 23.1832C43.9223 23.2091 43.9465 23.2518 43.9489 23.2985C43.9491 23.3024 43.9491 23.3066 43.9491 23.3149C43.9491 23.3373 43.9491 23.3485 43.9483 23.3564C43.9378 23.4555 43.835 23.5159 43.7443 23.4764C43.7371 23.4732 43.7275 23.4677 43.7081 23.4567L39.5367 21.081C39.4933 21.0563 39.4716 21.0439 39.4558 21.0264C39.4418 21.011 39.4313 20.9928 39.4248 20.9729C39.4175 20.9505 39.4175 20.9253 39.4175 20.8751V18.536C39.4175 18.3869 39.4175 18.3123 39.4481 18.2723C39.4749 18.2375 39.5155 18.2166 39.5591 18.2151C39.6092 18.2134 39.6693 18.257 39.7893 18.3442L43.8927 21.3259C43.9282 21.3516 43.9491 21.393 43.9491 21.437C43.9491 21.5476 43.8256 21.6126 43.7356 21.5493L41.2484 19.8003Z" fill="white"/>
<path d="M28.6601 27.0866C28.5669 27.0721 28.5203 27.0649 28.484 27.0788C28.4522 27.091 28.4256 27.114 28.4088 27.1438C28.3895 27.1778 28.3895 27.2253 28.3895 27.3204V30.0109C28.3895 30.0902 28.3895 30.1298 28.4046 30.1606C28.4178 30.1878 28.439 30.2102 28.4653 30.2248C28.4951 30.2414 28.5344 30.2434 28.6129 30.2472L33.2723 30.4733C33.3508 30.4772 33.3901 30.479 33.4199 30.4957C33.4462 30.5103 33.4674 30.5327 33.4806 30.5598C33.4956 30.5907 33.4956 30.6303 33.4956 30.7096V31.2518C33.4956 31.3346 33.4956 31.376 33.4797 31.4076C33.4656 31.4355 33.4431 31.4581 33.4156 31.4722C33.3842 31.4883 33.3431 31.4883 33.261 31.4883H27.3328C27.2506 31.4883 27.2095 31.4883 27.1782 31.4722C27.1506 31.4581 27.1282 31.4355 27.1141 31.4076C27.0981 31.376 27.0981 31.3346 27.0981 31.2518V26.4083C27.0981 26.3113 27.0981 26.2628 27.1178 26.2285C27.135 26.1984 27.1623 26.1754 27.1947 26.1635C27.2317 26.1499 27.279 26.1584 27.3738 26.1754L33.302 27.2365C33.3709 27.2488 33.4053 27.255 33.4311 27.2725C33.4538 27.288 33.4718 27.3097 33.483 27.3349C33.4956 27.3636 33.4956 27.3989 33.4956 27.4693V27.5648C33.4956 27.6599 33.4956 27.7074 33.4764 27.7414C33.4596 27.7712 33.433 27.7942 33.4012 27.8064C33.3649 27.8204 33.3183 27.8131 33.2251 27.7985L28.6601 27.0866Z" fill="white"/>
<path d="M19.093 3.3039C18.973 3.21666 18.9129 3.17304 18.8628 3.17476C18.8192 3.17626 18.7786 3.19725 18.7518 3.23202C18.7212 3.27198 18.7212 3.34657 18.7212 3.49576V9.08431C18.7212 9.13452 18.7212 9.15965 18.7285 9.18212C18.735 9.20197 18.7455 9.2202 18.7595 9.23568C18.7753 9.25312 18.797 9.26549 18.8404 9.29017L26.1762 13.4696C26.2912 13.5352 26.3487 13.568 26.3959 13.5627C26.437 13.558 26.4743 13.5361 26.4985 13.5023C26.5262 13.4636 26.5262 13.397 26.5262 13.2638V8.82647C26.5262 8.78213 26.5262 8.75995 26.5204 8.7397C26.5152 8.72172 26.5067 8.70492 26.4952 8.69018C26.4823 8.67353 26.4645 8.66057 26.4288 8.63465L19.093 3.3039ZM22.7291 9.68592C22.7291 9.82226 22.7291 9.89045 22.7008 9.92948C22.6761 9.96347 22.6381 9.98525 22.5964 9.98924C22.5487 9.99383 22.4906 9.95889 22.3744 9.88907L19.9461 8.42983C19.9043 8.4047 19.8835 8.39219 19.8683 8.37489C19.8549 8.35957 19.8447 8.34158 19.8386 8.32212C19.8316 8.30015 19.8316 8.27566 19.8316 8.22668V5.43847C19.8316 5.29317 19.8316 5.22049 19.8616 5.18083C19.8877 5.14624 19.9276 5.125 19.9707 5.12278C20.0201 5.12022 20.0796 5.16122 20.1986 5.24321L22.6269 6.91639C22.6643 6.94216 22.683 6.95502 22.6966 6.97192C22.7086 6.98685 22.7175 7.00399 22.723 7.02237C22.7291 7.04312 22.7291 7.06598 22.7291 7.11165V9.68592Z" fill="white"/>
<path d="M19.0671 10.4654C18.9531 10.4036 18.896 10.3726 18.8495 10.3785C18.8088 10.3836 18.7722 10.4057 18.7484 10.4393C18.7212 10.4779 18.7212 10.5431 18.7212 10.6737V16.2235C18.7212 16.2821 18.7212 16.3114 18.7306 16.3367C18.739 16.3589 18.7526 16.3789 18.7702 16.3947C18.7902 16.4127 18.8173 16.4232 18.8715 16.4443L26.2073 19.2905C26.3144 19.332 26.3679 19.3527 26.4108 19.3433C26.4483 19.3351 26.4811 19.3124 26.5021 19.2801C26.5262 19.2431 26.5262 19.1853 26.5262 19.0697V14.6563C26.5262 14.6049 26.5262 14.5793 26.5186 14.5564C26.512 14.5362 26.501 14.5177 26.4865 14.5022C26.4702 14.4846 26.4477 14.4724 26.4029 14.4481L19.0671 10.4654ZM22.7291 16.2484C22.7291 16.3667 22.7291 16.4259 22.7045 16.4632C22.6829 16.4958 22.6493 16.5184 22.6111 16.526C22.5675 16.5348 22.5133 16.5122 22.4048 16.4669L19.9765 15.4536C19.9241 15.4317 19.8979 15.4208 19.8787 15.4028C19.8617 15.387 19.8487 15.3674 19.8407 15.3454C19.8316 15.3207 19.8316 15.2921 19.8316 15.235V12.4055C19.8316 12.2787 19.8316 12.2152 19.8581 12.1771C19.8813 12.1437 19.917 12.1215 19.9569 12.1156C20.0026 12.1088 20.0589 12.1372 20.1714 12.194L22.5997 13.4208C22.6467 13.4446 22.6702 13.4565 22.6873 13.4741C22.7026 13.4898 22.7141 13.5087 22.7212 13.5294C22.7291 13.5528 22.7291 13.5792 22.7291 13.6323V16.2484Z" fill="white"/>
<path d="M19.035 17.5557C18.9293 17.5175 18.8765 17.4985 18.8343 17.5084C18.7974 17.5171 18.7653 17.5399 18.7448 17.572C18.7212 17.6087 18.7212 17.6652 18.7212 17.7783V23.3782C18.7212 23.447 18.7212 23.4814 18.7334 23.5097C18.7442 23.5345 18.7615 23.556 18.7836 23.5716C18.8086 23.5893 18.842 23.5962 18.9089 23.6099L26.2447 25.1191C26.3412 25.139 26.3894 25.1489 26.4271 25.1359C26.4603 25.1244 26.4882 25.1014 26.506 25.071C26.5262 25.0363 26.5262 24.9867 26.5262 24.8874V20.4282C26.5262 20.3682 26.5262 20.3382 26.5165 20.3125C26.5077 20.2899 26.4937 20.2697 26.4754 20.2539C26.4548 20.2359 26.4268 20.2258 26.3708 20.2055L19.035 17.5557ZM22.7291 22.7484C22.7291 22.8502 22.7291 22.9011 22.7083 22.9362C22.69 22.967 22.6612 22.99 22.6273 23.001C22.5887 23.0135 22.5395 23.0019 22.4411 22.9787L20.0128 22.4068C19.9481 22.3916 19.9158 22.3839 19.8916 22.3661C19.8703 22.3504 19.8536 22.3292 19.8433 22.3048C19.8316 22.277 19.8316 22.2435 19.8316 22.1765V19.3177C19.8316 19.2081 19.8316 19.1532 19.8543 19.117C19.8743 19.0853 19.9054 19.0625 19.9414 19.053C19.9825 19.0423 20.0343 19.059 20.1379 19.0925L22.5662 19.8779C22.6248 19.8968 22.6541 19.9063 22.6757 19.9243C22.6948 19.9401 22.7097 19.9606 22.7188 19.9838C22.7291 20.0101 22.7291 20.0411 22.7291 20.1031V22.7484Z" fill="white"/>
<path d="M18.9968 24.6761C18.9021 24.6591 18.8547 24.6507 18.8178 24.6642C18.7854 24.676 18.7581 24.699 18.7408 24.7291C18.7212 24.7635 18.7212 24.812 18.7212 24.9089V31.2524C18.7212 31.3352 18.7212 31.3765 18.7372 31.4082C18.7513 31.436 18.7737 31.4586 18.8013 31.4728C18.8326 31.4889 18.8737 31.4889 18.9558 31.4889H26.2916C26.3738 31.4889 26.4148 31.4889 26.4462 31.4728C26.4738 31.4586 26.4962 31.436 26.5102 31.4082C26.5262 31.3765 26.5262 31.3352 26.5262 31.2524V26.2218C26.5262 26.1513 26.5262 26.1161 26.5136 26.0874C26.5024 26.0621 26.4844 26.0405 26.4617 26.025C26.4359 26.0074 26.4015 26.0012 26.3327 25.9889L18.9968 24.6761ZM22.7291 29.2107C22.7291 29.2976 22.7291 29.3411 22.7121 29.3735C22.6971 29.4021 22.6732 29.4249 22.6441 29.4385C22.611 29.4539 22.568 29.4516 22.4819 29.4468L20.0536 29.3147C19.9755 29.3105 19.9364 29.3083 19.9068 29.2917C19.8807 29.277 19.8597 29.2546 19.8465 29.2276C19.8316 29.1968 19.8316 29.1574 19.8316 29.0786V26.2042C19.8316 26.1103 19.8316 26.0633 19.8505 26.0295C19.8671 25.9999 19.8933 25.9769 19.9248 25.9644C19.9606 25.9503 20.0068 25.9569 20.099 25.97L22.5274 26.3157C22.5989 26.3258 22.6347 26.3309 22.6616 26.3483C22.6853 26.3636 22.7042 26.3854 22.7158 26.4112C22.7291 26.4406 22.7291 26.477 22.7291 26.5498V29.2107Z" fill="white"/>
</g>
<defs>
<clipPath id="clip0_109_165">
<rect width="48" height="44" fill="white"/>
</clipPath>
</defs>
</svg>
