<svg width="22" height="22" viewBox="0 0 22 22" fill="none" xmlns="http://www.w3.org/2000/svg">
<path fill-rule="evenodd" clip-rule="evenodd" d="M11.0682 0C11.2898 0 11.5224 0.00728074 11.7642 0.0227524C11.9867 0.0364039 12.2184 0.0582454 12.4602 0.0882795C12.7524 0.123773 12.9602 0.387712 12.9245 0.678012C12.8971 0.898255 12.7377 1.07027 12.5353 1.12579C10.8997 1.56809 9.48378 2.53735 8.48388 3.8389C7.50671 5.1103 6.92702 6.69926 6.92702 8.42499C6.92702 10.5137 7.77871 12.4039 9.15607 13.7718C10.5334 15.1406 12.4355 15.9869 14.5363 15.9869C15.8816 15.9869 17.1445 15.642 18.237 15.0359C19.3726 14.407 20.3305 13.496 21.0128 12.4004C21.1676 12.1519 21.4964 12.0737 21.7464 12.2284C21.9351 12.3439 22.0257 12.5578 21.9937 12.7626C21.5651 15.4019 20.1941 17.7263 18.2334 19.3836C16.302 21.0154 13.801 22 11.0683 22C8.01142 22 5.24475 20.7686 3.24189 18.7783C1.23904 16.7879 0 14.0375 0 11.0005C0 7.96263 1.23908 5.21317 3.24189 3.22278C5.24475 1.23238 8.01236 0.00105447 11.0683 0.00105447L11.0682 0ZM7.63404 3.19444C8.26045 2.3799 9.02879 1.67913 9.90339 1.12942C7.60656 1.39335 5.54788 2.43176 3.99751 3.97254C2.18882 5.76998 1.06977 8.25458 1.06977 10.9984C1.06977 13.7423 2.18886 16.2269 3.99751 18.0244C5.80619 19.8218 8.30635 20.9339 11.0674 20.9339C13.5382 20.9339 15.7985 20.0447 17.542 18.5702C18.7143 17.5791 19.6539 16.3241 20.2665 14.897C19.804 15.302 19.2967 15.6596 18.7536 15.9609C17.5027 16.6544 16.0629 17.0494 14.5346 17.0494C12.1378 17.0494 9.9676 16.0838 8.39683 14.5229C6.82624 12.9621 5.85451 10.8051 5.85451 8.42333C5.85451 6.45752 6.51755 4.64454 7.63298 3.19304L7.63404 3.19444Z" fill="#030712"/>
</svg>
