<svg width="24" height="24" viewBox="0 0 24 24" fill="none" xmlns="http://www.w3.org/2000/svg">
<path fill-rule="evenodd" clip-rule="evenodd" d="M15.8895 20.9902C14.8595 20.9902 13.8565 20.7052 12.9105 20.1422L12.8975 20.1322C7.90145 16.0982 7.90145 16.0982 3.86845 11.1022L3.85045 11.0812C2.20145 8.23919 3.21945 5.26119 5.01545 3.85819C5.73945 3.29219 6.54145 2.99219 7.33645 2.99219C8.25045 2.99219 9.11945 3.38119 9.85045 4.11519C11.6645 5.92919 11.3955 7.17419 10.2625 8.83819C9.31545 10.2732 9.20245 11.2082 11.0045 12.9992C11.8505 13.8442 12.5945 14.4102 13.4695 14.4102C14.1445 14.4102 14.6545 14.0682 15.1475 13.7372C16.0725 13.1132 16.7655 12.8382 17.4075 12.8382C18.1955 12.8382 19.0045 13.2652 19.8805 14.1452C21.2835 15.5482 21.3815 17.4002 20.1425 18.9832C19.1715 20.2202 17.5425 20.9902 15.8895 20.9902Z" fill="#3973E5"/>
</svg>
