<svg width="25" height="24" viewBox="0 0 25 24" fill="none" xmlns="http://www.w3.org/2000/svg">
<path fill-rule="evenodd" clip-rule="evenodd" d="M17.9599 11.17L15.9499 13.12L16.4299 15.88C16.4899 16.26 16.3399 16.64 16.0299 16.86C15.8499 16.99 15.6499 17.05 15.4399 17.05C15.2799 17.05 15.1199 17.01 14.9699 16.94L12.4999 15.63L10.0299 16.94C9.68988 17.11 9.27988 17.08 8.96988 16.86C8.65988 16.64 8.50988 16.26 8.56988 15.88L9.04988 13.12L7.03988 11.17C6.76988 10.91 6.66988 10.51 6.78988 10.15C6.90988 9.79002 7.21988 9.52002 7.59988 9.47002L10.3699 9.07001L11.5999 6.56002C11.9399 5.87002 13.0599 5.87002 13.3999 6.56002L14.6299 9.07001L17.3999 9.47002C17.7799 9.52002 18.0899 9.79002 18.2099 10.15C18.3299 10.51 18.2299 10.91 17.9599 11.17ZM21.5999 9.36002C21.3199 9.06002 21.1699 8.65001 21.1899 8.24002V8.21002C21.2899 6.44002 20.0599 4.85002 18.3199 4.51002H18.2899C17.8799 4.42002 17.5299 4.18002 17.2999 3.83002C16.3399 2.33002 14.4099 1.77002 12.7999 2.52002C12.4199 2.71002 11.9799 2.72002 11.5799 2.56002C9.92988 1.91002 8.02988 2.60002 7.17988 4.16002C6.96988 4.53002 6.61988 4.80002 6.20988 4.91002C4.48988 5.35002 3.35988 7.02002 3.57988 8.78002C3.62988 9.20002 3.50988 9.63002 3.23988 9.96002C2.10988 11.33 2.17988 13.34 3.39988 14.64C3.67988 14.94 3.82988 15.35 3.80988 15.76V15.79C3.70988 17.56 4.93988 19.15 6.67988 19.49H6.70988C7.11988 19.58 7.46988 19.82 7.69988 20.17C8.36988 21.22 9.50988 21.81 10.6899 21.81C11.1999 21.81 11.7099 21.7 12.1999 21.48C12.5799 21.29 13.0199 21.28 13.4199 21.44C15.0699 22.08 16.9699 21.4 17.8199 19.84C18.0299 19.47 18.3799 19.2 18.7899 19.09C20.5099 18.65 21.6399 16.98 21.4199 15.22C21.4099 15.16 21.4099 15.1 21.4099 15.03C21.4099 14.7 21.5199 14.36 21.7599 14.04C22.8899 12.67 22.8199 10.66 21.5999 9.36002Z" fill="#F24848"/>
</svg>
