<svg width="40" height="40" viewBox="0 0 40 40" fill="none" xmlns="http://www.w3.org/2000/svg">
<path opacity="0.2" fill-rule="evenodd" clip-rule="evenodd" d="M4.99829 31.665V11.665C4.99829 7.98329 7.98329 4.99829 11.665 4.99829H28.3316C32.0133 4.99829 34.9983 7.98329 34.9983 11.665V26.665C34.9983 30.3466 32.0133 33.3316 28.3316 33.3316H13.8866C12.445 33.3316 11.0416 33.8 9.88662 34.665L7.66496 36.3316C6.56662 37.155 4.99829 36.3716 4.99829 34.9983V31.665Z" fill="#F24848"/>
<path fill-rule="evenodd" clip-rule="evenodd" d="M4.99829 31.665V11.665C4.99829 7.98329 7.98329 4.99829 11.665 4.99829H28.3316C32.0133 4.99829 34.9983 7.98329 34.9983 11.665V26.665C34.9983 30.3466 32.0133 33.3316 28.3316 33.3316H13.8866C12.445 33.3316 11.0416 33.8 9.88662 34.665L7.66496 36.3316C6.56662 37.155 4.99829 36.3716 4.99829 34.9983V31.665Z" stroke="#F24848" stroke-width="3.33333" stroke-linecap="round" stroke-linejoin="round"/>
<path d="M16.6667 15.8386C16.6667 13.2869 18.9584 11.2703 21.5951 11.7336C23.2734 12.0269 24.6501 13.4036 24.9451 15.0819C25.2801 16.9919 24.0351 18.3319 22.7884 19.5286C21.6067 20.6636 20.8334 21.2086 20.4067 21.8319" stroke="#F24848" stroke-width="3.33333" stroke-linecap="round" stroke-linejoin="round"/>
<path fill-rule="evenodd" clip-rule="evenodd" d="M21.2501 26.6667C21.2501 27.5867 20.5034 28.3333 19.5834 28.3333C18.6634 28.3333 17.9167 27.5867 17.9167 26.6667C17.9167 25.7467 18.6634 25 19.5834 25C20.5034 25 21.2501 25.7467 21.2501 26.6667" fill="#F24848"/>
</svg>
