<svg width="20" height="20" viewBox="0 0 20 20" fill="none" xmlns="http://www.w3.org/2000/svg">
<path d="M15.9778 14.9888C17.5052 13.2057 18.2827 10.9003 18.147 8.55637C18.0114 6.21243 16.9731 4.01212 15.2502 2.41713C13.5273 0.82214 11.2535 -0.0435555 8.9061 0.00168813C6.55867 0.0469318 4.31999 0.999597 2.65979 2.65979C0.999597 4.31999 0.0469318 6.55867 0.00168813 8.9061C-0.0435555 11.2535 0.82214 13.5273 2.41713 15.2502C4.01212 16.9731 6.21243 18.0114 8.55637 18.147C10.9003 18.2827 13.2057 17.5052 14.9888 15.9778L18.8287 19.8131C18.9608 19.9361 19.1354 20.0031 19.3158 19.9999C19.4962 19.9967 19.6684 19.9236 19.796 19.796C19.9236 19.6684 19.9967 19.4962 19.9999 19.3158C20.0031 19.1354 19.9361 18.9608 19.8131 18.8287L15.9778 14.9888ZM1.44473 9.10595C1.44378 7.84588 1.75364 6.60504 2.34686 5.49335C2.94008 4.38166 3.79834 3.43345 4.8456 2.73274C5.89287 2.03203 7.0968 1.60045 8.35073 1.47624C9.60465 1.35202 10.8699 1.53901 12.0342 2.02064C13.1986 2.50227 14.2262 3.26366 15.026 4.23736C15.8258 5.21105 16.3731 6.36699 16.6194 7.60276C16.8657 8.83852 16.8034 10.1159 16.4379 11.3219C16.0725 12.5278 15.4153 13.6249 14.5245 14.5162H14.5199V14.5208C13.4491 15.5928 12.0844 16.323 10.5985 16.619C9.11252 16.9151 7.57216 16.7636 6.17232 16.1839C4.77247 15.6042 3.57607 14.6222 2.73452 13.3623C1.89297 12.1024 1.44411 10.6211 1.44473 9.10595Z" fill="currentColor"/>
</svg>
