<svg width="24" height="24" viewBox="0 0 24 24" fill="none" xmlns="http://www.w3.org/2000/svg">
<path fill-rule="evenodd" clip-rule="evenodd" d="M21.6999 10.2101L17.5799 14.2001L18.5499 19.8301C18.6099 20.2001 18.4599 20.5801 18.1499 20.8101C17.9799 20.9401 17.7699 21.0001 17.5599 21.0001C17.3999 21.0001 17.2499 20.9601 17.0999 20.8901L11.9999 18.2201L6.89991 20.8901C6.55991 21.0601 6.15991 21.0301 5.84991 20.8101C5.53991 20.5801 5.38991 20.2001 5.44991 19.8301L6.41991 14.2001L2.29991 10.2101C2.02991 9.95011 1.92991 9.55011 2.04991 9.19011C2.16991 8.82011 2.47991 8.56011 2.85991 8.50011L8.55991 7.68011L11.0999 2.55011C11.4399 1.88011 12.5599 1.88011 12.8999 2.55011L15.4399 7.68011L21.1399 8.50011C21.5199 8.56011 21.8299 8.82011 21.9499 9.19011C22.0699 9.55011 21.9699 9.95011 21.6999 10.2101Z" fill="#F5C132"/>
</svg>
