<svg width="22" height="22" viewBox="0 0 22 22" fill="none" xmlns="http://www.w3.org/2000/svg">
<path d="M11 5.16804C7.65632 5.16804 4.93608 7.92746 4.93608 11.3193C4.93608 14.7111 7.65632 17.4706 11 17.4706C14.3437 17.4706 17.0639 14.7111 17.0639 11.3193C17.0639 7.92746 14.3437 5.16804 11 5.16804ZM11 16.0226C8.44353 16.0226 6.36378 13.9129 6.36378 11.3196C6.36378 8.72632 8.44353 6.6163 11 6.6163C13.5565 6.6163 15.6365 8.72632 15.6365 11.3196C15.6365 13.9129 13.5565 16.0226 11 16.0226ZM10.2861 3.06204V0.724131C10.2861 0.324238 10.6058 0 11 0C11.3942 0 11.7138 0.324238 11.7138 0.724131V3.06204C11.7138 3.46193 11.3942 3.78617 11 3.78617C10.6058 3.78617 10.2861 3.46193 10.2861 3.06204ZM3.73943 3.66821C3.48616 3.36188 3.52542 2.90517 3.8274 2.64794C4.12938 2.39102 4.57961 2.43086 4.83319 2.73719L6.31446 4.52821C6.56773 4.83454 6.52846 5.29125 6.22649 5.54848C6.09254 5.66243 5.92999 5.7177 5.76804 5.7177C5.56439 5.7177 5.36195 5.62969 5.2207 5.45893L3.73943 3.66821ZM2.85967 10.5986L0.589965 10.1925C0.201838 10.123 -0.0575228 9.74751 0.0109703 9.35349C0.0794633 8.95977 0.449021 8.69729 0.838062 8.76616L3.10777 9.17222C3.4959 9.2417 3.75526 9.6172 3.68676 10.0112C3.62558 10.3626 3.32451 10.6097 2.98448 10.6097C2.94308 10.6097 2.90168 10.606 2.85967 10.5986ZM4.56865 15.086C4.76561 15.4325 4.64871 15.8753 4.30746 16.0751L2.31142 17.2439C2.1991 17.3097 2.07611 17.3412 1.95526 17.3412C1.70868 17.3412 1.4685 17.2112 1.33639 16.9789C1.13943 16.6325 1.25633 16.1897 1.59757 15.9899L3.59361 14.8211C3.93486 14.621 4.37139 14.7395 4.56865 15.086ZM8.88676 19.3264L8.09832 21.5235C7.993 21.8175 7.71903 22 7.4274 22C7.34642 22 7.26393 21.9858 7.18326 21.9562C6.81279 21.8194 6.62192 21.404 6.75678 21.0279L7.54521 18.8308C7.68006 18.455 8.0898 18.2614 8.46027 18.3982C8.83044 18.535 9.02161 18.9506 8.88676 19.3264ZM15.2432 21.0279C15.3781 21.4037 15.1869 21.8194 14.8167 21.9562C14.7361 21.9858 14.6536 22 14.5726 22C14.281 22 14.0073 21.8175 13.9017 21.5235L13.1132 19.3264C12.9784 18.9506 13.1695 18.5353 13.5397 18.3982C13.9102 18.2614 14.3199 18.4553 14.4548 18.8308L15.2432 21.0279ZM20.6639 16.9789C20.5318 17.2112 20.2916 17.3412 20.045 17.3412C19.9239 17.3412 19.8012 17.31 19.6889 17.2439L17.6928 16.0751C17.3516 15.875 17.2344 15.4322 17.4316 15.086C17.6289 14.7395 18.0654 14.6213 18.4067 14.8211L20.4027 15.9899C20.744 16.19 20.8609 16.6328 20.6639 16.9789ZM21.4103 10.1925L19.1403 10.5986C19.0983 10.606 19.0566 10.6097 19.0155 10.6097C18.6755 10.6097 18.3744 10.3623 18.3132 10.0112C18.2447 9.6172 18.5041 9.2417 18.8922 9.17222L21.1619 8.76616C21.5504 8.69698 21.9205 8.95977 21.989 9.35349C22.0575 9.74751 21.7985 10.1233 21.4103 10.1925ZM15.7735 5.54879C15.4715 5.29187 15.4323 4.83485 15.6855 4.52852L17.1668 2.73749C17.4204 2.43117 17.8703 2.39133 18.1726 2.64825C18.4746 2.90517 18.5138 3.36219 18.2606 3.66852L16.7793 5.45955C16.638 5.63031 16.4356 5.71832 16.2319 5.71832C16.07 5.71801 15.9074 5.66243 15.7735 5.54879Z" fill="#F9FAFB"/>
</svg>
