<svg width="28" height="28" viewBox="0 0 28 28" fill="none" xmlns="http://www.w3.org/2000/svg">
<path d="M14.5605 0C20.896 3.84117e-10 24.064 -0.00038556 26.0322 1.96777C28.0004 3.93598 28 7.10404 28 13.4395V14.5596C28 20.895 28.0002 24.063 26.0322 26.0312C24.064 27.9995 20.896 28 14.5605 28H13.4404C7.10477 28 3.93699 27.9995 1.96875 26.0312C0.000563514 24.063 0 20.8952 0 14.5596V13.4395C7.05991e-10 7.10404 0.000548489 3.93598 1.96875 1.96777C3.93701 -0.000212456 7.10504 0 13.4404 0H14.5605ZM22.0059 7.60742C22.194 6.83524 21.416 6.18508 20.6924 6.50098L5.57617 13.0879C4.8342 13.4103 4.80383 14.4512 5.52148 14.8223L8.58789 16.4033L17.7109 10.0527C17.8082 9.98589 17.9058 10.0651 17.9121 10.1562L10.2666 17.4561C10.078 17.6385 9.96777 17.8879 9.96777 18.1494V21.5312C9.96788 22.4981 11.245 22.8569 11.75 22.0303L13.6055 18.9951L17.5293 21.0205C18.0827 21.306 18.7574 20.9956 18.9033 20.3936L22.0059 7.60742Z" fill="currentColor"/>
</svg>
