<svg width="28" height="28" viewBox="0 0 28 28" fill="none" xmlns="http://www.w3.org/2000/svg">
<path d="M14.5596 0C20.8947 0 24.063 -3.25778e-06 26.0312 1.96777C27.9995 3.93602 28 7.10477 28 13.4404V14.5596C28 20.8952 27.9995 24.063 26.0312 26.0312C24.063 27.9995 20.8952 28 14.5596 28H13.4404C7.10477 28 3.93602 27.9995 1.96777 26.0312C-3.26038e-06 24.063 0 20.8947 0 14.5596V13.4404C0 7.10477 -0.000465351 3.93602 1.96777 1.96777C3.93602 -0.000465351 7.10477 0 13.4404 0H14.5596ZM4.72461 8.5166C4.87629 15.7966 8.51678 20.1719 14.8984 20.1719H15.2598V16.0068C17.6048 16.2402 19.3782 17.9552 20.0898 20.1719H23.4033C22.4934 16.8587 20.1017 15.0273 18.6084 14.3271C20.1017 13.4638 22.2015 11.3633 22.7031 8.5166H19.6934C19.04 10.8266 17.1031 12.9267 15.2598 13.125V8.5166H12.25V16.5898C10.3834 16.1232 8.02687 13.8599 7.92188 8.5166H4.72461Z" fill="currentColor"/>
</svg>
