<svg width="24" height="24" viewBox="0 0 24 24" fill="none" xmlns="http://www.w3.org/2000/svg">
<path opacity="0.2" fill-rule="evenodd" clip-rule="evenodd" d="M19.1969 19H4.80287C3.46187 19 2.61987 17.554 3.28087 16.387L10.4779 3.68699C11.1479 2.50399 12.8519 2.50399 13.5229 3.68699L20.7199 16.387C21.3809 17.554 20.5379 19 19.1969 19Z" fill="#F24848"/>
<path fill-rule="evenodd" clip-rule="evenodd" d="M19.1969 19H4.80287C3.46187 19 2.61987 17.554 3.28087 16.387L10.4779 3.68699C11.1479 2.50399 12.8519 2.50399 13.5229 3.68699L20.7199 16.387C21.3809 17.554 20.5379 19 19.1969 19Z" stroke="#F24848" stroke-width="2" stroke-linecap="round" stroke-linejoin="round"/>
<path d="M12 8.05328V12.0003" stroke="#F24848" stroke-width="2" stroke-linecap="round" stroke-linejoin="round"/>
<path fill-rule="evenodd" clip-rule="evenodd" d="M13 15.25C13 15.802 12.552 16.25 12 16.25C11.448 16.25 11 15.802 11 15.25C11 14.698 11.448 14.25 12 14.25C12.552 14.25 13 14.698 13 15.25Z" fill="#F24848"/>
</svg>
