<svg width="24" height="24" viewBox="0 0 24 24" fill="none" xmlns="http://www.w3.org/2000/svg">
<path fill-rule="evenodd" clip-rule="evenodd" d="M13.0002 12C13.0002 12.55 12.5502 13 12.0002 13C11.4502 13 11.0002 12.55 11.0002 12V8.05005C11.0002 7.50005 11.4502 7.05005 12.0002 7.05005C12.5502 7.05005 13.0002 7.50005 13.0002 8.05005V12ZM12.0002 16.25C11.4502 16.25 11.0002 15.8 11.0002 15.25C11.0002 14.7 11.4502 14.25 12.0002 14.25C12.5502 14.25 13.0002 14.7 13.0002 15.25C13.0002 15.8 12.5502 16.25 12.0002 16.25ZM21.5902 15.89L14.3902 3.19005C13.9002 2.32005 13.0002 1.80005 12.0002 1.80005C11.0002 1.80005 10.1002 2.32005 9.61016 3.19005L2.41016 15.89C1.92016 16.75 1.93016 17.78 2.43016 18.63C2.92016 19.49 3.81016 20 4.80016 20H19.2002C20.1902 20 21.0802 19.49 21.5702 18.63C22.0702 17.78 22.0802 16.75 21.5902 15.89Z" fill="#F24848"/>
</svg>
